<?xml version="1.0" encoding="utf-8"?>
<!-- Generator: Adobe Illustrator 16.0.0, SVG Export Plug-In . SVG Version: 6.00 Build 0)  -->
<!DOCTYPE svg PUBLIC "-//W3C//DTD SVG 1.1//EN" "http://www.w3.org/Graphics/SVG/1.1/DTD/svg11.dtd">
<svg version="1.1" id="Layer_1" xmlns="http://www.w3.org/2000/svg" xmlns:xlink="http://www.w3.org/1999/xlink" x="0px" y="0px"
	 width="294px" height="294.5px" viewBox="572.5 -4.5 294 294.5" enable-background="new 572.5 -4.5 294 294.5"
	 xml:space="preserve">
<path fill="#3B6978" d="M720,0c-80.081,0-145,64.919-145,145s64.919,145,145,145c80.08,0,144.999-64.92,144.999-145S800.081,0,720,0
	z M720,263.319c-65.347,0-118.32-52.974-118.32-118.32S654.653,26.68,720,26.68C785.312,26.76,838.239,79.687,838.319,145
	C838.319,210.346,785.346,263.319,720,263.319z"/>
<circle fill="#84A9AC" cx="720" cy="145" r="43.5"/>
<path fill="#84A9AC" d="M720,87c-32.032,0-58,25.967-58,58c0,32.032,25.968,58,58,58s57.999-25.969,57.999-58
	C777.999,112.967,752.032,87,720,87z M720,174c-16.017,0-29.001-12.984-29.001-29s12.984-29,29.001-29c16.016,0,29,12.984,29,29
	S736.016,174,720,174z"/>
</svg>
