<?xml version="1.0" encoding="utf-8"?>
<!-- Generator: Adobe Illustrator 21.1.0, SVG Export Plug-In . SVG Version: 6.00 Build 0)  -->
<svg version="1.1" xmlns="http://www.w3.org/2000/svg" xmlns:xlink="http://www.w3.org/1999/xlink" x="0px" y="0px"
	 viewBox="0 0 500 500" style="enable-background:new 0 0 500 500;" xml:space="preserve">
<style type="text/css">
	.st0{fill:#F5F5F5;}
	.st1{fill:#E0E0E0;}
	.st2{fill:#EBEBEB;}
	.st3{fill:#FAFAFA;}
	.st4{display:none;}
	.st5{display:inline;fill:#EBEBEB;}
	.st6{fill:#263238;}
	.st7{fill:#0F4C81;}
	.st8{fill:none;}
	.st9{font-family:'MyriadPro-Regular';}
	.st10{font-size:8.7241px;}
	.st11{fill:#FFFFFF;}
	.st12{fill:#B5C4C9;}
	.st13{opacity:0.3;}
	.st14{opacity:0.4;}
	.st15{fill:#455A64;}
	.st16{opacity:0.6;}
	.st17{fill:#FFBE9D;}
	.st18{opacity:0.5;}
	.st19{fill:#5D7546;}
</style>
<g id="Background_Complete">
	<g>
		<g>
			<g>
				<g>
					<g>
						<path class="st0" d="M191.4,458.3c-1.4-1.2-4.5-5-2.1-9.4c0.9-1.6,2.7-2.4,4.4-3.1c1.7-0.7,3.5-1.3,4.9-2.5
							c2.6-2.2,3.4-6,5.1-9c2-3.4,5.8-6,9.7-5.8c4.5,0.2,8.3,3.9,10,8.1c1.7,4.2,1.8,8.9,1.8,13.5c0,2.5-0.1,5.4-1.9,7.1
							c-1.7,1.6-4.3,1.6-6.6,1.5c-8.3-0.3-16.5-0.5-24.8-0.8"/>
					</g>
				</g>
			</g>
		</g>
		<g>
			<g>
				<g>
					<g>
						<g>
							<path class="st1" d="M238.8,390.1h-65.2l11.7,70c0.5,3.1,2.7,5.4,5.6,6.2c0.1,0,0.2,0,0.2,0.1c0.2,0,0.4,0.1,0.6,0.1
								c0.4,0.1,0.9,0.1,1.3,0.2c0,0,0,0,0,0.1l0.3-0.1c0,0,0,0,0,0h29.1c0.5,0,1.1-0.1,1.6-0.2c3.4-0.5,6.2-3.3,6.6-6.8l5.7-48.3
								l0.3-1.9h0l2.2-19.1L238.8,390.1z M226.5,434.8h-6.7l0.7-20.3h7.8L226.5,434.8z M228.9,414.5h6.4l-2.4,20.3h-5.8L228.9,414.5
								z M209.8,457.4l-0.4-17.7h9.6l-0.6,17.7H209.8z M199.3,439.7h9.4l0.4,17.7h-8.4L199.3,439.7z M200.1,457.4h-7.9
								c-0.7-4.8-1.7-11-2.8-17.7h9.2L200.1,457.4z M199,434.8l-1.6-20.3h10.7l0.5,20.3H199z M209.2,434.8l-0.5-20.3h11.1l-0.7,20.3
								H209.2z M208.7,409.6l-0.4-18.8h12.4l-0.6,18.8H208.7z M208,409.6h-11l-1.5-18.8h12L208,409.6z M196.4,409.6h-11.6
								c-0.4-2.6-0.8-5.1-1.2-7.3c-1.2-7.6-1.7-10.5-1.9-11.6h13.3L196.4,409.6z M196.7,414.5l1.6,20.3h-9.6c-0.3-2.1-0.7-4.1-1-6.2
								c-0.8-4.8-1.5-9.6-2.2-14.1H196.7z M188,434.8h-6.3l-3.4-20.3h6.5C185.8,420.8,186.9,427.8,188,434.8z M188.8,439.7
								c1,6.1,1.9,12.1,2.8,17.7h-6l-3-17.7H188.8z M219.1,457.4l0.6-17.7h6.4l-1.5,17.7H219.1z M220.6,409.6l0.6-18.8h9l-1.6,18.8
								H220.6z M181,390.8c0.3,1.4,1.4,8.8,3,18.8h-6.5l-3.2-18.8H181z M230.3,457.4h-5l1.5-17.7h5.6L230.3,457.4z M235.9,409.6
								h-6.6l1.6-18.8h7.2L235.9,409.6z"/>
						</g>
					</g>
				</g>
			</g>
		</g>
	</g>
	<g>
		<g>
			<g>
				
					<rect x="312.5" y="82.6" transform="matrix(0.9859 -0.1671 0.1671 0.9859 -14.4022 62.312)" class="st2" width="101.3" height="68.3"/>
			</g>
			<g>
				<g>
					<path class="st3" d="M407.4,74.7c0,0-0.2,0.4-0.8,1.1c-0.6,0.7-1.4,1.7-2.4,2.9c-2.2,2.6-5.2,6.2-8.8,10.6
						c-7.6,9-18,21.2-29.5,34.8l-0.2,0.3l-0.3-0.2c-0.3-0.1-0.5-0.3-0.8-0.4c-15.7-8.8-30-16.7-40.4-22.5c-5.1-2.9-9.2-5.2-12.2-6.9
						c-1.4-0.8-2.5-1.4-3.3-1.9c-0.7-0.4-1.1-0.7-1.1-0.7c0,0,0.4,0.2,1.2,0.6c0.9,0.4,2,1,3.4,1.8c3,1.6,7.2,3.9,12.3,6.7
						c10.4,5.7,24.7,13.6,40.5,22.3c0.3,0.2,0.5,0.3,0.8,0.4l-0.6,0.1c11.6-13.5,22.1-25.7,29.7-34.6c3.8-4.3,6.9-7.9,9.1-10.4
						c1-1.2,1.9-2.1,2.5-2.8C407.1,75,407.4,74.6,407.4,74.7z"/>
				</g>
			</g>
		</g>
		<g>
			<g>
				
					<ellipse transform="matrix(0.5076 -0.8616 0.8616 0.5076 46.9098 353.3958)" class="st3" cx="332.6" cy="135.7" rx="26.9" ry="0.5"/>
			</g>
		</g>
		<g>
			<g>
				
					<ellipse transform="matrix(0.6738 -0.739 0.739 0.6738 38.5908 335.3412)" class="st3" cx="399.1" cy="124" rx="0.5" ry="26.7"/>
			</g>
		</g>
	</g>
	<g>
		<g>
			<g>
				
					<rect x="54.2" y="257" transform="matrix(0.9961 -8.848188e-02 8.848188e-02 0.9961 -23.9462 8.1218)" class="st0" width="50.9" height="34.3"/>
			</g>
			<g>
				<g>
					<path class="st1" d="M103.5,254.8c0,0-0.1,0.2-0.4,0.5c-0.3,0.3-0.8,0.8-1.3,1.4c-1.2,1.2-2.8,2.9-4.8,5
						c-4.2,4.2-9.9,9.9-16.2,16.3l-0.1,0.1l-0.2-0.1c-0.1-0.1-0.3-0.2-0.4-0.3c-7.5-5-14.3-9.6-19.3-12.9c-2.4-1.6-4.4-3-5.8-3.9
						c-0.7-0.5-1.2-0.8-1.6-1.1c-0.4-0.3-0.5-0.4-0.5-0.4c0,0,0.2,0.1,0.6,0.3c0.4,0.3,0.9,0.6,1.6,1c1.4,0.9,3.4,2.2,5.9,3.8
						c5,3.3,11.8,7.8,19.4,12.8c0.1,0.1,0.3,0.2,0.4,0.3l-0.3,0c6.3-6.3,12.1-12,16.3-16.2c2.1-2,3.7-3.7,5-4.8c0.6-0.5,1-1,1.4-1.3
						C103.3,255,103.4,254.8,103.5,254.8z"/>
				</g>
			</g>
		</g>
		<g>
			<g>
				
					<ellipse transform="matrix(0.5742 -0.8187 0.8187 0.5742 -204.1386 172.3152)" class="st1" cx="63.6" cy="282.4" rx="13.5" ry="0.2"/>
			</g>
		</g>
		<g>
			<g>
				
					<ellipse transform="matrix(0.7301 -0.6833 0.6833 0.7301 -164.5121 141.8482)" class="st1" cx="97.3" cy="279.2" rx="0.2" ry="13.4"/>
			</g>
		</g>
	</g>
	<g>
		<g>
			<g>
				<g>
					<path class="st1" d="M463.4,218c0,0,0-0.3,0.1-0.8c0.1-0.5,0.2-1.2,0.4-2.2c0.3-1.9,0.8-4.8,1.4-8.3c1.3-7.2,3.1-17.5,5.3-30.1
						l0.2,0.2c-16.7-3-37.6-6.7-60.2-10.7l0,0l0.3-0.2c-2.7,14.8-5.2,28.8-7.4,41.3l-0.2-0.3c17.7,3.2,32.7,6,43.3,7.9
						c5.3,1,9.5,1.7,12.4,2.3c1.4,0.3,2.5,0.5,3.3,0.6c0.4,0.1,0.6,0.1,0.9,0.2C463.3,218,463.4,218,463.4,218c0,0-0.1,0-0.3,0
						c-0.2,0-0.5-0.1-0.8-0.1c-0.8-0.1-1.9-0.3-3.3-0.6c-2.9-0.5-7.1-1.2-12.4-2.2c-10.7-1.9-25.7-4.5-43.5-7.7l-0.2,0l0-0.2
						c2.2-12.6,4.8-26.6,7.4-41.3l0-0.2l0.2,0l0,0c22.6,4.1,43.5,7.8,60.2,10.8l0.2,0l0,0.2c-2.3,12.6-4.2,22.9-5.5,30.2
						c-0.7,3.6-1.2,6.4-1.5,8.3c-0.2,0.9-0.3,1.6-0.4,2.2C463.5,217.8,463.4,218,463.4,218z"/>
				</g>
			</g>
		</g>
		<g>
			<g>
				<g>
					<path class="st1" d="M470.8,176.7c0,0-0.2,0.2-0.7,0.5c-0.5,0.3-1.2,0.8-2,1.3c-1.8,1.2-4.3,2.8-7.5,4.9
						c-6.4,4.1-15.1,9.7-24.8,15.9c-0.7-0.1-0.2,0-0.3-0.1l0,0l0,0l0-0.1l-0.1-0.1l-0.2-0.2l-0.3-0.4l-0.6-0.9
						c-0.4-0.6-0.9-1.1-1.3-1.7c-0.8-1.1-1.7-2.2-2.5-3.3c-1.6-2.2-3.2-4.2-4.7-6.2c-3-4-5.7-7.5-7.9-10.6c-2.2-3-4-5.4-5.3-7.2
						c-0.6-0.8-1.1-1.5-1.4-2c-0.3-0.5-0.5-0.7-0.5-0.7c0,0,0.2,0.2,0.6,0.6c0.4,0.5,0.9,1.1,1.5,1.9c1.3,1.7,3.2,4.1,5.4,7.1
						c2.3,3,5,6.6,8,10.5c1.5,2,3.1,4.1,4.7,6.2c0.8,1.1,1.7,2.2,2.5,3.3c0.4,0.6,0.8,1.1,1.3,1.7l0.6,0.9l0.3,0.4l0.2,0.2l0.1,0.1
						l0,0.1l0,0l0,0c-0.1,0,0.3,0.1-0.3,0c9.7-6.1,18.4-11.7,24.8-15.7c3.2-2,5.7-3.6,7.6-4.7c0.9-0.5,1.6-1,2.1-1.3
						C470.6,176.8,470.8,176.6,470.8,176.7z"/>
				</g>
			</g>
		</g>
		<g>
			<g>
				<g>
					
						<ellipse transform="matrix(0.7807 -0.6249 0.6249 0.7807 -32.4529 302.8288)" class="st1" cx="415.2" cy="197.7" rx="15.5" ry="0.3"/>
				</g>
			</g>
		</g>
		<g>
			<g>
				<g>
					
						<ellipse transform="matrix(0.8776 -0.4793 0.4793 0.8776 -42.3028 243.6879)" class="st1" cx="456.2" cy="204.7" rx="0.3" ry="15.8"/>
				</g>
			</g>
		</g>
	</g>
	<g>
		<g>
			<g>
				<g>
					<g>
						<path class="st1" d="M196.3,295.9v11.6h-50c-3.2,0-5.8-2.6-5.8-5.8v0c0-3.2,2.6-5.8,5.8-5.8"/>
					</g>
				</g>
			</g>
		</g>
		<g>
			<g>
				<g>
					<g>
						<path class="st3" d="M196.3,305.1h-16.6c-1.8,0-3.3-1.5-3.3-3.3v-0.2c0-1.8,1.5-3.3,3.3-3.3h16.6V305.1z"/>
					</g>
				</g>
			</g>
		</g>
	</g>
	<g>
		<g>
			<g>
				<g>
					<g>
						<path class="st0" d="M196.3,284.3v11.6h-50c-3.2,0-5.8-2.6-5.8-5.8v0c0-3.2,2.6-5.8,5.8-5.8H196.3z"/>
					</g>
				</g>
			</g>
		</g>
		<g>
			<g>
				<g>
					<g>
						<path class="st1" d="M196.3,293.5h-16.6c-1.8,0-3.3-1.5-3.3-3.3V290c0-1.8,1.5-3.3,3.3-3.3h16.6V293.5z"/>
					</g>
				</g>
			</g>
		</g>
	</g>
	<g>
		<g>
			<polygon class="st1" points="160.2,265.7 152.2,284.3 157.3,284.3 160.9,274.3 			"/>
		</g>
		<g>
			<g>
				<g>
					<polygon class="st2" points="184.5,248.8 187.6,284.3 161.7,284.3 158.8,248.8 					"/>
				</g>
				<g>
					<polygon class="st3" points="182,251.6 184.7,281.3 165.2,281.6 162.6,251.4 					"/>
				</g>
			</g>
			<g>
				<polygon class="st1" points="177.9,255.7 179.4,276.2 169,276.2 167.2,255.7 				"/>
			</g>
		</g>
	</g>
</g>
<g id="Background_Simple" class="st4">
	<path class="st5" d="M433.2,135.2l-2.1-3.4c-17.9-29.1-50.1-46.6-84.2-44.5c-4.4,0.3-8.7,0.9-13,1.8c-31,6.5-57.9,29.7-69,59.3
		c-6.6,17.4-8.4,37.5-20.9,51.3c-16.2,18-43.7,18.5-67.9,17.8c-24.2-0.7-51.8-0.1-67.9,17.9c-10.1,11.3-13.3,27.4-12.5,42.5
		c2.2,40.1,30.4,75.9,66.4,93.8c36,17.8,78.3,19.4,117.7,11.6c55.2-11,107.6-41.1,139.2-87.7S458.4,185.4,433.2,135.2z"/>
</g>
<g id="Floor">
	<g>
		<g>
			<path class="st6" d="M477.1,466.9c0,0.1-101.2,0.3-226.1,0.3c-124.9,0-226.1-0.1-226.1-0.3c0-0.1,101.2-0.3,226.1-0.3
				C375.9,466.6,477.1,466.7,477.1,466.9z"/>
		</g>
	</g>
</g>
<g id="Screen">
	<g id="New_Email">
		<g>
			<g>
				<rect x="47" y="45.6" class="st3" width="269.8" height="183"/>
			</g>
			<g>
				<path class="st3" d="M318,228.8H47.8V45.5H318V228.8z M317.8,45.6H48v183h269.8"/>
			</g>
			<g>
				<path class="st3" d="M318,228.8H47.8V45.5H318V228.8z M317.8,45.6H48v183h269.8"/>
			</g>
			<g>
				<g>
					<rect x="47.9" y="45.6" class="st7" width="270" height="18.1"/>
				</g>
				<g>
					<rect x="47.9" y="200.6" class="st2" width="270" height="28.1"/>
				</g>
				<g>
					<g>
						<g>
							<polygon class="st8" points="80.7,213.3 78.8,213 78,211.3 77.2,213 75.4,213.3 76.7,214.6 76.7,214.6 76.4,216.4 78,215.5 
								79.7,216.4 79.3,214.6 79.4,214.5 							"/>
						</g>
						<g>
							<circle class="st8" cx="66.2" cy="212.9" r="1.1"/>
						</g>
						<g>
							<path class="st6" d="M99.2,214.2h2.2l0.7,1.5h0.5l-2.2-4.7h-0.1l-2.2,4.7h0.5L99.2,214.2z M100.3,211.9l0.9,1.9h-1.8
								L100.3,211.9z"/>
						</g>
						<g>
							<rect x="97.6" y="216.7" class="st6" width="5.3" height="0.4"/>
						</g>
						<g>
							<path class="st6" d="M66.4,210.8C66.4,210.8,66.4,210.8,66.4,210.8H66c0,0,0,0,0,0c-1,0-1.9,0.9-1.9,2c0,1.1,1.1,3.2,1.9,4
								c0,0,0.1,0.2,0.4,0c0.7-0.7,1.9-2.9,1.9-4C68.2,211.7,67.4,210.8,66.4,210.8z M66.2,214c-0.6,0-1.1-0.5-1.1-1.1
								c0-0.6,0.5-1.1,1.1-1.1c0.6,0,1.1,0.5,1.1,1.1C67.3,213.5,66.8,214,66.2,214z"/>
						</g>
						<g>
							<path class="st6" d="M91.1,215.4c0,0.6-0.5,1.1-1.1,1.1c-0.6,0-1.1-0.5-1.1-1.1v-3.7c0-0.4,0.3-0.7,0.7-0.7
								c0.4,0,0.7,0.3,0.7,0.7v3.1h0c0,0.2-0.2,0.3-0.4,0.3c-0.2,0-0.4-0.1-0.4-0.3v-2.4h-0.3v2.3v0v0.1h0c0.1,0.3,0.3,0.6,0.7,0.6
								c0.3,0,0.6-0.3,0.7-0.6h0v-0.1c0,0,0,0,0-0.1h0v-3h0c0-0.5-0.5-1-1-1c-0.5,0-1,0.4-1,1h0v3.8h0c0.1,0.7,0.7,1.3,1.4,1.3
								c0.7,0,1.3-0.6,1.4-1.3h0v-3.1h-0.3V215.4z"/>
						</g>
						<g>
							<path class="st6" d="M79.1,212.7l-1-2.1l-1,2.1l-2.3,0.3l1.7,1.6l-0.4,2.3l2.1-1.1l2.1,1.1l-0.4-2.3l1.7-1.6L79.1,212.7z
								 M79.7,216.4l-1.6-0.9l-1.6,0.9l0.3-1.7l0-0.1l-1.3-1.3l1.8-0.3l0.8-1.7l0.8,1.7l1.8,0.3l-1.3,1.2l-0.1,0.1L79.7,216.4z"/>
						</g>
					</g>
					<g>
						<g>
							<path class="st6" d="M120.2,208h-0.3v10.8h0.3V208z M120,218.8V208V218.8z"/>
						</g>
						<g>
							<rect x="109.3" y="211.8" class="st6" width="4.3" height="4.6"/>
						</g>
						<g>
							<polygon class="st6" points="110.6,210.7 110.6,211.1 112.2,211.1 112.2,210.7 113.6,210.7 113.6,211.4 109.3,211.4 
								109.3,210.7 							"/>
						</g>
						<g>
							<rect x="110.6" y="210.4" class="st6" width="1.6" height="0.4"/>
						</g>
						<g>
							<rect x="110.6" y="210.7" class="st6" width="1.6" height="0.4"/>
						</g>
						<g>
							<polygon class="st6" points="130,214.3 131.3,212.9 131.5,213.1 130,214.6 128.5,213.1 128.7,212.9 							"/>
						</g>
					</g>
				</g>
				<g>
					<g>
						<rect x="300.2" y="53" class="st8" width="3.3" height="3.3"/>
					</g>
					<g>
						<polygon class="st6" points="292.7,54.9 296.5,54.9 296.5,54.7 292.7,54.7 296.5,54.7 296.5,54.5 292.7,54.5 						"/>
					</g>
					<g>
						<polygon class="st6" points="311.4,52.9 311.1,52.7 309.4,54.4 307.6,52.7 307.4,52.9 309.1,54.7 307.4,56.4 307.6,56.7 
							309.4,54.9 311.1,56.7 311.4,56.4 309.6,54.7 						"/>
					</g>
					<g>
						<path class="st6" d="M299.8,56.7h4.1v-4.1h-4.1V56.7z M300.2,53h3.3v3.3h-3.3V53z"/>
					</g>
				</g>
				<g>
					<path class="st6" d="M311.8,105.1c0-0.8-0.6-1.4-1.4-1.5v0h-5.6v0c-1,0.1-1.9,1-1.9,2c0,1.1,0.8,1.9,1.9,2v0h4.5v-0.4H305
						c-0.9,0-1.7-0.7-1.7-1.7c0-0.9,0.7-1.7,1.7-1.7h5.3c0.6,0,1.1,0.5,1.1,1.1c0,0.6-0.5,1.1-1.1,1.1h-4.5v0
						c-0.3-0.1-0.5-0.3-0.5-0.6c0-0.3,0.2-0.5,0.5-0.6h3.5v-0.4H306v0l0,0h-0.2v0c-0.5,0.1-0.9,0.5-0.9,1c0,0.5,0.4,0.9,0.9,1v0h0.1
						c0,0,0,0,0.1,0v0h4.4v0C311.2,106.6,311.8,105.9,311.8,105.1z"/>
				</g>
				<g>
					<g>
						<ellipse class="st6" cx="110.8" cy="73.4" rx="35.6" ry="0.3"/>
					</g>
				</g>
				<g>
					<g>
						<path class="st6" d="M178.2,89.6c0,0.1-23,0.3-51.4,0.3c-28.4,0-51.4-0.1-51.4-0.3c0-0.1,23-0.3,51.4-0.3
							C155.1,89.3,178.2,89.5,178.2,89.6z"/>
					</g>
				</g>
				<g>
					<g>
						<path class="st6" d="M140.1,105.7c0,0-0.2,0-0.5,0.1c-0.4,0-0.8,0-1.4,0c-1.3,0-2.9,0-5,0.1c-4.2,0-10,0.1-16.4,0.1
							c-6.4,0-12.2,0-16.4-0.1c-2,0-3.7-0.1-5-0.1c-0.5,0-1,0-1.4,0c-0.3,0-0.5,0-0.5-0.1c0,0,0.2,0,0.5-0.1c0.4,0,0.8,0,1.4,0
							c1.3,0,2.9,0,5-0.1c4.2,0,10-0.1,16.4-0.1c6.4,0,12.2,0,16.4,0.1c2,0,3.7,0.1,5,0.1c0.5,0,1,0,1.4,0
							C139.9,105.7,140.1,105.7,140.1,105.7z"/>
					</g>
				</g>
				<g>
					<g>
						<path class="st1" d="M315,114.5c0,0.1-59.8,0.3-133.5,0.3c-73.7,0-133.5-0.1-133.5-0.3c0-0.1,59.8-0.3,133.5-0.3
							C255.2,114.2,315,114.3,315,114.5z"/>
					</g>
				</g>
				<g>
					<g>
						<path class="st1" d="M315,96.9c0,0.1-59.8,0.3-133.5,0.3c-73.8,0-133.5-0.1-133.5-0.3c0-0.1,59.8-0.3,133.5-0.3
							C255.2,96.6,315,96.8,315,96.9z"/>
					</g>
				</g>
				<g>
					<g>
						<path class="st1" d="M315,81.5c0,0.1-59.8,0.3-133.5,0.3C107.8,81.8,48,81.6,48,81.5s59.8-0.3,133.5-0.3
							C255.2,81.2,315,81.4,315,81.5z"/>
					</g>
				</g>
				<g>
					<g>
						<ellipse class="st6" cx="72.6" cy="135.9" rx="8.5" ry="0.3"/>
					</g>
				</g>
				<g>
					<g>
						<ellipse class="st6" cx="100.5" cy="148.6" rx="36.4" ry="0.3"/>
					</g>
				</g>
			</g>
			<g>
				<g>
					<path class="st6" d="M48,45.6c2.1,0,110.8-0.1,269.8-0.2l0.2,0v0.2c0,55.7,0,117.7,0,183v0v0.3l-0.3,0
						c-101.5,0-195.2,0-269.8-0.1l-0.2,0l0-0.2C47.9,117.2,48,47.3,48,45.6c0,1.7,0.1,71.6,0.2,183l-0.2-0.2
						c74.5,0,168.2,0,269.8-0.1l-0.3,0.3v0c0-65.3,0-127.3,0-183l0.2,0.2C158.8,45.7,50.1,45.6,48,45.6z"/>
				</g>
			</g>
		</g>
		<text transform="matrix(1 0 0 1 55.8183 74.6543)" class="st9 st10">A</text>
		<text transform="matrix(1 0 0 1 55.8183 89.6543)" class="st9 st10">CC</text>
		<text transform="matrix(1 0 0 1 55.8183 107.7626)" class="st9 st10">Oggetto</text>
		<text transform="matrix(1 0 0 1 55.8183 58.4292)" class="st11 st9 st10">Nuova email</text>
	</g>
</g>
<g id="Desk">
	<g>
		<g>
			<path class="st12" d="M327.6,287.6H206.5c-5.2,0-9.4-4.2-9.4-9.4v-81.8c0-2.4,1.9-4.3,4.3-4.3h131.4c2.4,0,4.3,1.9,4.3,4.3v81.8
				C337,283.4,332.8,287.6,327.6,287.6z"/>
		</g>
		<g>
			<g>
				<path class="st6" d="M327.6,287.6c0,0,0.1,0,0.3,0c0.2,0,0.5,0,0.9-0.1c0.8-0.1,1.9-0.4,3.3-1.1c1.3-0.7,2.8-2,3.9-4
					c0.5-1,0.9-2.1,1-3.4c0.1-1.3,0-2.7,0-4.1c0-11.6,0-28.4-0.1-49.2c0-5.2,0-10.6,0-16.3c0-2.8,0-5.7,0-8.7c0-1.5,0-3,0-4.5
					c0-1.4-0.9-2.8-2.1-3.5c-0.6-0.3-1.4-0.5-2.1-0.5c-0.8,0-1.5,0-2.3,0c-1.6,0-3.1,0-4.7,0c-3.2,0-6.4,0-9.6,0
					c-6.5,0-13.2,0-20.1,0c-27.5,0-57.7,0-89.3,0h-3H202c-0.5,0-1,0-1.4,0.1c-1.8,0.3-3.3,2-3.3,3.9c0,3.9,0,7.8,0,11.7
					c0,7.7,0,15.3,0,22.8c0,14.9,0,29.4,0,43.1c0,1.7,0,3.4,0,5.1c0.1,1.6,0.7,3.2,1.7,4.6c0.9,1.3,2.2,2.4,3.7,3
					c1.5,0.7,3.1,0.9,4.7,0.8c6.5,0,12.8,0,18.9,0c12.2,0,23.6,0,34,0c20.8,0,37.6,0.1,49.2,0.1c5.8,0,10.3,0,13.4,0
					c1.5,0,2.7,0,3.5,0C327.2,287.6,327.6,287.6,327.6,287.6s-0.4,0-1.2,0c-0.8,0-2,0-3.5,0c-3.1,0-7.6,0-13.4,0
					c-11.6,0-28.4,0-49.2,0.1c-10.4,0-21.8,0-34,0c-6.1,0-12.4,0-18.9,0c-1.6,0-3.4-0.1-4.9-0.8c-1.5-0.7-2.9-1.8-3.9-3.2
					c-1-1.4-1.6-3.1-1.8-4.8c-0.1-1.7,0-3.4,0-5.1c0-13.7,0-28.1,0-43.1c0-7.5,0-15.1,0-22.8c0-3.9,0-7.7,0-11.7
					c0-1,0.4-2.1,1.1-2.9c0.7-0.8,1.6-1.3,2.7-1.5c0.5-0.1,1-0.1,1.5-0.1h1.5h3c31.7,0,61.9,0,89.3,0c6.9,0,13.6,0,20.1,0
					c3.3,0,6.5,0,9.6,0c1.6,0,3.1,0,4.7,0c0.8,0,1.5,0,2.3,0c0.8,0,1.6,0.2,2.3,0.5c1.4,0.8,2.4,2.3,2.4,3.9c0,1.5,0,3,0,4.5
					c0,2.9,0,5.8,0,8.7c0,5.7,0,11.1,0,16.3c0,20.8-0.1,37.6-0.1,49.2c0,1.5,0,2.8-0.1,4.1c-0.1,1.3-0.5,2.5-1,3.5
					c-1.1,2-2.6,3.3-3.9,4c-1.4,0.7-2.5,0.9-3.3,1C328,287.6,327.6,287.6,327.6,287.6z"/>
			</g>
		</g>
		<g>
			<g>
				<path class="st12" d="M279.1,287.6h-24.3c0,0-7.5,12.5,0,20H280C280,307.5,267.6,299.4,279.1,287.6z"/>
			</g>
			<g class="st13">
				<path d="M254.8,287.6l-1.2,2.5l22.3,1.7c0,0,1.8-2.6,3.3-4.2H254.8z"/>
			</g>
		</g>
		<g>
			<circle class="st3" cx="270" cy="278.3" r="2.8"/>
		</g>
		<g>
			<g>
				<g>
					<rect x="203.7" y="197.4" class="st3" width="126.5" height="72.8"/>
				</g>
				<g>
					<g>
						<path class="st6" d="M330.3,270.2c0,0,0-0.5,0-1.3c0-0.9,0-2.1,0-3.8c0-3.4,0-8.3-0.1-14.6c0-12.6-0.1-30.8-0.1-53.1l0.2,0.2
							c-33.9,0-78.2,0-126.5,0.1h0l0.3-0.3c0,25.8,0,50.4,0,72.8l-0.2-0.2c37.1,0,68.7,0.1,91,0.1c11.2,0,20.1,0.1,26.1,0.1
							c3,0,5.4,0,7,0c0.8,0,1.4,0,1.8,0C330.1,270.2,330.3,270.2,330.3,270.2s-0.2,0-0.6,0c-0.4,0-1,0-1.8,0c-1.6,0-3.9,0-6.9,0
							c-6.1,0-14.9,0-26.1,0.1c-22.4,0-54.1,0.1-91.2,0.1l-0.2,0v-0.2c0-22.4,0-47.1,0-72.8v-0.3h0.3h0c48.3,0,92.6,0,126.5,0.1
							l0.2,0l0,0.2c0,22.4-0.1,40.6-0.1,53.2c0,6.3,0,11.2-0.1,14.5c0,1.7,0,2.9,0,3.8C330.3,269.8,330.3,270.2,330.3,270.2z"/>
					</g>
				</g>
			</g>
			<g>
				<g>
					<g>
						<rect x="205.2" y="203.5" class="st7" width="29.8" height="64.9"/>
					</g>
					<g class="st14">
						<rect x="205.2" y="228.1" width="29.8" height="5.8"/>
					</g>
					<g class="st14">
						<rect x="205.2" y="239.9" width="29.8" height="5.8"/>
					</g>
					<g class="st14">
						<rect x="205.2" y="254.1" width="29.8" height="6.4"/>
					</g>
					<g>
						<g>
							<ellipse class="st6" cx="220.2" cy="236.9" rx="9.6" ry="0.3"/>
						</g>
					</g>
					<g>
						<g>
							<ellipse class="st6" cx="220.2" cy="230.9" rx="9.6" ry="0.3"/>
						</g>
					</g>
					<g>
						<g>
							<ellipse class="st6" cx="220.2" cy="260.5" rx="14.8" ry="0.3"/>
						</g>
					</g>
					<g>
						<g>
							<ellipse class="st6" cx="217.9" cy="243.1" rx="7.3" ry="0.3"/>
						</g>
					</g>
					<g>
						<g>
							<ellipse class="st6" cx="220" cy="256.6" rx="7.3" ry="0.3"/>
						</g>
					</g>
					<g>
						<g>
							<ellipse class="st6" cx="220.2" cy="249.8" rx="9.6" ry="0.3"/>
						</g>
					</g>
					<g>
						<g>
							<ellipse class="st6" cx="220.2" cy="264.3" rx="9.6" ry="0.3"/>
						</g>
					</g>
					<g>
						<g>
							<g>
								<path class="st3" d="M219.6,207.9c-3.9,0-7.1,3.2-7.1,7.1c0,2.8,1.6,5.2,3.9,6.3v-2.2c0-1.8,1.5-3.3,3.3-3.3
									c1.8,0,3.3,1.5,3.3,3.3v2c2.2-1.2,3.6-3.5,3.6-6.2C226.7,211.1,223.6,207.9,219.6,207.9z M219.8,215.3
									c-1.4,0-2.5-1.1-2.5-2.5c0-1.4,1.1-2.5,2.5-2.5s2.5,1.1,2.5,2.5C222.3,214.2,221.2,215.3,219.8,215.3z"/>
							</g>
							<g>
								<path class="st7" d="M219.8,215.8c-1.8,0-3.3,1.5-3.3,3.3v2.2c1,0.5,2,0.8,3.2,0.8c1.3,0,2.5-0.3,3.5-0.9v-2
									C223.1,217.3,221.6,215.8,219.8,215.8z"/>
							</g>
							<g>
								<circle class="st7" cx="219.8" cy="212.8" r="2.5"/>
							</g>
						</g>
						<g>
							<g>
								<path class="st3" d="M226.8,215c-0.1,0,0-0.6-0.3-1.7c-0.3-1.1-1-2.6-2.6-3.8c-0.8-0.6-1.8-1.1-2.9-1.3
									c-1.1-0.2-2.4-0.1-3.6,0.3c-1.2,0.4-2.4,1.3-3.2,2.4c-0.8,1.1-1.3,2.6-1.3,4c0,1.5,0.5,2.9,1.3,4c0.8,1.1,2,2,3.2,2.4
									c1.2,0.5,2.5,0.5,3.6,0.3c1.1-0.2,2.1-0.7,2.9-1.3c1.6-1.2,2.3-2.7,2.6-3.8C226.8,215.6,226.7,215,226.8,215
									c0,0,0,0.2,0,0.5c0,0.3,0,0.7-0.2,1.3c-0.2,1.1-0.9,2.7-2.6,4c-0.8,0.6-1.9,1.2-3.1,1.4c-1.2,0.2-2.6,0.2-3.8-0.3
									c-1.3-0.5-2.5-1.3-3.4-2.5c-0.9-1.2-1.4-2.7-1.4-4.3c0-1.6,0.5-3.1,1.4-4.3c0.9-1.2,2.1-2.1,3.4-2.5
									c1.3-0.5,2.7-0.5,3.8-0.3c1.2,0.2,2.2,0.8,3.1,1.4c1.6,1.3,2.3,2.9,2.6,4c0.1,0.6,0.2,1,0.2,1.3
									C226.8,214.8,226.8,215,226.8,215z"/>
							</g>
						</g>
					</g>
				</g>
				<g>
					<rect x="234.9" y="225.2" class="st2" width="93.3" height="8.7"/>
				</g>
				<g>
					<rect x="234.9" y="203.5" class="st0" width="93.3" height="4.4"/>
				</g>
				<g>
					<path class="st1" d="M301.2,206.5h-63c-0.4,0-0.7-0.3-0.7-0.7v-0.3c0-0.4,0.3-0.7,0.7-0.7h63c0.4,0,0.7,0.3,0.7,0.7v0.3
						C301.9,206.2,301.6,206.5,301.2,206.5z"/>
				</g>
				<g>
					<g>
						<path class="st1" d="M310.2,206.5H306c-0.4,0-0.7-0.3-0.7-0.7v-0.3c0-0.4,0.3-0.7,0.7-0.7h4.2c0.4,0,0.7,0.3,0.7,0.7v0.3
							C310.9,206.2,310.6,206.5,310.2,206.5z"/>
					</g>
					<g>
						<rect x="313.9" y="204.7" class="st1" width="0.7" height="0.7"/>
					</g>
					<g>
						<rect x="313.9" y="205.6" class="st1" width="0.7" height="0.7"/>
					</g>
					<g>
						<rect x="315" y="204.7" class="st1" width="0.7" height="0.7"/>
					</g>
					<g>
						<rect x="315" y="205.6" class="st1" width="0.7" height="0.7"/>
					</g>
				</g>
				<g>
					<rect x="234.9" y="207.9" class="st1" width="93.3" height="8.7"/>
				</g>
				<g>
					<rect x="237.5" y="210.7" class="st7" width="2.6" height="2.6"/>
				</g>
				<g>
					<g>
						<ellipse class="st6" cx="261.8" cy="212.1" rx="19.1" ry="0.3"/>
					</g>
				</g>
				<g>
					<g>
						<ellipse class="st6" cx="314.8" cy="212" rx="2.2" ry="0.3"/>
					</g>
				</g>
				<g>
					<rect x="234.9" y="233.9" class="st3" width="93.3" height="8.7"/>
				</g>
				<g>
					<rect x="237.2" y="236.7" class="st7" width="2.7" height="2.6"/>
				</g>
				<g>
					<g>
						<ellipse class="st6" cx="261.7" cy="238" rx="19.3" ry="0.3"/>
					</g>
				</g>
				<g>
					<g>
						<ellipse class="st6" cx="315.2" cy="238" rx="2.2" ry="0.3"/>
					</g>
				</g>
				<g>
					<rect x="234.9" y="242.5" class="st1" width="93.3" height="8.7"/>
				</g>
				<g>
					<rect x="237.2" y="245.3" class="st7" width="2.7" height="2.6"/>
				</g>
				<g>
					<g>
						<ellipse class="st6" cx="261.7" cy="246.6" rx="19.3" ry="0.3"/>
					</g>
				</g>
				<g>
					<g>
						<ellipse class="st6" cx="315.2" cy="246.6" rx="2.2" ry="0.3"/>
					</g>
				</g>
				<g>
					<rect x="234.9" y="251.1" class="st3" width="93.3" height="8.7"/>
				</g>
				<g>
					<rect x="237.2" y="253.9" class="st7" width="2.7" height="2.6"/>
				</g>
				<g>
					<g>
						<ellipse class="st6" cx="261.7" cy="255.2" rx="19.3" ry="0.3"/>
					</g>
				</g>
				<g>
					<g>
						<ellipse class="st6" cx="315.2" cy="255.2" rx="2.2" ry="0.3"/>
					</g>
				</g>
				<g>
					<rect x="234.9" y="259.7" class="st2" width="93.3" height="8.7"/>
				</g>
				<g>
					<rect x="237.2" y="262.5" class="st7" width="2.7" height="2.6"/>
				</g>
				<g>
					<g>
						<ellipse class="st6" cx="261.7" cy="263.8" rx="19.3" ry="0.3"/>
					</g>
				</g>
				<g>
					<g>
						<ellipse class="st6" cx="315.2" cy="263.8" rx="2.2" ry="0.3"/>
					</g>
				</g>
				<g>
					<rect x="234.9" y="216.5" class="st3" width="93.3" height="8.7"/>
				</g>
				<g>
					<rect x="237.5" y="219.4" class="st7" width="2.6" height="2.6"/>
				</g>
				<g>
					<g>
						<ellipse class="st6" cx="253.7" cy="220.7" rx="10.9" ry="0.3"/>
					</g>
				</g>
				<g>
					<g>
						<ellipse class="st6" cx="314.8" cy="220.9" rx="2.2" ry="0.3"/>
					</g>
				</g>
				<g>
					<g>
						<ellipse class="st6" cx="314.8" cy="229.4" rx="2.2" ry="0.3"/>
					</g>
				</g>
				<g>
					<rect x="237.5" y="228.1" class="st7" width="2.6" height="2.6"/>
				</g>
				<g>
					<g>
						<ellipse class="st6" cx="269.1" cy="229.4" rx="26.4" ry="0.3"/>
					</g>
				</g>
				<g>
					<circle class="st6" cx="208.5" cy="201.4" r="0.8"/>
				</g>
				<g>
					<circle class="st6" cx="211.6" cy="201.4" r="0.8"/>
				</g>
				<g>
					<circle class="st6" cx="214.7" cy="201.4" r="0.8"/>
				</g>
				<g>
					<g>
						<path class="st6" d="M328.2,268.4c0-1.6,0-26.8-0.1-69.3l0.1,0.1c-32.9,0-76,0-123,0h0l0.2-0.2c0,24.5,0,47.9,0,69.3l-0.1-0.1
							C277.1,268.3,326,268.4,328.2,268.4c-2.2,0-51.1,0.1-123,0.1l-0.1,0l0-0.1c0-21.3,0-44.8,0-69.3V199h0.2h0
							c47.1,0,90.2,0,123,0h0.1l0,0.1C328.2,241.6,328.2,266.8,328.2,268.4z"/>
					</g>
				</g>
			</g>
		</g>
	</g>
	<g>
		<g>
			<polygon class="st15" points="388.3,466.9 380.8,466.9 364,316.2 373.9,316.2 			"/>
		</g>
		<g>
			<polygon class="st15" points="340.8,466.9 333.3,466.9 316.4,316.2 326.2,316.2 			"/>
		</g>
		<g>
			<polygon class="st15" points="390.6,316.2 186.5,316.2 125.6,316.2 125.6,307.5 390.6,307.5 			"/>
		</g>
		<g>
			<polygon class="st6" points="180.6,466.9 188.1,466.9 204.2,316.2 194.4,316.2 			"/>
		</g>
		<g>
			<polygon class="st6" points="116.1,466.9 123.6,466.9 140.5,316.2 130.6,316.2 			"/>
		</g>
		<g>
			<rect x="125.6" y="307.5" class="st6" width="81.7" height="8.7"/>
		</g>
		<g>
			<rect x="244.6" y="304.9" class="st6" width="56.4" height="2.6"/>
		</g>
	</g>
</g>
<g id="Character">
	<g>
		<g>
			<g>
				<g>
					<g>
						<path class="st7" d="M365.1,432.6l5.3,29.3l-36.4,6.8c-0.4-3.5,17.1-14,17.1-14l-4.2-18.6L365.1,432.6z"/>
					</g>
				</g>
				<g class="st16">
					<g>
						<g>
							<path class="st11" d="M362,451c0.7,0.1,1.4,0.8,1.3,1.5c0,0.7-0.7,1.4-1.5,1.3c-0.7,0-1.5-0.9-1.4-1.6c0.1-0.7,1-1.5,1.7-1.2
								"/>
						</g>
					</g>
				</g>
				<g class="st16">
					<g>
						<path class="st11" d="M370.4,461.9l-0.7-2.9l-34.7,7.6c0,0-1.5,1-1.1,2.1L370.4,461.9z"/>
					</g>
				</g>
				<g>
					<g>
						<g>
							<path class="st6" d="M350.4,454.6c0,0.2,0.9,0.1,1.9,0.5c1,0.4,1.6,1.1,1.7,1c0.2-0.1-0.3-1.1-1.5-1.6
								C351.4,454,350.4,454.5,350.4,454.6z"/>
						</g>
					</g>
				</g>
				<g>
					<g>
						<g>
							<path class="st6" d="M346.9,456.9c0,0.2,0.8,0.3,1.6,1c0.8,0.6,1.1,1.4,1.2,1.4c0.2,0,0.1-1.1-0.8-1.8
								C348,456.6,346.9,456.7,346.9,456.9z"/>
						</g>
					</g>
				</g>
				<g>
					<g>
						<g>
							<path class="st6" d="M345.6,461.9c0.2,0,0.2-0.9-0.4-1.8c-0.6-0.9-1.5-1.1-1.6-1c-0.1,0.2,0.6,0.6,1.1,1.3
								C345.2,461.2,345.4,461.9,345.6,461.9z"/>
						</g>
					</g>
				</g>
				<g>
					<g>
						<g>
							<path class="st6" d="M350,450.3c0.1,0.1,0.9-0.3,1.9-0.4c1-0.1,1.9,0.1,1.9-0.1c0.1-0.1-0.8-0.7-2-0.5
								C350.6,449.4,349.9,450.1,350,450.3z"/>
						</g>
					</g>
				</g>
				<g>
					<g>
						<g>
							<path class="st6" d="M350,445.8c0,0.1,0.7,0.1,1.8-0.4c0.5-0.2,1.2-0.5,1.8-0.9c0.3-0.2,0.6-0.5,0.9-0.8
								c0.1-0.1,0.3-0.3,0.5-0.5c0.2-0.2,0.2-0.7-0.1-1c-0.2-0.2-0.6-0.3-0.9-0.3c-0.3,0-0.5,0.1-0.7,0.2c-0.4,0.2-0.7,0.4-1.1,0.6
								c-0.6,0.4-1.1,1-1.5,1.4c-0.7,0.9-0.9,1.7-0.8,1.7c0.1,0,0.4-0.6,1.1-1.4c0.4-0.4,0.9-0.8,1.5-1.2c0.3-0.2,0.6-0.4,1-0.5
								c0.4-0.2,0.7-0.2,0.8-0.1c0,0.1,0.1,0.1,0,0.2c-0.1,0.1-0.2,0.3-0.3,0.4c-0.3,0.3-0.6,0.5-0.9,0.7c-0.6,0.4-1.1,0.8-1.6,1
								C350.7,445.5,350,445.7,350,445.8z"/>
						</g>
					</g>
				</g>
				<g>
					<g>
						<g>
							<path class="st6" d="M350.3,446c0.1,0,0.3-0.7,0.2-1.9c-0.1-0.6-0.3-1.3-0.6-2c-0.2-0.3-0.4-0.7-0.7-1
								c-0.3-0.3-0.6-0.8-1.3-0.7c-0.4,0.1-0.6,0.4-0.7,0.7c-0.1,0.3-0.1,0.5-0.1,0.7c0,0.4,0.1,0.9,0.2,1.2
								c0.3,0.8,0.7,1.3,1.1,1.7c0.9,0.8,1.7,0.9,1.7,0.8c0-0.1-0.6-0.3-1.4-1.1c-0.4-0.4-0.7-0.9-0.9-1.6c-0.1-0.3-0.2-0.7-0.2-1.1
								c0-0.4,0.1-0.7,0.2-0.7c0.2,0,0.5,0.2,0.8,0.5c0.2,0.3,0.5,0.6,0.6,0.9c0.4,0.6,0.6,1.2,0.7,1.8
								C350.3,445.3,350.2,446,350.3,446z"/>
						</g>
					</g>
				</g>
			</g>
		</g>
		<g>
			<g>
				<g>
					<g>
						<path class="st7" d="M322.6,437.3l5.7,29.2l-36.3,7.3c-0.5-3.5,16.9-14.3,16.9-14.3l-4.4-18.6L322.6,437.3z"/>
					</g>
				</g>
				<g class="st16">
					<g>
						<g>
							<path class="st11" d="M319.8,455.8c0.7,0.1,1.4,0.7,1.4,1.5c0,0.7-0.7,1.4-1.5,1.4c-0.7,0-1.5-0.8-1.4-1.6
								c0.1-0.7,1-1.5,1.7-1.3"/>
						</g>
					</g>
				</g>
				<g class="st16">
					<g>
						<path class="st11" d="M328.3,466.5l-0.7-2.9l-34.6,8.1c0,0-1.5,1-1.1,2.1L328.3,466.5z"/>
					</g>
				</g>
				<g>
					<g>
						<g>
							<path class="st6" d="M308.3,459.5c0,0.2,0.9,0.1,1.9,0.5c1,0.4,1.6,1,1.8,0.9c0.2-0.1-0.3-1.1-1.5-1.5
								C309.2,458.9,308.2,459.4,308.3,459.5z"/>
						</g>
					</g>
				</g>
				<g>
					<g>
						<g>
							<path class="st6" d="M304.8,461.9c0,0.2,0.8,0.3,1.6,1c0.8,0.6,1.1,1.4,1.3,1.3c0.2,0,0.1-1.1-0.9-1.8
								C305.8,461.6,304.8,461.7,304.8,461.9z"/>
						</g>
					</g>
				</g>
				<g>
					<g>
						<g>
							<path class="st6" d="M303.5,466.9c0.2,0,0.2-0.9-0.4-1.8c-0.6-0.9-1.6-1.1-1.6-0.9c-0.1,0.2,0.6,0.6,1.1,1.3
								C303.2,466.1,303.4,466.9,303.5,466.9z"/>
						</g>
					</g>
				</g>
				<g>
					<g>
						<g>
							<path class="st6" d="M307.7,455.2c0.1,0.1,0.9-0.3,1.9-0.4c1-0.2,1.9,0,1.9-0.1c0.1-0.1-0.8-0.7-2-0.5
								C308.3,454.3,307.6,455.1,307.7,455.2z"/>
						</g>
					</g>
				</g>
				<g>
					<g>
						<g>
							<path class="st6" d="M307.7,450.7c0,0.1,0.7,0,1.8-0.4c0.5-0.2,1.2-0.5,1.8-1c0.3-0.2,0.6-0.5,0.9-0.8
								c0.1-0.1,0.3-0.3,0.5-0.5c0.2-0.2,0.2-0.7-0.1-1c-0.2-0.2-0.6-0.3-0.9-0.2c-0.3,0-0.5,0.1-0.7,0.2c-0.4,0.2-0.7,0.4-1.1,0.6
								c-0.6,0.5-1.1,1-1.5,1.4c-0.7,1-0.8,1.7-0.8,1.7c0.1,0,0.4-0.6,1.1-1.4c0.4-0.4,0.8-0.8,1.4-1.2c0.3-0.2,0.6-0.4,1-0.5
								c0.4-0.2,0.7-0.2,0.8-0.1c0,0.1,0.1,0.1,0,0.2c-0.1,0.1-0.2,0.3-0.3,0.4c-0.3,0.3-0.6,0.5-0.9,0.7c-0.6,0.4-1.1,0.8-1.6,1
								C308.4,450.4,307.7,450.6,307.7,450.7z"/>
						</g>
					</g>
				</g>
				<g>
					<g>
						<g>
							<path class="st6" d="M308,450.9c0.1,0,0.3-0.7,0.1-1.9c-0.1-0.6-0.3-1.3-0.6-1.9c-0.2-0.3-0.4-0.7-0.7-1
								c-0.3-0.3-0.6-0.7-1.3-0.7c-0.4,0.1-0.6,0.4-0.7,0.7c-0.1,0.3-0.1,0.5-0.1,0.7c0,0.4,0.1,0.9,0.2,1.2
								c0.3,0.8,0.7,1.3,1.2,1.7c0.9,0.8,1.7,0.9,1.7,0.8c0-0.1-0.6-0.3-1.4-1.1c-0.4-0.4-0.7-0.9-0.9-1.6c-0.1-0.3-0.2-0.7-0.2-1.1
								c0-0.4,0.1-0.7,0.2-0.7c0.2,0,0.5,0.2,0.8,0.5c0.3,0.3,0.5,0.6,0.6,0.9c0.4,0.6,0.6,1.2,0.7,1.7
								C308,450.2,307.9,450.9,308,450.9z"/>
						</g>
					</g>
				</g>
			</g>
		</g>
		<g>
			<g>
				<path class="st6" d="M343.8,443.2l-14.1-78.7c-0.7-3.9-0.4-7.9,1-11.6l0,0c3.2-8.9,11.7-14.9,21.2-14.9h49.8l32.6,14.4l0,0
					c0,11.8-10,21-21.8,20.1l-53.2-4.2l7.7,71.2L343.8,443.2z"/>
			</g>
			<g>
				<path class="st6" d="M302.6,447.3l-16.1-82.8c-0.7-3.9-0.4-7.9,1-11.6l0,0c3.2-8.9,11.7-14.9,21.2-14.9h49.8l32.6,14.4v21.8
					l-74.9-5.9l9.8,73.6L302.6,447.3z"/>
			</g>
			<g>
				<g>
					<path class="st15" d="M325.9,442c0,0-0.1-0.3-0.2-0.9c-0.1-0.6-0.2-1.5-0.4-2.5c-0.3-2.3-0.8-5.4-1.3-9.4
						c-1.1-8-2.6-18.9-4.2-30.9c-1.5-11.6-2.9-22.1-3.9-29.9l0.1,0.1c-3.6-2.5-6.3-4.7-8.2-6.1c-0.9-0.7-1.7-1.2-2.2-1.7
						c-0.5-0.4-0.8-0.6-0.8-0.6c0,0,0.1,0,0.2,0.1c0.2,0.1,0.4,0.2,0.6,0.4c0.5,0.3,1.3,0.9,2.3,1.6c2,1.4,4.7,3.5,8.3,5.9l0.1,0
						l0,0.1c1.1,7.8,2.5,18.3,4.1,29.9c1.6,12.1,3,23,4,30.9c0.5,3.9,0.9,7.1,1.2,9.4c0.1,1.1,0.2,1.9,0.3,2.6
						C325.9,441.7,325.9,442,325.9,442z"/>
				</g>
			</g>
		</g>
		<g>
			<path class="st17" d="M278.7,305.1l3.5-6.6c0.4-0.6,1.1-1,1.9-0.9l1.6,0.1l2.7-2.5h3.1l2.4-1.6l9.3,1.8l7.7,2.1l-4.4,8.7
				l-4.4-0.9l-7.4-0.1c-2.1,0-4.2-0.9-5.7-2.4l0,0c-1.3-1.3-3.1-2-4.9-2l0,0C284.2,300.6,281.9,305.7,278.7,305.1z"/>
		</g>
		<g>
			<g>
				<g>
					<path class="st17" d="M384.9,205.4l0.1,47.9l-20.5,1l-0.6-11.6c0,0-7.3,1.4-9.2-5.3c-1.2-4.3-0.9-37.8-0.9-37.8L384.9,205.4z"
						/>
				</g>
				<g>
					<path class="st6" d="M385.3,242.9c2.2-2.3,3.2-5.4,3.7-8.5c0.5-3.1,0.6-6.3,1.3-9.4c0.7-3.2,2.1-6.3,2.8-9.5
						c0.7-3.2,0.6-6.9-1.3-9.6c0,0-1.3-3.7-6.7-4c0,0-4.6-7.5-11.4-6.8c-9.3,0.9-9.5-1.8-15.9-2.8c-6-0.9-7.1,4.4-7.1,4.4
						s-3.3,2.4-3.4,5.9c0,0,0,0.1,0,0.1c-0.1,3.6,2.2,6.8,5.5,7.9c0.4,0.1,0.8,0.3,1.2,0.4c1.2,0.4,2.4,0.8,3.2,1.6
						c1.3,1.3,1.5,3.3,1.4,5.1c-0.1,1.8-0.3,3.7,0.3,5.4c0.2,0.6,0.7,1.2,1.3,1.1c0.7-0.2,0.7-1.2,0.8-1.9c0.2-2.1,3-3.8,4.9-2.2
						c1.2,1,1.7,2.6,1,4c-0.7,1.5-2.3,2.7-2.6,4.4c-0.5,2.8,2.8,5.3,4,6.8c0.4,0.5,0.9,1.1,1.4,1.5c2.7,2.3,5.4,5.5,9,6.7
						c2.4,0.8,5.3,0.6,7.2-1.1"/>
				</g>
			</g>
		</g>
		<g>
			<g>
				<path class="st7" d="M361,251.9c-4.5,3.2-2.7,11.9-2.7,16.5c-0.1,10.2,0.8,19.7,1.4,21.3c0.8,2.3,3.6,22.2,3.6,22.2l-4.7,26.1
					c0,0,6.1,15.6,32.6,15.5l13.2-3.1c6.6-1.6,11-7.7,10.5-14.5l-3-35.1l-4-28.5c-1-15-10.4-22.9-22.4-22.1L361,251.9z"/>
			</g>
			<g class="st18">
				<g>
					<path d="M371.8,350.1c-2.9-1.5,1-30.7,4.4-45.7c1.3-5.8,3.1-11.9,7.2-16.2c3.3-3.4,7.8-5.4,12.4-6.4c4.6-1,8.3-1.2,13-1.3
						l4.1,66.5C412.9,347,384.3,356.5,371.8,350.1z"/>
				</g>
			</g>
			<g>
				<path class="st7" d="M361,251.9c0,0-8.6,1.1-12.9,9.9c-3.3,6.9-17.9,35.7-17.9,35.7l-22.3-1.5l-4.5,10.2l30.6,8.2l0,0
					c6.3,1.2,11.8-2.6,14.9-8.3l12.8-23.4L361,251.9z"/>
			</g>
			<g>
				<path class="st7" d="M363.2,251.9c0,0-0.6-5.1,0.2-6c0.7-0.9,22.8-0.7,22.8-0.7l1.2,5.8l-2.5,4.4l-21,1.8L363.2,251.9z"/>
			</g>
			<g>
				<g>
					<path class="st6" d="M332.8,302.6c-0.1,0.1-1-0.8-1.6-2.1c-0.7-1.3-0.8-2.5-0.7-2.6c0.1,0,0.5,1.1,1.2,2.3
						C332.3,301.5,333,302.5,332.8,302.6z"/>
				</g>
			</g>
			<g>
				<g>
					
						<ellipse transform="matrix(0.413 -0.9107 0.9107 0.413 -45.2829 494.8112)" class="st6" cx="361.2" cy="282.5" rx="8.5" ry="0.3"/>
				</g>
			</g>
			<g>
				<g>
					<path class="st6" d="M387.2,250.1c0,0,0.1,0.2,0.1,0.7c0,0.4-0.3,1.3-1.2,1.6l0,0l0,0c-2.3,0.1-6,0.3-10.2,0.5
						c-3.6,0.1-6.8,0.2-9.1,0.2c-1.2,0-2.1-0.3-2.7-0.6c-0.6-0.3-0.8-0.6-0.8-0.6c0,0,0.3,0.2,0.9,0.5c0.6,0.2,1.5,0.4,2.7,0.4
						c2.3-0.1,5.5-0.3,9.1-0.4c4.2-0.1,7.9-0.2,10.2-0.3l0,0c0.7-0.2,1.1-0.9,1.1-1.3C387.2,250.4,387.1,250.2,387.2,250.1z"/>
				</g>
			</g>
			<g>
				<g>
					
						<ellipse transform="matrix(0.4597 -0.8881 0.8881 0.4597 -62.6929 452.2975)" class="st6" cx="340.4" cy="277.7" rx="21.8" ry="0.3"/>
				</g>
			</g>
			<g>
				<g>
					<path class="st3" d="M358.8,264.7c0,0,0.2-0.1,0.5,0.1c0.3,0.1,0.8,0.5,1,1.1c0.2,0.6,0,1.5-0.7,2c-0.4,0.3-0.8,0.4-1.3,0.4
						c-0.4,0-0.9-0.1-1.3-0.1c-0.8-0.1-1.6,0.2-2,0.7c-0.5,0.5-0.7,1.1-0.7,1.7c0,1.1,0.6,1.6,0.5,1.7c0,0.1-0.7-0.4-0.9-1.7
						c-0.1-0.6,0.1-1.4,0.7-2c0.5-0.6,1.5-1,2.4-0.9c0.9,0.1,1.7,0.3,2.2-0.1c0.5-0.4,0.8-1,0.6-1.5c-0.1-0.5-0.5-0.8-0.7-1
						C358.9,264.8,358.7,264.8,358.8,264.7z"/>
				</g>
			</g>
			<g>
				<g>
					<path class="st3" d="M388.3,265.1c0,0,0.2-0.1,0.5,0.1c0.3,0.1,0.8,0.5,1,1.1c0.2,0.6,0,1.5-0.7,2c-0.4,0.3-0.8,0.4-1.3,0.4
						c-0.4,0-0.9-0.1-1.3-0.1c-0.8-0.1-1.6,0.2-2,0.7c-0.5,0.5-0.7,1.1-0.7,1.7c0,1.1,0.6,1.6,0.5,1.7c0,0.1-0.7-0.4-0.9-1.7
						c-0.1-0.6,0.1-1.4,0.7-2c0.5-0.6,1.5-1,2.4-0.9c0.9,0.1,1.7,0.3,2.2-0.1c0.5-0.4,0.8-1,0.6-1.5c-0.1-0.5-0.5-0.8-0.7-1
						C388.4,265.1,388.3,265.1,388.3,265.1z"/>
				</g>
			</g>
			<g>
				<g>
					<path class="st3" d="M387.9,286.4c0,0,0,0.2-0.2,0.5c-0.2,0.3-0.6,0.6-1.3,0.7c-0.6,0.1-1.5-0.4-1.8-1.2
						c-0.2-0.4-0.2-0.9,0-1.3c0.1-0.4,0.3-0.8,0.4-1.2c0.3-0.8,0.1-1.6-0.2-2.2c-0.4-0.6-0.9-0.9-1.5-1c-1.1-0.2-1.7,0.2-1.8,0.1
						c-0.1,0,0.6-0.6,1.8-0.5c0.6,0.1,1.3,0.4,1.8,1.1c0.5,0.7,0.7,1.7,0.3,2.6c-0.3,0.9-0.7,1.6-0.4,2.2c0.2,0.6,0.8,1,1.3,1
						c0.5,0,0.9-0.2,1.1-0.4C387.8,286.6,387.9,286.4,387.9,286.4z"/>
				</g>
			</g>
			<g>
				<g>
					<path class="st3" d="M375,316.7c0,0,0,0.2-0.2,0.5c-0.2,0.3-0.6,0.6-1.3,0.7c-0.6,0.1-1.5-0.4-1.8-1.2c-0.2-0.4-0.2-0.9,0-1.3
						c0.1-0.4,0.3-0.8,0.4-1.2c0.3-0.8,0.1-1.6-0.2-2.2c-0.4-0.6-0.9-0.9-1.5-1c-1.1-0.2-1.7,0.2-1.8,0.1c-0.1,0,0.6-0.6,1.8-0.5
						c0.6,0.1,1.3,0.4,1.8,1.1c0.5,0.7,0.7,1.7,0.3,2.6c-0.3,0.9-0.7,1.6-0.4,2.2c0.2,0.6,0.8,1,1.3,1c0.5,0,0.9-0.2,1.1-0.4
						C374.9,316.8,374.9,316.7,375,316.7z"/>
				</g>
			</g>
			<g>
				<g>
					<path class="st3" d="M401.5,272.4c0,0,0.2-0.1,0.5,0.1c0.3,0.1,0.8,0.5,1,1.1c0.2,0.6,0,1.5-0.7,2c-0.4,0.3-0.8,0.4-1.3,0.4
						c-0.4,0-0.9-0.1-1.3-0.1c-0.8-0.1-1.6,0.2-2,0.7c-0.5,0.5-0.7,1.1-0.7,1.7c0,1.1,0.6,1.6,0.5,1.7c0,0.1-0.7-0.4-0.9-1.7
						c-0.1-0.6,0.1-1.4,0.7-2c0.5-0.6,1.5-1,2.4-0.9c0.9,0.1,1.7,0.3,2.2-0.1c0.5-0.4,0.8-1,0.6-1.5c-0.1-0.5-0.5-0.8-0.7-1
						C401.7,272.5,401.5,272.4,401.5,272.4z"/>
				</g>
			</g>
			<g>
				<g>
					<path class="st3" d="M370.7,299.2c0,0-0.2-0.1-0.2-0.5c0-0.3,0-0.9,0.4-1.4c0.4-0.5,1.3-0.8,2.1-0.4c0.4,0.2,0.7,0.5,1,0.9
						c0.2,0.4,0.4,0.8,0.6,1.2c0.3,0.7,1,1.2,1.7,1.4c0.7,0.2,1.3,0,1.8-0.3c0.9-0.6,1.1-1.4,1.2-1.3c0.1,0,0,0.9-1,1.6
						c-0.5,0.4-1.3,0.6-2.1,0.5c-0.8-0.1-1.7-0.7-2.1-1.6c-0.4-0.8-0.7-1.6-1.3-1.9c-0.6-0.3-1.3-0.1-1.6,0.3
						c-0.4,0.4-0.5,0.8-0.5,1.1C370.7,299,370.7,299.2,370.7,299.2z"/>
				</g>
			</g>
			<g>
				<g>
					<path class="st3" d="M372.1,279.2c0,0,0.2-0.1,0.5,0.1c0.3,0.1,0.8,0.5,1,1.1c0.2,0.6,0,1.5-0.7,2c-0.4,0.3-0.8,0.4-1.3,0.4
						c-0.4,0-0.9-0.1-1.3-0.1c-0.8-0.1-1.6,0.2-2,0.7c-0.5,0.5-0.7,1.1-0.7,1.7c0,1.1,0.6,1.6,0.5,1.7c0,0.1-0.7-0.4-0.9-1.7
						c-0.1-0.6,0.1-1.4,0.7-2c0.5-0.6,1.5-1,2.4-0.9c0.9,0.1,1.7,0.3,2.2-0.1c0.5-0.4,0.8-1,0.6-1.5c-0.1-0.5-0.5-0.8-0.7-1
						C372.3,279.2,372.1,279.2,372.1,279.2z"/>
				</g>
			</g>
			<g>
				<g>
					<path class="st3" d="M371.5,326.7c0,0,0.2-0.1,0.5,0.1c0.3,0.1,0.8,0.5,1,1.1c0.2,0.6,0,1.5-0.7,2c-0.4,0.3-0.8,0.4-1.3,0.4
						c-0.4,0-0.9-0.1-1.3-0.1c-0.8-0.1-1.6,0.2-2,0.7c-0.5,0.5-0.7,1.1-0.7,1.7c0,1.1,0.6,1.6,0.5,1.7c0,0.1-0.7-0.4-0.9-1.7
						c-0.1-0.6,0.1-1.4,0.7-2c0.5-0.6,1.5-1,2.4-0.9c0.9,0.1,1.7,0.3,2.2-0.1c0.5-0.4,0.8-1,0.6-1.5c-0.1-0.5-0.5-0.8-0.7-1
						C371.7,326.7,371.5,326.7,371.5,326.7z"/>
				</g>
			</g>
			<g>
				<g>
					<path class="st3" d="M343.2,301.3c0,0,0.2-0.1,0.5,0.1c0.3,0.1,0.8,0.5,1,1.1c0.2,0.6,0,1.5-0.7,2c-0.4,0.3-0.8,0.4-1.3,0.4
						c-0.4,0-0.9-0.1-1.3-0.1c-0.8-0.1-1.6,0.2-2,0.7c-0.5,0.5-0.7,1.1-0.7,1.7c0,1.1,0.6,1.6,0.5,1.7c0,0.1-0.7-0.4-0.9-1.7
						c-0.1-0.6,0.1-1.4,0.7-2c0.5-0.6,1.5-1,2.4-0.9c0.9,0.1,1.7,0.3,2.2-0.1c0.5-0.4,0.8-1,0.6-1.5c-0.1-0.5-0.5-0.8-0.7-1
						C343.4,301.4,343.2,301.4,343.2,301.3z"/>
				</g>
			</g>
			<g>
				<g>
					<path class="st3" d="M350.8,287.5c0,0,0,0.2-0.1,0.5c-0.2,0.3-0.5,0.7-1.2,0.9c-0.6,0.2-1.5-0.1-1.9-0.9
						c-0.2-0.4-0.3-0.9-0.2-1.3c0-0.4,0.2-0.9,0.2-1.3c0.2-0.8-0.1-1.6-0.6-2.1c-0.5-0.5-1.1-0.8-1.6-0.8c-1.1-0.1-1.7,0.5-1.7,0.4
						c-0.1,0,0.5-0.7,1.7-0.7c0.6,0,1.4,0.2,1.9,0.9c0.6,0.6,0.9,1.6,0.7,2.5c-0.2,0.9-0.4,1.7-0.1,2.2c0.3,0.6,1,0.8,1.5,0.8
						c0.5-0.1,0.9-0.4,1.1-0.6C350.7,287.7,350.7,287.5,350.8,287.5z"/>
				</g>
			</g>
			<g>
				<g>
					<path class="st3" d="M372.4,262.2c0,0,0,0.2-0.1,0.5c-0.2,0.3-0.5,0.7-1.2,0.9c-0.6,0.2-1.5-0.1-1.9-0.9
						c-0.2-0.4-0.3-0.9-0.2-1.3c0-0.4,0.2-0.9,0.2-1.3c0.2-0.8-0.1-1.6-0.6-2.1c-0.5-0.5-1.1-0.8-1.6-0.8c-1.1-0.1-1.7,0.5-1.7,0.4
						c-0.1,0,0.5-0.7,1.7-0.7c0.6,0,1.4,0.2,1.9,0.9c0.6,0.6,0.9,1.6,0.7,2.5c-0.2,0.9-0.4,1.7-0.1,2.2c0.3,0.6,1,0.8,1.5,0.8
						c0.5-0.1,0.9-0.4,1.1-0.6C372.3,262.4,372.4,262.2,372.4,262.2z"/>
				</g>
			</g>
			<g>
				<g>
					<path class="st3" d="M401.4,260.5c0,0,0,0.2-0.1,0.5c-0.2,0.3-0.5,0.7-1.2,0.9c-0.6,0.2-1.5-0.1-1.9-0.9
						c-0.2-0.4-0.3-0.9-0.2-1.3c0-0.4,0.2-0.9,0.2-1.3c0.2-0.8-0.1-1.6-0.6-2.1c-0.5-0.5-1.1-0.8-1.6-0.8c-1.1-0.1-1.7,0.5-1.7,0.4
						c-0.1,0,0.5-0.7,1.7-0.7c0.6,0,1.4,0.2,1.9,0.9c0.6,0.6,0.9,1.6,0.7,2.5c-0.2,0.9-0.4,1.7-0.1,2.2c0.3,0.6,1,0.8,1.5,0.8
						c0.5-0.1,0.9-0.4,1.1-0.6C401.3,260.7,401.3,260.5,401.4,260.5z"/>
				</g>
			</g>
			<g>
				<g>
					<path class="st3" d="M325.1,305c0,0,0,0.2-0.1,0.5c-0.2,0.3-0.5,0.7-1.2,0.9c-0.6,0.2-1.5-0.1-1.9-0.9
						c-0.2-0.4-0.3-0.9-0.2-1.3c0-0.4,0.2-0.9,0.2-1.3c0.2-0.8-0.1-1.6-0.6-2.1c-0.5-0.5-1.1-0.8-1.6-0.8c-1.1-0.1-1.7,0.5-1.7,0.4
						c-0.1,0,0.5-0.7,1.7-0.7c0.6,0,1.4,0.2,1.9,0.9c0.6,0.6,0.9,1.6,0.7,2.5c-0.2,0.9-0.4,1.7-0.1,2.2c0.3,0.6,1,0.8,1.5,0.8
						c0.5-0.1,0.9-0.4,1.1-0.6C325,305.1,325.1,304.9,325.1,305z"/>
				</g>
			</g>
		</g>
		<g>
			<g>
				<path class="st1" d="M371.6,378.9l-0.8,87.9h5l0.4-86.2c0,0,0.3-3.9,3.3-4.2s48,2,48,2l13.3,88.4h5.8l-13-88.4
					c0,0-37.8-12.8-56.6-8.8c0,0-4.5-0.8-4.8,2.6C371.9,375.7,371.6,378.9,371.6,378.9z"/>
			</g>
			<g>
				<path class="st15" d="M372.5,368.8c0,0,7.8-61,10.6-71.3c1.5-5.7,5.5-9.1,8.7-11.1c2.4-1.4,5.1-2.2,7.9-2.1l41.5,0.9
					c3.8,0.1,6.7,3.5,6.1,7.3l-13.8,86.1c-15.3,0-51,0-51,0s-48.9-5.3-56.4-5.7c-4.7-0.2-5,1.6-5.4,3.6c0,0,0.2,0.1,0,0
					c-4.4-3.6-1.8-10.9,3.9-10.5L372.5,368.8z"/>
			</g>
			<g>
				<g>
					<path class="st6" d="M447,289.3c0,0-0.1,0-0.4,0c-0.3,0-0.6,0-1,0c-1,0-2.3,0-4,0c-3.5,0-8.6,0-14.8,0.1c-3.1,0-6.5,0-10.2,0
						c-1.8,0-3.7,0-5.7,0c-1,0-2,0-3,0c-1,0-2,0-3,0.1c-2,0.2-4,1-5.7,2.3c-1.7,1.3-3,3.1-3.7,5.2c-0.4,1-0.5,2.1-0.7,3.3
						c-0.2,1.1-0.4,2.3-0.6,3.4c-0.4,2.3-0.8,4.6-1.1,7c-3.1,18.8-5.9,35.8-8,48.2c-1,6.1-1.9,11.1-2.5,14.6c-0.3,1.7-0.5,3-0.7,4
						c-0.1,0.4-0.1,0.8-0.2,1c0,0.2-0.1,0.3-0.1,0.3c0,0,0-0.1,0-0.4c0-0.3,0.1-0.6,0.1-1c0.1-0.9,0.3-2.3,0.6-4
						c0.6-3.5,1.3-8.5,2.3-14.6c2-12.4,4.8-29.4,7.8-48.2c0.4-2.4,0.8-4.7,1.1-7c0.2-1.1,0.4-2.3,0.6-3.4c0.2-1.1,0.3-2.3,0.7-3.4
						c0.8-2.2,2.1-4.1,3.9-5.4c1.7-1.4,3.8-2.1,5.9-2.4c1.1-0.1,2.1-0.1,3.1-0.1c1,0,2,0,3,0c2,0,3.9,0,5.7,0c3.7,0,7.1,0,10.2,0
						c6.2,0,11.3,0.1,14.8,0.1c1.7,0,3.1,0,4,0c0.4,0,0.8,0,1,0C446.9,289.3,447,289.3,447,289.3z"/>
				</g>
			</g>
			<g>
				<path class="st2" d="M320.6,378.9l-2.3,87.9h5l1.3-86.1c0,0,0.1-5.1,4-4.7c3,0.3,48.4,5.6,48.4,5.6l15.3,85.1h5.8l-15.6-88.4
					l-55.7-7c-1.2-0.1-2.4,0-3.4,0.5c-1.3,0.6-2.6,1.9-2.7,4.4C320.4,379.8,320.6,378.9,320.6,378.9z"/>
			</g>
		</g>
		<g>
			<g>
				<path class="st7" d="M434.2,285c0,0-28,91.2-61.8,83.8l0.6-4.3c0,0,26.1,4.3,56.7-79.6L434.2,285z"/>
			</g>
			<g>
				<path class="st7" d="M374.9,367.7c0.1,9.5,2,18.9,5.5,27.7c1,2.6,2.3,5.3,4.8,6.5c2.5,1.2,5.4,0.6,8-0.2
					c6.5-1.8,12.9-4.2,19.1-7c2.3-1.1,4.6-2.3,5.8-4.5c1.4-2.6,0.7-5.8-0.1-8.7c-2.5-9.2-5.4-18.3-8.5-27.3
					c-0.7-1.9-3.7-9.1-3.7-9.1"/>
			</g>
			<g>
				<g>
					<path class="st6" d="M409.1,355.9c0,0,0,0.2,0,0.5c0,0.3,0,0.8-0.1,1.4c-0.1,1.2-0.4,3-1,5c-0.6,2.1-1.5,4.5-3.1,7
						c-1.5,2.4-3.8,4.8-6.6,6.6c-2.8,1.8-5.9,2.9-8.8,3.1c-2.9,0.2-5.5-0.3-7.5-1.1c-2-0.8-3.5-1.8-4.4-2.7c-0.5-0.4-0.8-0.7-1-1
						c-0.2-0.2-0.3-0.4-0.3-0.4c0,0,0.5,0.5,1.4,1.2c0.9,0.7,2.4,1.7,4.4,2.5c2,0.7,4.6,1.2,7.4,1c2.8-0.2,5.8-1.3,8.6-3
						c2.7-1.8,4.9-4.1,6.4-6.5c1.6-2.4,2.5-4.8,3.2-6.8c0.6-2.1,0.9-3.8,1.1-5C409,356.6,409,355.9,409.1,355.9z"/>
				</g>
			</g>
			<g>
				<g>
					
						<ellipse transform="matrix(6.748195e-02 -0.9977 0.9977 6.748195e-02 -6.7184 746.7213)" class="st6" cx="396.1" cy="377" rx="4.4" ry="0.3"/>
				</g>
			</g>
		</g>
	</g>
</g>
<g id="Plant">
	<g>
		<g>
			<g>
				<g>
					<g>
						<path class="st19" d="M93,401c7.3,2.5,16.8,0.3,23-4.3c6.2-4.5,10.7-11.1,14.7-17.7c1.7-2.8,3.4-5.8,3.9-9s-0.3-6.9-2.8-9
							c-3.9-3.3-9.9-1.6-14.4,0.9C103.6,369.8,94.1,385,93,401"/>
					</g>
				</g>
			</g>
			<g>
				<g>
					<g>
						<path class="st19" d="M100.9,418.4c4.4,5.8,11.9,8.3,19.1,8.7c7.2,0.3,14.4-1.7,21.1-4.3c2.5-0.9,5.1-2.2,6-4.7
							c0.6-1.9,0-4-1.3-5.6c-1.3-1.5-3.1-2.5-4.9-3.3c-6.7-2.8-14.3-3-21.3-1.2C112.7,409.9,106.5,414,100.9,418.4"/>
					</g>
				</g>
			</g>
			<g>
				<g>
					<g>
						<path class="st19" d="M92.9,369.8c6,0.1,10.6-5.2,13.3-10.5c3.8-7.4,5.1-16.1,3.6-24.4c-0.6-3.1-1.7-6.4-4.5-7.9
							c-2.8-1.5-6.4-0.5-8.8,1.6c-2.3,2.1-3.6,5.2-4.6,8.2C88.8,347.4,89.5,359.4,92.9,369.8"/>
					</g>
				</g>
			</g>
			<g>
				<g>
					<g>
						<path class="st19" d="M73.1,403.1c10.3-17.5,12-38.9,5.9-58.3c-1-3.1-2.8-6.7-6.1-6.9c-3.6-0.2-5.9,3.8-6.9,7.3
							c-3.5,12.3-2.8,25.4-2,38.1C64.5,391.3,67.2,398,73.1,403.1"/>
					</g>
				</g>
			</g>
			<g>
				<g>
					<g>
						<path class="st19" d="M62.4,410.3c-3.7-12-13.2-22-24.9-26.4c-2.7-1-6.2-1.6-8.2,0.5c-2,2-1.4,5.5-0.1,8
							c2.1,4.1,5.4,7.5,8.8,10.6c3,2.9,6.2,5.8,10.1,7.5C51.9,412.2,58.9,412.6,62.4,410.3"/>
					</g>
				</g>
			</g>
			<g>
				<g>
					<g>
						<g>
							<path class="st6" d="M126.2,365.4c0,0-0.1,0.1-0.2,0.2c-0.1,0.1-0.3,0.3-0.6,0.4c-0.5,0.4-1.2,0.9-2.2,1.6
								c-0.5,0.3-1,0.7-1.6,1.2c-0.6,0.4-1.1,0.9-1.8,1.5c-1.3,1.1-2.8,2.2-4.3,3.6c-0.8,0.7-1.6,1.4-2.4,2.2
								c-0.8,0.8-1.6,1.6-2.5,2.5c-1.8,1.7-3.5,3.7-5.3,5.7c-3.6,4.2-7.2,9.1-10.6,14.4c-3.3,5.4-6,10.9-8.2,15.9
								c-1,2.6-2,5-2.8,7.3c-0.4,1.2-0.8,2.3-1.1,3.4c-0.3,1.1-0.6,2.1-0.9,3.2c-0.6,2-1,3.9-1.3,5.5c-0.2,0.8-0.4,1.6-0.5,2.3
								c-0.1,0.7-0.2,1.3-0.3,1.9c-0.2,1.1-0.4,2-0.5,2.6c-0.1,0.3-0.1,0.5-0.1,0.7c0,0.2-0.1,0.2-0.1,0.2c0,0,0-0.1,0-0.2
								c0-0.2,0.1-0.4,0.1-0.7c0.1-0.6,0.2-1.5,0.4-2.7c0.1-0.6,0.2-1.2,0.3-1.9c0.1-0.7,0.3-1.5,0.5-2.3c0.4-1.6,0.7-3.5,1.3-5.5
								c0.3-1,0.6-2.1,0.9-3.2c0.3-1.1,0.7-2.2,1.1-3.4c0.7-2.4,1.7-4.8,2.7-7.4c2.2-5.1,4.9-10.6,8.2-16
								c3.4-5.4,7.1-10.3,10.7-14.5c1.9-2.1,3.6-4,5.4-5.7c0.9-0.9,1.7-1.7,2.5-2.5c0.9-0.8,1.7-1.5,2.5-2.2
								c1.5-1.4,3.1-2.6,4.3-3.6c0.7-0.5,1.2-1,1.8-1.4c0.6-0.4,1.1-0.8,1.6-1.1c0.9-0.7,1.7-1.2,2.2-1.5c0.2-0.2,0.4-0.3,0.6-0.4
								C126.1,365.4,126.2,365.4,126.2,365.4z"/>
						</g>
					</g>
				</g>
			</g>
			<g>
				<g>
					<g>
						<g>
							<path class="st6" d="M139.8,413.9c0,0-0.2,0-0.7-0.1c-0.5-0.1-1.1-0.3-2-0.4c-1.7-0.3-4.3-0.7-7.4-0.9
								c-6.3-0.4-15.2,0.3-24.2,4.1c-8.9,3.7-15.8,9.5-19.9,14.3c-2.1,2.4-3.6,4.4-4.6,5.9c-0.5,0.7-0.9,1.3-1.1,1.7
								c-0.3,0.4-0.4,0.6-0.4,0.6c0,0,0.1-0.2,0.3-0.6c0.2-0.4,0.6-1,1-1.8c0.9-1.5,2.4-3.6,4.5-6c4.1-4.8,11-10.7,20-14.5
								c9-3.8,18.1-4.5,24.4-4c3.2,0.2,5.7,0.7,7.5,1.1c0.9,0.2,1.5,0.4,2,0.5C139.6,413.8,139.8,413.9,139.8,413.9z"/>
						</g>
					</g>
				</g>
			</g>
			<g>
				<g>
					<g>
						<g>
							<path class="st6" d="M101.8,334c0,0,0,0.1,0,0.3c0,0.2-0.1,0.5-0.2,0.8c-0.2,0.7-0.4,1.7-0.7,3c-0.6,2.6-1.5,6.4-2.6,11
								c-2.3,9.3-5.6,22.1-9,36.3c-1.7,7.1-3.2,13.9-4.6,20.1c-1.3,6.2-2.4,11.8-3.2,16.5c-0.4,2.4-0.8,4.5-1.1,6.4
								c-0.3,1.9-0.6,3.5-0.8,4.8c-0.2,1.3-0.4,2.3-0.5,3c-0.1,0.3-0.1,0.6-0.1,0.8c0,0.2-0.1,0.3-0.1,0.3c0,0,0-0.1,0-0.3
								c0-0.2,0.1-0.5,0.1-0.8c0.1-0.7,0.2-1.8,0.4-3.1c0.2-1.3,0.4-3,0.7-4.8c0.3-1.9,0.6-4,1-6.4c0.8-4.7,1.9-10.3,3.1-16.5
								c1.3-6.2,2.8-13,4.5-20.1c3.4-14.2,6.8-27,9.1-36.3c1.2-4.6,2.1-8.4,2.8-11c0.3-1.3,0.6-2.3,0.8-3c0.1-0.3,0.2-0.6,0.2-0.8
								C101.8,334.1,101.8,334,101.8,334z"/>
						</g>
					</g>
				</g>
			</g>
			<g>
				<g>
					<g>
						<g>
							<path class="st6" d="M78.2,436c0,0,0-0.1-0.1-0.2c0-0.2-0.1-0.4-0.1-0.6c-0.1-0.6-0.3-1.4-0.5-2.4c-0.4-2.1-1-5.2-1.7-9
								c-1.3-7.6-2.9-18.2-3.8-29.9c-0.5-5.9-0.7-11.5-0.8-16.6c-0.1-5.1,0-9.7,0.1-13.6c0-1.9,0.2-3.7,0.3-5.2
								c0.1-1.5,0.2-2.9,0.3-3.9c0.1-1,0.2-1.9,0.2-2.5c0-0.3,0.1-0.5,0.1-0.6c0-0.1,0-0.2,0-0.2c0,0,0,0.1,0,0.2c0,0.2,0,0.4,0,0.6
								c0,0.6-0.1,1.4-0.1,2.5c-0.1,1.1-0.2,2.4-0.2,3.9c-0.1,1.5-0.2,3.3-0.2,5.2c-0.1,3.9-0.1,8.5,0,13.6
								c0.1,5.1,0.4,10.7,0.9,16.6c1,11.7,2.5,22.3,3.7,29.9c0.6,3.8,1.1,6.9,1.5,9c0.2,1,0.3,1.9,0.4,2.5c0,0.3,0.1,0.5,0.1,0.6
								C78.2,435.9,78.2,436,78.2,436z"/>
						</g>
					</g>
				</g>
			</g>
			<g>
				<g>
					<g>
						<g>
							<path class="st6" d="M79,438.2c0,0-0.1-0.2-0.3-0.6c-0.2-0.4-0.4-1-0.7-1.8c-0.1-0.4-0.3-0.8-0.5-1.3c-0.2-0.5-0.4-1-0.7-1.5
								c-0.2-0.5-0.5-1.1-0.8-1.7c-0.3-0.6-0.6-1.2-0.9-1.9c-0.3-0.7-0.7-1.3-1-2c-0.4-0.7-0.8-1.4-1.2-2.1c-0.8-1.5-1.9-3-2.9-4.6
								c-2.2-3.2-4.8-6.5-7.7-9.9c-3-3.3-6-6.3-8.9-8.9c-1.5-1.2-2.8-2.5-4.2-3.5c-0.7-0.5-1.3-1.1-1.9-1.6
								c-0.6-0.5-1.3-0.9-1.8-1.4c-1.2-0.9-2.3-1.6-3.2-2.3c-1-0.7-1.8-1.2-2.5-1.6c-0.7-0.4-1.2-0.8-1.6-1
								c-0.4-0.2-0.5-0.4-0.5-0.4c0,0,0.2,0.1,0.6,0.3c0.4,0.2,1,0.5,1.6,0.9c0.7,0.4,1.6,0.9,2.5,1.6c1,0.6,2.1,1.3,3.3,2.2
								c0.6,0.4,1.2,0.9,1.9,1.3c0.6,0.5,1.3,1,2,1.5c1.4,1,2.8,2.3,4.2,3.5c2.9,2.6,6,5.6,9,8.9c3,3.4,5.6,6.8,7.7,10
								c1,1.6,2.1,3.2,2.9,4.7c0.4,0.8,0.8,1.5,1.2,2.2c0.4,0.7,0.7,1.4,1,2.1c0.3,0.7,0.7,1.3,0.9,1.9c0.3,0.6,0.5,1.2,0.7,1.7
								c0.2,0.5,0.4,1,0.6,1.5c0.2,0.5,0.3,0.9,0.4,1.3c0.2,0.7,0.4,1.3,0.6,1.8C78.9,438,79,438.2,79,438.2z"/>
						</g>
					</g>
				</g>
			</g>
			<g>
				<g>
					<g>
						<g>
							<path class="st6" d="M122.4,385.7c0,0.1-1.2,0.1-3.2,0.2c-2,0.1-4.8,0.4-7.8,0.9c-3,0.6-5.7,1.3-7.6,2
								c-1.9,0.6-3.1,1.1-3.1,1c0,0,0.3-0.2,0.8-0.4c0.5-0.2,1.3-0.6,2.2-0.9c1.9-0.7,4.6-1.5,7.6-2.1c3-0.6,5.8-0.8,7.8-0.8
								c1,0,1.8,0,2.4,0C122.1,385.6,122.4,385.7,122.4,385.7z"/>
						</g>
					</g>
				</g>
			</g>
			<g>
				<g>
					<g>
						<g>
							<path class="st6" d="M130.1,423.6c-0.1,0.1-1.3-3.3-4.2-6.4c-2.9-3.1-6.1-4.6-6.1-4.7c0,0,0.9,0.2,2.1,0.9
								c1.2,0.7,2.8,1.8,4.3,3.4c1.5,1.6,2.5,3.3,3.1,4.6C130,422.7,130.2,423.5,130.1,423.6z"/>
						</g>
					</g>
				</g>
			</g>
			<g>
				<g>
					<g>
						<g>
							<path class="st6" d="M103.7,348.2c0.1,0.1-1.8,2-3.9,4.5c-2.1,2.5-3.5,4.8-3.7,4.7c-0.1-0.1,1.2-2.4,3.3-5
								C101.5,349.9,103.6,348.1,103.7,348.2z"/>
						</g>
					</g>
				</g>
			</g>
			<g>
				<g>
					<g>
						<g>
							
								<ellipse transform="matrix(0.9858 -0.1678 0.1678 0.9858 -55.936 21.3199)" class="st6" cx="98.2" cy="341.6" rx="0.2" ry="4.2"/>
						</g>
					</g>
				</g>
			</g>
			<g>
				<g>
					<g>
						<g>
							
								<ellipse transform="matrix(0.4602 -0.8878 0.8878 0.4602 -294.5366 270.3015)" class="st6" cx="75" cy="377.4" rx="7" ry="0.2"/>
						</g>
					</g>
				</g>
			</g>
			<g>
				<g>
					<g>
						<g>
							
								<ellipse transform="matrix(0.8952 -0.4456 0.4456 0.8952 -155.129 68.9743)" class="st6" cx="69.1" cy="364.4" rx="0.2" ry="5.2"/>
						</g>
					</g>
				</g>
			</g>
			<g>
				<g>
					<g>
						<g>
							<path class="st6" d="M50,398.8c0,0.1-2.1-0.3-4.6-0.4c-2.5-0.2-4.6-0.1-4.6-0.2c0-0.1,2.1-0.4,4.7-0.3
								C48,398.1,50,398.7,50,398.8z"/>
						</g>
					</g>
				</g>
			</g>
		</g>
		<g>
			<g>
				<g>
					<g>
						<path class="st6" d="M61.5,433.3l5.7,30.1c0.4,2,2.1,3.4,4.1,3.4h16.9c2.1,0,3.8-1.5,4.2-3.5l5-30H61.5z"/>
					</g>
				</g>
			</g>
			<g>
				<g>
					<g>
						<polygon class="st15" points="63.3,443.1 95.6,443.1 97.4,433.3 61.5,433.3 						"/>
					</g>
				</g>
			</g>
			<g>
				<g>
					<g>
						<polygon class="st3" points="63.3,443.1 64,446.7 95.2,446.7 95.6,443.1 						"/>
					</g>
				</g>
			</g>
		</g>
	</g>
</g>
</svg>
