<?xml version="1.0" encoding="utf-8"?>
<!-- Generator: Adobe Illustrator 21.1.0, SVG Export Plug-In . SVG Version: 6.00 Build 0)  -->
<svg version="1.1" xmlns="http://www.w3.org/2000/svg" xmlns:xlink="http://www.w3.org/1999/xlink" x="0px" y="0px"
	 viewBox="0 0 750 500" style="enable-background:new 0 0 750 500;" xml:space="preserve">
<style type="text/css">
	.st0{fill:#EBEBEB;}
	.st1{fill:#E0E0E0;}
	.st2{fill:#F5F5F5;}
	.st3{fill:#FAFAFA;}
	.st4{display:none;}
	.st5{display:inline;fill:#EBEBEB;}
	.st6{fill:#263238;}
	.st7{fill:#0F4C81;}
	.st8{opacity:0.3;}
	.st9{fill:#455A64;}
	.st10{fill:#FFFFFF;}
	.st11{fill:#FFBE9D;}
	.st12{opacity:0.5;}
	.st13{fill:#A860A5;}
	.st14{fill:#B5C4C9;}
	.st15{fill:#EB996E;}
	.st16{opacity:0.2;}
	.st17{opacity:0.4;}
</style>
<g id="Background_Complete">
	<g>
		<g>
			<g>
				<g>
					<path class="st0" d="M439.8,377.4h39.1c2.8,0,5-2.2,5-5v-12c0-4.6-3.8-8.4-8.4-8.4h-36L439.8,377.4z"/>
				</g>
			</g>
			<g>
				<g>
					<g>
						<g>
							<path class="st0" d="M478.2,384.9h-76.9c-2.1,0-3.8-1.7-3.8-3.8l0,0c0-2.1,1.7-3.8,3.8-3.8h76.9c2.1,0,3.8,1.7,3.8,3.8l0,0
								C482,383.2,480.3,384.9,478.2,384.9z"/>
						</g>
					</g>
					<g>
						<g>
							<path class="st1" d="M385.7,276.4l42.3-0.7l26.8,101.4l-57.2,0.6L376,288.8C374.4,282.5,379.2,276.4,385.7,276.4z"/>
						</g>
					</g>
					<g>
						<g>
							<polygon class="st0" points="406.7,384.9 394.1,458.5 397.5,458.5 414.2,384.9 							"/>
						</g>
					</g>
					<g>
						<g>
							<polygon class="st1" points="436.6,384.9 423.1,458.5 426.6,458.5 444,384.9 							"/>
						</g>
					</g>
					<g>
						<g>
							<polygon class="st0" points="469.5,384.9 484.5,458.5 481.1,458.5 462.1,384.9 							"/>
						</g>
					</g>
				</g>
			</g>
			<g>
				<g>
					<path class="st0" d="M423.1,275.7L444,377.2h16l-16.8-89.7c-1.3-6.8-7.2-11.8-14.2-11.8H423.1z"/>
				</g>
			</g>
		</g>
	</g>
	<g>
		<g>
			<g>
				<g>
					<g>
						
							<rect x="488" y="309.8" transform="matrix(-1 -1.224647e-16 1.224647e-16 -1 1033.9401 622.4356)" class="st0" width="57.9" height="2.8"/>
					</g>
				</g>
				<g>
					<g>
						<polygon class="st0" points="554.9,312.6 565.7,271.9 520.5,271.9 510.7,312.6 						"/>
					</g>
				</g>
			</g>
			<g>
				<g>
					<polygon class="st1" points="513.4,309.5 553.8,309.5 563.2,273.8 522.6,273.8 					"/>
				</g>
			</g>
		</g>
		<g>
			<g>
				<g>
					<g>
						<rect x="476.6" y="321" class="st2" width="2.9" height="139.5"/>
					</g>
				</g>
				<g>
					<g>
						<rect x="479.5" y="321.4" class="st0" width="2.9" height="139.1"/>
					</g>
				</g>
			</g>
			<g>
				<g>
					<g>
						<rect x="656.6" y="321" class="st0" width="2.9" height="139.5"/>
					</g>
				</g>
				<g>
					<g>
						<rect x="659.6" y="321.4" class="st1" width="2.9" height="139.1"/>
					</g>
				</g>
			</g>
			<g>
				<g>
					<rect x="463.9" y="312.9" class="st1" width="222" height="11.4"/>
				</g>
			</g>
			<g>
				<g>
					<rect x="560.4" y="324.3" class="st0" width="97.7" height="18.9"/>
				</g>
			</g>
			<g>
				<g>
					<circle class="st1" cx="611.4" cy="332.5" r="2.2"/>
				</g>
			</g>
		</g>
	</g>
	<g>
		<g>
			<g>
				
					<rect x="50.5" y="103.1" transform="matrix(6.123234e-17 -1 1 6.123234e-17 -35.5251 236.289)" class="st1" width="99.9" height="65.7"/>
			</g>
		</g>
		<g>
			<g>
				
					<rect x="53.8" y="105.9" transform="matrix(6.123234e-17 -1 1 6.123234e-17 -35.6767 236.1893)" class="st3" width="92.9" height="60"/>
			</g>
		</g>
		<g>
			<g>
				
					<rect x="85.2" y="127.7" transform="matrix(6.123234e-17 -1 1 6.123234e-17 -35.5508 236.315)" class="st1" width="30.3" height="16.5"/>
			</g>
		</g>
	</g>
	<g>
		<g>
			<g>
				<g>
					<rect x="627" y="173.8" class="st1" width="2.1" height="18.4"/>
				</g>
			</g>
			<g>
				<g>
					<rect x="694.7" y="173.8" class="st1" width="2.1" height="18.4"/>
				</g>
			</g>
			<g>
				<g>
					<rect x="619.4" y="166.4" class="st0" width="86.1" height="7.4"/>
				</g>
			</g>
		</g>
		<g>
			<g>
				<g>
					<g>
						<rect x="676.7" y="111.1" class="st2" width="11.9" height="55.3"/>
					</g>
				</g>
				<g>
					<g>
						<circle class="st1" cx="682.8" cy="153.1" r="2.4"/>
					</g>
				</g>
				<g>
					<g>
						<rect x="680.9" y="125.7" class="st1" width="3.6" height="22.6"/>
					</g>
				</g>
			</g>
			<g>
				<g>
					<g>
						<rect x="664.6" y="111.1" class="st0" width="11.9" height="55.3"/>
					</g>
				</g>
				<g>
					<g>
						<circle class="st3" cx="670.8" cy="153.1" r="2.4"/>
					</g>
				</g>
				<g>
					<g>
						<rect x="668.9" y="125.7" class="st3" width="3.6" height="22.6"/>
					</g>
				</g>
			</g>
			<g>
				<g>
					<g>
						<rect x="653.1" y="111.1" class="st1" width="11.9" height="55.3"/>
					</g>
				</g>
				<g>
					<g>
						<circle class="st3" cx="659.3" cy="153.1" r="2.4"/>
					</g>
				</g>
				<g>
					<g>
						<rect x="657.4" y="125.7" class="st3" width="3.6" height="22.6"/>
					</g>
				</g>
			</g>
			<g>
				<g>
					<polygon class="st1" points="638.4,165.6 652.7,116.9 647.8,114.7 633.2,163.8 					"/>
				</g>
			</g>
		</g>
	</g>
	<g>
		<g>
			<g>
				<path class="st0" d="M307.7,368.9c4.8-2.5,10.5-2.8,15.9-1.9c2.9,0.5,5.9,1.3,7.9,3.5c2,2.2,2.3,6,0.1,7.8
					c-1.3,1.1-3.2,1.3-5,1.3c-4.2,0-8.9-0.8-12.2,1.7c-1.9,1.4-3.2,3.8-5.5,4.5c-2.2,0.7-4.8-0.6-6-2.7c-1.2-2-1.2-4.5-0.7-6.8
					C302.2,376.3,302.8,371.4,307.7,368.9z"/>
			</g>
			<g>
				<path class="st0" d="M296.6,347.5c3,4.2,8.7,2.8,11.4,0.2c2.7-2.6,3.8-6.3,4.8-9.9c2.3-8.1,4.7-16.7,3-25
					c-0.5-2.5-1.4-4.9-3.2-6.8c-1.7-1.8-4.4-2.9-6.9-2.3c-2.9,0.8-4.7,3.6-6,6.3c-3.8,7.9-5.9,16.7-5.9,25.5
					C293.8,339.8,294.3,344.1,296.6,347.5"/>
			</g>
			<g>
				<path class="st0" d="M288.5,353.5c3.2-3.8,3.8-9.4,2.4-14.1c-1.4-4.8-4.7-8.8-8.4-12.1c-4.4-3.9-9.5-6.9-15-8.8
					c-2.2-0.8-4.5-1.4-6.7-1.1c-2.3,0.2-4.6,1.4-5.7,3.4c-1.6,3-0.1,6.7,1.6,9.6c2.9,5.2,6.2,10.3,9.8,15c3,3.8,6.3,7.6,10.8,9.3
					c4.5,1.7,9.2,1.5,11.6-1.6"/>
			</g>
			<g>
				<g>
					<path class="st1" d="M296.4,411.2c0.1,0,0.1-0.7,0.3-1.9c0.1-1.4,0.3-3.2,0.5-5.2c0.2-2.2,0.6-4.8,1.2-7.7
						c0.6-2.8,1.6-5.9,2.8-9.1c1.3-3.1,2.8-5.9,4.6-8.2c1.8-2.3,3.9-3.9,5.9-4.9c2-1,3.7-1.4,4.9-1.5c1.2-0.1,1.9-0.2,1.9-0.3
						c0-0.1-0.7-0.1-1.9,0c-1.2,0.1-3.1,0.4-5.1,1.3c-2.1,0.9-4.3,2.6-6.2,4.9c-1.9,2.3-3.5,5.2-4.8,8.4c-1.2,3.2-2.2,6.3-2.8,9.2
						c-0.6,2.9-0.8,5.6-1,7.8c-0.2,2.2-0.2,4-0.3,5.3C296.3,410.5,296.3,411.2,296.4,411.2z"/>
				</g>
			</g>
			<g>
				<g>
					<path class="st1" d="M296.8,407.1c0,0,0-0.3,0.1-0.9c0-0.7,0-1.5,0-2.5c0-2.2,0-5.4,0.1-9.4c0.2-7.9,0.9-16.4,2.2-28.4
						c1.2-11.3,2.9-24.4,4.7-32.9c0.4-1.9,0.8-3.7,1.1-5.2c0.3-1.5,0.6-2.9,0.9-3.9c0.2-1,0.4-1.8,0.6-2.5c0.1-0.6,0.2-0.9,0.2-0.9
						c0,0-0.1,0.3-0.3,0.8c-0.2,0.6-0.4,1.4-0.7,2.4c-0.3,1.1-0.7,2.4-1,3.9c-0.4,1.5-0.8,3.3-1.2,5.2c-1.7,7.7-3.6,18.5-4.9,30.5
						c-1.3,12-1.9,22.9-2,30.9c0,4,0,7.2,0.1,9.4c0.1,1,0.1,1.9,0.2,2.5C296.7,406.8,296.7,407.1,296.8,407.1z"/>
				</g>
			</g>
			<g>
				<g>
					<path class="st1" d="M296.8,386.1c0.1,0,0-0.9,0-2.7c-0.1-1.7-0.3-4.2-0.8-7.2c-0.5-3-1.2-6.6-2.3-10.5
						c-0.5-1.8-1.6-6-4.4-12.4c-3.6-8.6-8.6-15.7-12.9-20.1c-1-1.2-2.1-2-3-2.8c-0.5-0.4-0.9-0.8-1.3-1.1c-0.4-0.3-0.8-0.6-1.2-0.8
						c-1.4-1-2.2-1.5-2.2-1.4c-0.1,0.2,3.2,2.1,7.3,6.5c4.1,4.4,9,11.4,12.6,20c2,4.6,3.4,8.8,4.4,12.3c1.2,3.9,1.9,7.4,2.5,10.4
						c0.5,3,0.9,5.4,1.1,7.1C296.6,385.1,296.8,386.1,296.8,386.1z"/>
				</g>
			</g>
		</g>
		<g>
			<polygon class="st1" points="276.4,423.3 278.5,452.2 315.7,452.2 317.8,423.3 			"/>
		</g>
		<g>
			<rect x="272.8" y="411.8" class="st1" width="49.4" height="11.4"/>
		</g>
		<g>
			<polygon class="st0" points="272.8,451.1 272.8,454.3 275.2,454.3 321.5,454.3 321.5,451.1 			"/>
		</g>
		<g>
			<polygon class="st1" points="277.4,459.8 275.2,454.3 319.7,454.3 317,459.8 			"/>
		</g>
		<g>
			<g>
				<path class="st2" d="M317.1,432.7c0,0-0.1,0.1-0.2,0.3c-0.1,0.2-0.3,0.4-0.6,0.7c-0.5,0.7-1.3,1.6-2.2,2.8l-0.1,0.1l-0.1-0.1
					c-1.4-1.9-3.2-4.4-5.3-7.4h0.3c-1.6,2.2-3.3,4.7-5.2,7.4l-0.2,0.2l-0.2-0.2c-1.9-2.3-4-4.8-6.2-7.4l0.4,0
					c-0.1,0.1-0.2,0.3-0.3,0.4c-1.9,2.4-3.8,4.8-5.6,7l-0.2,0.2l-0.2-0.2c-1.9-2.7-3.6-5.2-5.2-7.4l0.3,0c-2.6,2.9-4.8,5.4-6.5,7.4
					l-0.1,0.1l-0.1-0.1c-0.9-1.4-1.5-2.6-2-3.4c-0.2-0.4-0.4-0.7-0.5-0.9c-0.1-0.2-0.2-0.3-0.2-0.3c0,0,0.1,0.1,0.2,0.3
					c0.2,0.2,0.3,0.5,0.6,0.9c0.5,0.8,1.2,1.9,2.1,3.3l-0.2,0c1.7-1.9,3.8-4.5,6.4-7.4l0.2-0.2l0.1,0.2c1.6,2.2,3.4,4.7,5.3,7.4
					l-0.4,0c1.8-2.2,3.6-4.6,5.5-7c0.1-0.1,0.2-0.3,0.3-0.4l0.2-0.2l0.2,0.2c2.2,2.6,4.3,5.1,6.2,7.4l-0.3,0
					c1.9-2.7,3.7-5.2,5.3-7.4l0.2-0.2l0.2,0.2c2.1,3,3.9,5.5,5.2,7.4l-0.2,0c0.9-1.1,1.7-2,2.3-2.7c0.2-0.3,0.4-0.5,0.6-0.7
					C317.1,432.8,317.1,432.7,317.1,432.7z"/>
			</g>
		</g>
		<g>
			<g>
				<ellipse class="st2" cx="297.5" cy="423.1" rx="20.8" ry="0.2"/>
			</g>
		</g>
		<g>
			<g>
				<ellipse class="st2" cx="297.6" cy="454.6" rx="22.6" ry="0.2"/>
			</g>
		</g>
	</g>
</g>
<g id="Background_Simple" class="st4">
	<path class="st5" d="M622.9,135.2l-1.7-3.9C601.7,87.1,559.3,56.8,511,54.1c-4.5-0.2-9-0.3-13.5,0c-43.2,2.3-84.3,27.2-105.4,63.9
		c-12.4,21.6-18.8,47.6-38.5,63.2c-25.6,20.4-63,15.5-95.6,9.5c-32.6-5.9-79-16.4-104.5,4c-15.9,12.8-31.9,39.3-34.3,59.4
		c-9.6,81.8,24.5,106.2,67.6,142.4c41.9,35.2,123.8,36,178.8,33.8c76.9-3.2,154-32.1,206-87C623.6,288.5,647.1,206.6,622.9,135.2z"
		/>
</g>
<g id="Floor">
	<g>
		<g>
			<path class="st6" d="M659,460.9c0,0.1-127.1,0.3-284,0.3c-156.9,0-284-0.1-284-0.3c0-0.1,127.1-0.3,284-0.3
				C531.8,460.6,659,460.7,659,460.9z"/>
		</g>
	</g>
</g>
<g id="Plant">
	<g>
		<g>
			<g>
				<g>
					<g>
						<path class="st6" d="M104.7,439.7c0,0,0-0.1,0.1-0.3c0.1-0.2,0.3-0.6,0.4-1c0.4-0.8,0.9-2.1,1.3-3.8c0.9-3.4,1.2-8.6-0.1-14.8
							c-0.6-3.1-1.6-6.4-2.7-9.9c-1.2-3.5-2.5-7.3-3.6-11.3c-1.1-4-1.9-8.4-1.8-13c0.2-4.6,1.5-9.2,3-13.7c1.5-4.6,3-9,3.5-13.5
							c0.5-4.5-0.4-8.9-2.5-12.5c-2-3.6-4.5-6.8-6.3-10c-1.9-3.2-3.1-6.5-3.8-9.6c-1.4-6.2-0.9-11.4-0.2-14.9
							c0.7-3.5,1.6-5.3,1.6-5.3c0,0,0,0.1-0.1,0.3c-0.1,0.2-0.2,0.6-0.3,1c-0.3,0.9-0.6,2.2-1,3.9c-0.6,3.4-1.1,8.6,0.4,14.8
							c0.7,3,1.9,6.3,3.8,9.5c1.9,3.2,4.4,6.3,6.4,10c2.1,3.7,3.1,8.2,2.6,12.8c-0.5,4.6-2,9.1-3.5,13.6c-1.5,4.6-2.8,9.1-3,13.6
							c-0.2,4.5,0.7,8.8,1.7,12.9c1.1,4,2.4,7.8,3.6,11.3c1.2,3.5,2.1,6.9,2.7,10c1.3,6.2,0.9,11.5,0,14.9c-0.5,1.7-1,3-1.4,3.8
							c-0.2,0.4-0.4,0.7-0.5,0.9C104.8,439.6,104.7,439.7,104.7,439.7z"/>
					</g>
				</g>
			</g>
			<g>
				<g>
					<g>
						<path class="st7" d="M98.6,339c0,0-3.8-12.1,3-19.2c0.2-0.2,0.7-0.1,0.7,0.2C102.7,322,103.1,328.1,98.6,339z"/>
					</g>
				</g>
				<g>
					<g>
						<g>
							<path class="st6" d="M100.9,323.8c0.1,0,0,0.9-0.3,2.2c-0.2,1.5-0.5,3.3-0.9,5.3c-0.3,2-0.6,3.8-0.8,5.3
								c-0.2,1.4-0.3,2.2-0.4,2.2c-0.1,0-0.1-0.9,0.1-2.3c0.1-1.4,0.4-3.3,0.7-5.4c0.3-2.1,0.7-4,1-5.3
								C100.6,324.6,100.8,323.8,100.9,323.8z"/>
						</g>
					</g>
				</g>
			</g>
			<g>
				<g>
					<g>
						<path class="st7" d="M103.1,367.6c0,0,2.3-12.5,11.6-15.6c0.3-0.1,0.6,0.2,0.5,0.5C114.6,354.4,112.2,360,103.1,367.6z"/>
					</g>
				</g>
				<g>
					<g>
						<g>
							<path class="st6" d="M112.2,355.2c0.1,0-0.4,0.7-1.3,1.9c-0.9,1.2-2,2.7-3.3,4.3c-1.2,1.6-2.3,3.1-3.2,4.3
								c-0.8,1.1-1.3,1.8-1.4,1.8c-0.1,0,0.4-0.8,1.1-2c0.8-1.2,1.9-2.7,3.1-4.4c1.3-1.7,2.5-3.2,3.4-4.2
								C111.5,355.8,112.1,355.2,112.2,355.2z"/>
						</g>
					</g>
				</g>
			</g>
			<g>
				<g>
					<g>
						<path class="st7" d="M100.5,398.8c0,0-1.4-12.6,6.6-18.3c0.3-0.2,0.7,0,0.7,0.3C107.8,382.9,107.1,389,100.5,398.8z"/>
					</g>
				</g>
				<g>
					<g>
						<g>
							<path class="st6" d="M105.7,384.4c0.1,0-0.2,0.8-0.7,2.1c-0.5,1.5-1.2,3.2-1.9,5.1c-0.7,1.9-1.3,3.6-1.9,5.1
								c-0.5,1.3-0.7,2.1-0.8,2.1c-0.1,0,0.1-0.9,0.5-2.2c0.4-1.3,1-3.2,1.7-5.1c0.7-2,1.5-3.8,2-5
								C105.2,385.1,105.6,384.4,105.7,384.4z"/>
						</g>
					</g>
				</g>
			</g>
			<g>
				<g>
					<g>
						<path class="st7" d="M107.6,430.3c0,0-1-12.7,7.3-18c0.3-0.2,0.7,0,0.7,0.4C115.4,414.7,114.4,420.7,107.6,430.3z"/>
					</g>
				</g>
				<g>
					<g>
						<g>
							<path class="st6" d="M113.2,416.1c0.1,0-0.2,0.8-0.8,2.1c-0.6,1.4-1.3,3.1-2,5c-0.8,1.9-1.4,3.6-2,5
								c-0.5,1.3-0.8,2.1-0.9,2.1c-0.1,0,0.1-0.9,0.6-2.2c0.4-1.3,1.1-3.1,1.9-5.1c0.8-2,1.6-3.7,2.2-5
								C112.7,416.8,113.1,416,113.2,416.1z"/>
						</g>
					</g>
				</g>
			</g>
			<g>
				<g>
					<g>
						<path class="st7" d="M93.2,328.4c0,0-11.2-5.9-11.5-15.7c0-0.3,0.4-0.6,0.7-0.4C84,313.5,88.7,317.4,93.2,328.4z"/>
					</g>
				</g>
				<g>
					<g>
						<g>
							<path class="st6" d="M84,316c0.1,0,0.6,0.6,1.4,1.8c0.9,1.3,2,2.7,3.2,4.4c1.2,1.6,2.3,3.1,3.2,4.4c0.8,1.1,1.3,1.8,1.3,1.8
								c0,0-0.7-0.6-1.5-1.6c-0.9-1.1-2.1-2.6-3.3-4.3c-1.2-1.7-2.3-3.3-3.1-4.5C84.4,316.8,84,316.1,84,316z"/>
						</g>
					</g>
				</g>
			</g>
			<g>
				<g>
					<g>
						<path class="st7" d="M105.2,354.4c0,0-11.6-5.2-12.4-15c0-0.3,0.3-0.6,0.6-0.4C95.2,340,100.1,343.7,105.2,354.4z"/>
					</g>
				</g>
				<g>
					<g>
						<g>
							<path class="st6" d="M95.4,342.6c0.1,0,0.6,0.6,1.5,1.7c1,1.2,2.1,2.6,3.4,4.2c1.3,1.6,2.4,3,3.4,4.2
								c0.9,1.1,1.4,1.7,1.4,1.8c0,0-0.7-0.5-1.6-1.5c-1-1-2.2-2.5-3.6-4.1c-1.3-1.6-2.5-3.2-3.3-4.3
								C95.8,343.4,95.3,342.7,95.4,342.6z"/>
						</g>
					</g>
				</g>
			</g>
			<g>
				<g>
					<g>
						<path class="st7" d="M98.6,383.4c0,0-8-9.9-4.2-19c0.1-0.3,0.6-0.4,0.7-0.1C96.2,366.1,98.8,371.6,98.6,383.4z"/>
					</g>
				</g>
				<g>
					<g>
						<g>
							<path class="st6" d="M95.1,368.4c0.1,0,0.3,0.8,0.6,2.2c0.3,1.5,0.7,3.3,1.1,5.3c0.4,2,0.8,3.8,1.2,5.3
								c0.3,1.3,0.5,2.2,0.4,2.2c-0.1,0-0.4-0.8-0.8-2.1c-0.4-1.3-0.9-3.2-1.3-5.3c-0.4-2.1-0.8-4-1-5.3
								C95.2,369.3,95.1,368.4,95.1,368.4z"/>
						</g>
					</g>
				</g>
			</g>
			<g>
				<g>
					<g>
						<path class="st7" d="M106.5,417.5c0,0-11.5-5.4-12.1-15.2c0-0.3,0.3-0.6,0.6-0.4C96.7,403,101.5,406.8,106.5,417.5z"/>
					</g>
				</g>
				<g>
					<g>
						<g>
							<path class="st6" d="M96.8,405.6c0.1,0,0.6,0.6,1.5,1.7c1,1.2,2.1,2.7,3.4,4.2c1.3,1.6,2.4,3,3.4,4.2
								c0.9,1.1,1.4,1.7,1.4,1.8c0,0-0.7-0.5-1.6-1.6c-0.9-1-2.2-2.5-3.5-4.2c-1.3-1.7-2.5-3.2-3.3-4.3
								C97.2,406.4,96.7,405.6,96.8,405.6z"/>
						</g>
					</g>
				</g>
			</g>
			<g>
				<g>
					<g>
						<g>
							<path class="st6" d="M129.3,367.6c0,0,0,0.1,0,0.3c0,0.2,0,0.5,0,0.8c0,0.8-0.1,1.8-0.1,3.1c-0.1,2.7-0.4,6.5-0.6,11l0,0l0,0
								c-0.8,4.6-3.2,9.7-6.3,14.6c-2.3,3.6-4.7,6.9-6.8,10c-2.1,3.1-3.9,5.9-5.1,8.4c-1.2,2.5-2,4.7-2.4,6.2
								c-0.2,0.8-0.4,1.3-0.4,1.8c-0.1,0.4-0.2,0.6-0.2,0.6c0,0,0-0.2,0.1-0.6c0.1-0.4,0.2-1,0.4-1.8c0.4-1.5,1-3.7,2.3-6.3
								c1.2-2.6,3-5.4,5-8.5c2.1-3.1,4.5-6.4,6.8-10c3.1-4.9,5.5-9.9,6.3-14.4l0,0c0.3-4.5,0.6-8.3,0.8-11c0.1-1.3,0.2-2.3,0.2-3.1
								c0-0.3,0.1-0.6,0.1-0.8C129.3,367.7,129.3,367.6,129.3,367.6z"/>
						</g>
					</g>
				</g>
				<g>
					<g>
						<g>
							<path class="st7" d="M122.5,396.5c0,0,4.9-11.7-1.3-19.4c-0.2-0.3-0.6-0.2-0.7,0.1C120,379.2,119,385.2,122.5,396.5z"/>
						</g>
					</g>
					<g>
						<g>
							<g>
								<path class="st6" d="M121.6,381.2c0.1,0,0.2,0.8,0.4,2.2c0.2,1.4,0.4,3.3,0.5,5.4c0.2,2.1,0.2,4,0.2,5.4
									c0,1.4-0.1,2.2-0.1,2.2c-0.1,0-0.1-0.9-0.2-2.2c-0.1-1.6-0.2-3.4-0.4-5.4c-0.1-2-0.3-3.8-0.4-5.4
									C121.6,382,121.6,381.2,121.6,381.2z"/>
							</g>
						</g>
					</g>
					<g class="st8">
						<g>
							<path d="M122.5,396.5c0,0,4.9-11.7-1.3-19.4c-0.2-0.3-0.6-0.2-0.7,0.1C120,379.2,119,385.2,122.5,396.5z"/>
						</g>
					</g>
				</g>
				<g>
					<g>
						<g>
							<path class="st7" d="M107.4,424.7c0,0,3.9-12.1-2.8-19.2c-0.2-0.3-0.7-0.1-0.7,0.2C103.5,407.7,103,413.8,107.4,424.7z"/>
						</g>
					</g>
					<g>
						<g>
							<g>
								<path class="st6" d="M105.3,409.5c0.1,0,0.3,0.8,0.6,2.2c0.3,1.4,0.6,3.2,1,5.3c0.3,2.1,0.5,4,0.7,5.4
									c0.1,1.4,0.1,2.2,0,2.3c-0.1,0-0.2-0.8-0.4-2.2c-0.2-1.5-0.5-3.3-0.8-5.3c-0.3-2-0.6-3.8-0.8-5.3
									C105.3,410.4,105.2,409.5,105.3,409.5z"/>
							</g>
						</g>
					</g>
					<g class="st8">
						<g>
							<path d="M107.4,424.7c0,0,3.9-12.1-2.8-19.2c-0.2-0.3-0.7-0.1-0.7,0.2C103.5,407.7,103,413.8,107.4,424.7z"/>
						</g>
					</g>
				</g>
				<g>
					<g>
						<g>
							<path class="st7" d="M128.7,382.2c0,0,10.4-7.3,9.3-17c0-0.3-0.4-0.5-0.7-0.3C135.8,366.2,131.8,370.7,128.7,382.2z"/>
						</g>
					</g>
					<g class="st8">
						<g>
							<path d="M128.7,382.2c0,0,10.4-7.3,9.3-17c0-0.3-0.4-0.5-0.7-0.3C135.8,366.2,131.8,370.7,128.7,382.2z"/>
						</g>
					</g>
					<g>
						<g>
							<g>
								<path class="st6" d="M136.2,368.8c0.1,0-0.3,0.8-0.9,2.1c-0.6,1.3-1.5,3-2.5,4.8c-1,1.9-2,3.5-2.7,4.7
									c-0.7,1.2-1.3,1.9-1.3,1.8c-0.1,0,0.4-0.8,1-2c0.7-1.4,1.6-3,2.6-4.7c1-1.8,1.8-3.4,2.6-4.8
									C135.7,369.5,136.1,368.7,136.2,368.8z"/>
							</g>
						</g>
					</g>
				</g>
				<g>
					<g>
						<g>
							<path class="st7" d="M111.6,412.7c0,0,12.5-2,15.9-11.2c0.1-0.3-0.2-0.6-0.5-0.6C125.1,401.6,119.4,403.8,111.6,412.7z"/>
						</g>
					</g>
					<g class="st8">
						<g>
							<path d="M111.6,412.7c0,0,12.5-2,15.9-11.2c0.1-0.3-0.2-0.6-0.5-0.6C125.1,401.6,119.4,403.8,111.6,412.7z"/>
						</g>
					</g>
					<g>
						<g>
							<g>
								<path class="st6" d="M124.2,404c0,0.1-0.6,0.6-1.7,1.5c-1.1,0.9-2.6,2-4.3,3.3c-1.7,1.2-3.3,2.3-4.5,3c-1.2,0.7-2,1.1-2,1.1
									c0-0.1,0.7-0.5,1.8-1.3c1.3-0.9,2.8-2,4.4-3.1c1.6-1.2,3.1-2.2,4.4-3.1C123.5,404.4,124.2,404,124.2,404z"/>
							</g>
						</g>
					</g>
				</g>
			</g>
		</g>
		<g>
			<g>
				<polygon class="st9" points="99.7,435.8 96,460.4 118.8,460.4 115.8,435.8 				"/>
			</g>
		</g>
		<g>
			<g>
				<g>
					<ellipse class="st6" cx="107.6" cy="443.4" rx="9.2" ry="0.2"/>
				</g>
			</g>
		</g>
		<g>
			<g>
				<g>
					<ellipse class="st6" cx="107.7" cy="445.4" rx="9.5" ry="0.2"/>
				</g>
			</g>
		</g>
	</g>
</g>
<g id="Speech_Bubble">
	<g>
		<g>
			<g>
				<path class="st6" d="M115.4,197.5c0,0,0.2,0.1,0.4,0.4c0.3,0.3,0.7,0.7,1.2,1.2c1.1,1,2.9,2.4,5.4,3.7c0.7,0.3,1.3,0.6,2.1,0.9
					c0.4,0.1,0.8,0.3,1.1,0.4c0.4,0.1,0.8,0.2,1.2,0.3c0.8,0.2,1.7,0.3,2.6,0.5c0.5,0,0.9,0.1,1.4,0.1c0.5,0,1,0,1.5,0
					c4,0,8.5-1.3,12.6-4.1l0.1-0.1l0.1,0c3.4,0.7,7.2,1.4,11.1,2.1l-0.2,0.4c-2-2.2-4-4.6-6.1-7l-0.1-0.1l0.1-0.2
					c1-1.5,2-3.1,2.7-4.8c0.7-1.7,1.2-3.6,1.4-5.5c0.5-3.8,0-7.9-1.7-11.6c-2.1-4.8-5.9-8.7-10.3-10.9c-4.4-2.2-9.4-2.9-13.9-2
					c-2.2,0.4-4.4,1.1-6.3,2.1c-1.9,1-3.6,2.2-5.1,3.7c-3,2.8-4.8,6.2-5.8,9.5c-1,3.3-1.2,6.5-0.8,9.2c0.3,2.7,1.2,5,2,6.7
					c0.2,0.4,0.4,0.8,0.6,1.2c0.2,0.4,0.4,0.7,0.6,1c0.4,0.6,0.7,1.2,1,1.6c0.3,0.4,0.5,0.7,0.7,0.9
					C115.3,197.4,115.4,197.5,115.4,197.5c0,0-0.1-0.1-0.3-0.3c-0.2-0.2-0.4-0.5-0.7-0.9c-0.3-0.4-0.7-0.9-1.1-1.5
					c-0.2-0.3-0.4-0.6-0.6-1c-0.2-0.4-0.4-0.8-0.6-1.2c-0.8-1.8-1.7-4-2.1-6.8c-0.4-2.8-0.3-6,0.8-9.4c1-3.3,2.9-6.8,5.9-9.7
					c2.9-2.9,7-5.1,11.5-6c4.6-0.9,9.7-0.2,14.2,2c4.5,2.3,8.4,6.2,10.6,11.2c1.7,3.8,2.2,8,1.7,11.9c-0.3,2-0.8,3.8-1.5,5.6
					c-0.7,1.8-1.7,3.4-2.7,4.9l0-0.3c2.1,2.4,4.2,4.8,6.1,7.1l0.4,0.5l-0.7-0.1c-3.9-0.8-7.7-1.5-11.1-2.2l0.2,0
					c-4.1,2.9-8.8,4.1-12.8,4.1c-0.5,0-1,0-1.5,0c-0.5,0-1-0.1-1.4-0.1c-0.9-0.2-1.8-0.3-2.7-0.5c-0.4-0.1-0.8-0.2-1.2-0.3
					c-0.4-0.1-0.8-0.3-1.2-0.4c-0.8-0.2-1.4-0.6-2.1-0.9c-2.6-1.3-4.3-2.8-5.4-3.8c-0.5-0.5-0.9-1-1.2-1.3
					C115.5,197.7,115.4,197.5,115.4,197.5z"/>
			</g>
		</g>
		<g>
			<polygon class="st6" points="131.9,178.2 135.7,177 139.5,175.7 138.7,179.6 137.9,183.5 135.8,181.7 127,191.5 125.2,189.9 
				134,180 			"/>
		</g>
	</g>
</g>
<g id="Bullseye">
	<g>
		<g>
			<circle class="st7" cx="236.8" cy="110.9" r="49.1"/>
		</g>
		<g>
			<path class="st10" d="M236.8,151.8c-22.6,0-40.9-18.3-40.9-40.9S214.2,70,236.8,70s40.9,18.3,40.9,40.9S259.3,151.8,236.8,151.8z
				 M236.8,77c-18.7,0-33.9,15.2-33.9,33.9c0,18.7,15.2,33.9,33.9,33.9s33.9-15.2,33.9-33.9C270.7,92.2,255.5,77,236.8,77z"/>
		</g>
		<g>
			<path class="st10" d="M236.5,124.9c-8.3,0-15.1-6.8-15.1-15.1c0-8.3,6.8-15.1,15.1-15.1c8.3,0,15.1,6.8,15.1,15.1
				C251.6,118.2,244.8,124.9,236.5,124.9z M236.5,101.8c-4.4,0-8.1,3.6-8.1,8.1c0,4.4,3.6,8.1,8.1,8.1c4.4,0,8.1-3.6,8.1-8.1
				C244.6,105.4,241,101.8,236.5,101.8z"/>
		</g>
		<g>
			<polygon class="st9" points="236.5,109.9 217.5,109.9 220.8,115.7 176,136.3 177.5,138.8 222.4,118.5 225.5,124.3 			"/>
		</g>
		<g>
			<path class="st6" d="M176,136.3l-0.5-0.5c-2.3-2.3-5.7-3.1-8.9-2.2l-17.9,5.2l10,4.4l-4,10.6l16.8-6c3.8-1.3,6.2-5,6-9l0,0
				L176,136.3z"/>
		</g>
	</g>
</g>
<g id="Graphics">
	<g>
		<g>
			<g>
				<path class="st3" d="M591.2,187.5H477.3c-2.7,0-4.9-2.2-4.9-4.9v-107c0-2.7,2.2-4.9,4.9-4.9h113.9c2.7,0,4.9,2.2,4.9,4.9v107
					C596.1,185.3,593.9,187.5,591.2,187.5z"/>
			</g>
			<g>
				<g>
					<path class="st6" d="M591.2,187.5c0,0,0.4,0,1.2-0.2c0.8-0.2,1.9-0.7,2.8-2c0.4-0.6,0.8-1.5,0.8-2.4c0-1,0-2,0-3.2
						c0-2.3,0-5,0-8c0-12,0-29.3-0.1-50.7c0-10.7,0-22.4,0-35c0-3.1,0-6.3,0-9.6c0-0.8,0-1.6-0.2-2.4c-0.2-0.7-0.7-1.4-1.2-2
						c-0.6-0.5-1.3-0.9-2-1.1c-0.8-0.2-1.6-0.1-2.4-0.2c-6.7,0-13.6,0-20.7,0c-28.3,0-59.4,0-92,0c-2,0-3.8,1.3-4.4,3.1
						c-0.3,0.9-0.3,1.9-0.3,2.9l0,3c0,4,0,8,0,12c0,7.9,0,15.8,0,23.5c0,15.4,0,30.2,0,44.4c0,7.1,0,14,0,20.7c0,0.8,0,1.7,0,2.5
						c0.1,0.8,0.4,1.6,0.8,2.2c0.9,1.3,2.4,2.1,4,2.1c3.2,0,6.4,0,9.6,0c12.6,0,24.3,0,35,0c21.4,0,38.7,0.1,50.7,0.1
						c6,0,10.6,0,13.8,0c1.6,0,2.8,0,3.6,0C590.8,187.5,591.2,187.5,591.2,187.5s-0.4,0-1.2,0c-0.8,0-2,0-3.6,0c-3.2,0-7.8,0-13.8,0
						c-12,0-29.3,0-50.7,0.1c-10.7,0-22.4,0-35,0c-3.1,0-6.3,0-9.6,0c-1.7,0-3.4-0.8-4.4-2.3c-0.5-0.7-0.8-1.6-0.9-2.4
						c0-0.9,0-1.7,0-2.5c0-6.7,0-13.6,0-20.7c0-14.1,0-29,0-44.4c0-7.7,0-15.5,0-23.5c0-4,0-8,0-12l0-3l0-1.5c0-0.5,0.1-1.1,0.3-1.6
						c0.7-2,2.7-3.5,4.9-3.5c32.6,0,63.7,0,92,0c7.1,0,14,0,20.7,0l1.3,0c0.4,0,0.9,0.1,1.3,0.2c0.8,0.2,1.6,0.7,2.2,1.3
						c0.6,0.6,1.1,1.3,1.4,2.2c0.3,0.8,0.2,1.7,0.2,2.5c0,3.2,0,6.4,0,9.6c0,12.6,0,24.3,0,35c0,21.4-0.1,38.7-0.1,50.7
						c0,3,0,5.6,0,8c0,1.2,0,2.2,0,3.2c-0.1,1-0.4,1.8-0.9,2.5c-0.9,1.3-2.1,1.8-2.9,2C591.6,187.6,591.2,187.5,591.2,187.5z"/>
				</g>
			</g>
		</g>
		<g>
			<g>
				<rect x="493.9" y="117.5" class="st7" width="6.7" height="57.3"/>
			</g>
			<g>
				<rect x="524.3" y="112.8" class="st7" width="6.7" height="62"/>
			</g>
			<g>
				<rect x="555.7" y="104.9" class="st7" width="6.7" height="69.9"/>
			</g>
			<g>
				<rect x="540.9" y="146.9" class="st6" width="6.7" height="27.9"/>
			</g>
			<g>
				<rect x="501.7" y="111.3" class="st9" width="6.7" height="63.5"/>
			</g>
			<g>
				<rect x="532.6" y="98" class="st9" width="6.7" height="76.8"/>
			</g>
			<g>
				<rect x="572.9" y="98" class="st6" width="6.7" height="76.8"/>
			</g>
			<g>
				<rect x="564.6" y="82.9" class="st9" width="6.7" height="92"/>
			</g>
			<g>
				<rect x="509.9" y="134.5" class="st6" width="6.7" height="40.3"/>
			</g>
			<g>
				<g>
					<path class="st6" d="M589.1,178.3c0,0.1-23.8,0.3-53.2,0.3c-29.4,0-53.2-0.1-53.2-0.3c0-0.1,23.8-0.3,53.2-0.3
						C565.3,178,589.1,178.1,589.1,178.3z"/>
				</g>
			</g>
			<g>
				<rect x="479.7" y="164.6" class="st6" width="4.1" height="1.5"/>
			</g>
			<g>
				<rect x="479.7" y="144.2" class="st6" width="4.1" height="1.5"/>
			</g>
			<g>
				<rect x="479.7" y="105.8" class="st6" width="4.1" height="1.5"/>
			</g>
			<g>
				<rect x="479.7" y="86.5" class="st6" width="4.1" height="1.5"/>
			</g>
			<g>
				<rect x="479.9" y="125" class="st6" width="4.1" height="1.5"/>
			</g>
		</g>
	</g>
	<g>
		<g>
			<g>
				<rect x="259.8" y="113.4" class="st10" width="230.3" height="179.3"/>
			</g>
			<g>
				<g>
					<path class="st6" d="M490.2,292.7c0-1.8-0.1-71.1-0.2-179.3l0.2,0.2c-65.6,0-144.9,0-230.3,0h0l0.3-0.3c0,64.6,0,125.7,0,179.3
						l-0.2-0.2C396.5,292.6,488.1,292.7,490.2,292.7c-2.1,0-93.6,0.1-230.3,0.2l-0.2,0v-0.2c0-53.5,0-114.7,0-179.3v-0.3h0.3h0
						c85.4,0,164.8,0,230.3,0h0.2l0,0.2C490.3,221.6,490.2,290.9,490.2,292.7z"/>
				</g>
			</g>
		</g>
		<g>
			<g>
				<g>
					<ellipse class="st6" cx="327.9" cy="230.3" rx="0.3" ry="40.4"/>
				</g>
			</g>
			<g>
				<g>
					<ellipse class="st6" cx="420.7" cy="230.3" rx="0.3" ry="40.4"/>
				</g>
			</g>
			<g>
				<g>
					<path class="st6" d="M359.6,270.7c-0.1,0-0.3-23.1-0.3-51.6c0-28.5,0.1-51.7,0.3-51.7c0.1,0,0.3,23.1,0.3,51.7
						C359.8,247.6,359.7,270.7,359.6,270.7z"/>
				</g>
			</g>
			<g>
				<g>
					<path class="st6" d="M295.4,270.7c-0.1,0-0.3-23.1-0.3-51.6c0-28.5,0.1-51.7,0.3-51.7c0.1,0,0.3,23.1,0.3,51.7
						C295.6,247.6,295.5,270.7,295.4,270.7z"/>
				</g>
			</g>
			<g>
				<g>
					<path class="st6" d="M457.1,270.7c-0.1,0-0.3-23.1-0.3-51.6c0-28.5,0.1-51.7,0.3-51.7c0.1,0,0.3,23.1,0.3,51.7
						C457.4,247.6,457.3,270.7,457.1,270.7z"/>
				</g>
			</g>
			<g>
				<g>
					<path class="st6" d="M387.4,270.7c-0.1,0-0.3-26.7-0.3-59.6c0-32.9,0.1-59.6,0.3-59.6s0.3,26.7,0.3,59.6
						C387.6,244,387.5,270.7,387.4,270.7z"/>
				</g>
			</g>
			<g>
				<circle class="st6" cx="327.9" cy="189.9" r="0.8"/>
			</g>
			<g>
				<circle class="st6" cx="359.6" cy="167.4" r="0.8"/>
			</g>
			<g>
				<path class="st7" d="M359.6,170.1c-1.5,0-2.7-1.2-2.7-2.7s1.2-2.7,2.7-2.7c1.5,0,2.7,1.2,2.7,2.7S361.1,170.1,359.6,170.1z
					 M359.6,165c-1.3,0-2.4,1.1-2.4,2.4s1.1,2.4,2.4,2.4c1.3,0,2.4-1.1,2.4-2.4S360.9,165,359.6,165z"/>
			</g>
			<g>
				<circle class="st6" cx="387.4" cy="151.4" r="0.8"/>
			</g>
			<g>
				<circle class="st6" cx="420.7" cy="190.7" r="0.8"/>
			</g>
			<g>
				<circle class="st6" cx="457.2" cy="167.4" r="0.8"/>
			</g>
			<g>
				<circle class="st6" cx="295.4" cy="168.2" r="0.8"/>
			</g>
			<g>
				<g>
					<path class="st7" d="M464.3,204c0,0.1-0.8,0.2-2.3,0.8c-1.5,0.6-3.4,1.9-5.5,4.2c-2.1,2.2-4.1,5.4-6.7,8.9
						c-1.3,1.7-2.8,3.6-4.6,5.3c-0.9,0.9-1.9,1.7-3,2.5c-1.1,0.7-2.3,1.4-3.6,2c-2.6,1.1-5.6,1.6-8.6,1.5c-1.5-0.1-3.1-0.2-4.7-0.6
						c-1.6-0.3-3.1-1-4.5-2c-1.4-1-2.6-2.3-3.5-3.7c-1-1.4-1.8-2.9-2.7-4.4c-1.7-3-3.4-6-5.4-9.1c-1.9-3.1-3.7-6.3-5.7-9.5
						c-2-3.2-4.2-6.3-7-9c-1.4-1.3-2.9-2.5-4.7-3.3c-0.8-0.5-1.8-0.7-2.7-1.1c-0.5-0.1-0.9-0.2-1.4-0.3l-0.7-0.2
						c-0.2,0-0.5,0-0.7-0.1c-3.9-0.3-7.9,0.5-11.4,2.4c-3.5,2-6.3,5-8.7,8.2c-2.4,3.2-4.4,6.7-6.3,10.1c-3.8,6.9-8,13.5-13.6,18.4
						c-2.8,2.4-6,4.4-9.4,5.3c-1.7,0.5-3.5,0.6-5.2,0.6c-1.7-0.1-3.4-0.4-5-0.9c-3.2-1-5.9-2.7-8.4-4.4c-2.5-1.7-4.7-3.5-7-5.1
						c-2.2-1.6-4.4-3-6.6-4c-2.2-1-4.4-1.6-6.5-1.9c-2.1-0.2-4.1-0.1-5.9,0.4c-0.5,0.1-0.9,0.3-1.3,0.4c-0.4,0.2-0.8,0.3-1.2,0.5
						c-0.7,0.4-1.5,0.7-2.1,1.1c-1.3,0.8-2.3,1.7-3.1,2.5c-0.8,0.9-1.5,1.6-2,2.2c-1,1.3-1.5,1.9-1.6,1.9c0,0,0.4-0.7,1.3-2.1
						c0.4-0.7,1.1-1.4,1.9-2.3c0.9-0.8,1.8-1.8,3.1-2.7c0.6-0.5,1.4-0.8,2.1-1.2c0.4-0.2,0.8-0.3,1.2-0.5c0.4-0.1,0.9-0.4,1.3-0.5
						c1.8-0.5,3.9-0.7,6.2-0.5c2.2,0.2,4.5,0.8,6.8,1.8c2.3,1,4.6,2.4,6.8,4c2.3,1.6,4.5,3.3,7,5c2.5,1.6,5.1,3.2,8.1,4.2
						c1.5,0.5,3,0.8,4.6,0.8c1.6,0,3.2-0.1,4.8-0.6c3.2-0.8,6.2-2.7,8.8-5c5.3-4.7,9.4-11.2,13.2-18.1c1.9-3.4,3.9-7,6.4-10.3
						c2.5-3.3,5.4-6.4,9.2-8.6c3.8-2.1,8.2-3,12.4-2.6c0.3,0,0.5,0,0.8,0.1l0.8,0.2c0.5,0.1,1,0.2,1.6,0.3c1,0.4,2,0.7,2.9,1.2
						c1.9,0.9,3.5,2.2,5,3.6c2.9,2.8,5.2,6.1,7.2,9.3c2,3.2,3.8,6.5,5.7,9.6c1.9,3.1,3.7,6.2,5.3,9.2c1.7,3,3.3,5.9,5.8,7.7
						c1.2,0.9,2.6,1.5,4.1,1.8c1.4,0.4,2.9,0.5,4.4,0.6c2.9,0.2,5.7-0.3,8.2-1.3c1.2-0.5,2.4-1.1,3.4-1.8c1-0.7,2-1.5,2.9-2.3
						c1.8-1.6,3.2-3.4,4.6-5.1c2.6-3.4,4.8-6.5,6.9-8.8c2.1-2.3,4.3-3.5,5.8-4.1c0.8-0.3,1.4-0.4,1.8-0.5
						C464.1,204,464.3,203.9,464.3,204z"/>
				</g>
			</g>
			<g>
				<rect x="294.6" y="137" class="st6" width="37.3" height="2.1"/>
			</g>
			<g>
				<rect x="294.6" y="141.8" class="st6" width="18.4" height="2.1"/>
			</g>
		</g>
		<g>
			<rect x="259.8" y="108.2" class="st6" width="230.3" height="14.4"/>
		</g>
	</g>
</g>
<g id="Character_2">
	<g>
		<g>
			<g>
				<g>
					<g>
						<g>
							<polygon class="st11" points="594.4,405.2 627.9,446.2 636.3,435.8 611,399.1 							"/>
						</g>
					</g>
				</g>
				<g>
					<g>
						<g>
							<g>
								<g>
									<path class="st7" d="M627.2,447.2l-1-0.9l9.8-11.5l4.2,3.8l-0.6,0.7c-2.6,3.2-13.6,16-16.1,17.5
										C620.6,458.4,627.2,447.2,627.2,447.2z"/>
								</g>
							</g>
							<g class="st12">
								<g>
									<path class="st10" d="M636.3,442.5c-0.8-1-1.2-2.3-1-3.6c0.1-1.3,0.6-2.4,1.6-3.3l3.1,2.8L636.3,442.5z"/>
								</g>
							</g>
						</g>
						<g>
							<g class="st12">
								<path class="st10" d="M624.1,452.8c0,0-2.1,4.1-1.2,4.2c0.9,0.1,12.5-12.5,17.1-18.5l-0.3-0.2l-13.4,14.8
									C626.4,453.2,624.7,452.2,624.1,452.8z"/>
							</g>
						</g>
						<g>
							<g>
								<g>
									<path class="st6" d="M640,438.2c0,0,0,0.1-0.2,0.2c-0.1,0.2-0.3,0.4-0.5,0.6c-0.5,0.6-1.1,1.3-1.8,2.1
										c-1.5,1.7-3.6,4.1-6,6.7c-2.4,2.6-4.6,4.9-6.2,6.5c-0.8,0.8-1.4,1.4-1.9,1.9c-0.2,0.2-0.4,0.4-0.5,0.5
										c-0.1,0.1-0.2,0.2-0.2,0.2s0.1-0.1,0.2-0.2c0.2-0.2,0.3-0.3,0.5-0.5c0.5-0.5,1.1-1.2,1.9-2c1.6-1.7,3.8-4,6.2-6.5
										c2.4-2.6,4.5-4.9,6-6.7c0.7-0.8,1.3-1.5,1.8-2c0.2-0.2,0.3-0.4,0.5-0.6C639.9,438.3,640,438.2,640,438.2z"/>
								</g>
							</g>
						</g>
						<g>
							<g>
								<g>
									<path class="st6" d="M626.6,453.3c0,0-0.5-0.4-1.3-0.5c-0.8-0.2-1.4,0-1.4,0c0,0,0.6-0.3,1.4-0.2
										C626.2,452.8,626.7,453.3,626.6,453.3z"/>
								</g>
							</g>
						</g>
						<g>
							<g>
								<g>
									
										<ellipse transform="matrix(0.1782 -0.984 0.984 0.1782 74.2109 985.6836)" class="st6" cx="627.2" cy="448.4" rx="0.1" ry="0.7"/>
								</g>
							</g>
						</g>
						<g>
							<g>
								<g>
									
										<ellipse transform="matrix(0.9956 -9.401199e-02 9.401199e-02 0.9956 -39.2694 60.9913)" class="st6" cx="627.7" cy="447.3" rx="0.6" ry="0.1"/>
								</g>
							</g>
						</g>
						<g>
							<g>
								<g>
									
										<ellipse transform="matrix(0.6694 -0.7429 0.7429 0.6694 -124.1733 613.5037)" class="st6" cx="627.3" cy="446.3" rx="0.8" ry="0.1"/>
								</g>
							</g>
						</g>
						<g>
							<g>
								<g>
									<path class="st6" d="M627.2,444.8c0,0-0.1,0.4-0.4,0.8c-0.3,0.4-0.7,0.6-0.7,0.6c0,0,0.3-0.3,0.6-0.7
										C627,445.2,627.2,444.8,627.2,444.8z"/>
								</g>
							</g>
						</g>
						<g>
							<g>
								<g>
									<path class="st6" d="M626.7,448c0,0-0.2,0.3-0.7,0.7c-0.2,0.2-0.5,0.4-0.9,0.6c-0.2,0.1-0.3,0.2-0.6,0.3
										c-0.1,0-0.2,0-0.4,0c-0.1-0.1-0.2-0.2-0.2-0.4c0.3-1,1.3-1.3,1.9-1.3c0.3,0,0.5,0.1,0.7,0.2c0.1,0.1,0.2,0.1,0.2,0.2
										c0,0-0.3-0.2-0.9-0.2c-0.3,0-0.6,0.1-0.9,0.2c-0.3,0.2-0.7,0.5-0.7,0.9c0,0.2,0.2,0.3,0.3,0.2c0.2,0,0.4-0.2,0.5-0.2
										c0.3-0.2,0.6-0.4,0.9-0.6C626.4,448.3,626.6,448,626.7,448z"/>
								</g>
							</g>
						</g>
						<g>
							<g>
								<g>
									<path class="st6" d="M626.5,448.2c0,0-0.3,0-0.6-0.4c-0.1-0.2-0.3-0.4-0.3-0.7c0-0.3-0.1-0.6,0.2-0.9
										c0.2-0.1,0.4-0.1,0.5,0.1c0.1,0.1,0.2,0.3,0.2,0.4c0.1,0.3,0.1,0.5,0.1,0.7C626.7,447.9,626.6,448.2,626.5,448.2
										c0-0.1,0-0.3,0-0.7c0-0.2-0.1-0.4-0.2-0.7c-0.1-0.2-0.3-0.5-0.5-0.4c-0.2,0.2-0.2,0.5-0.1,0.7c0.1,0.3,0.2,0.5,0.3,0.6
										C626.3,448.1,626.5,448.2,626.5,448.2z"/>
								</g>
							</g>
						</g>
						<g>
							<g>
								<g>
									<path class="st6" d="M636.8,435.7c0,0-0.3,0.3-0.7,0.8c-0.4,0.5-0.8,1.4-0.9,2.4c-0.1,1,0.2,2,0.5,2.6
										c0.3,0.6,0.6,0.9,0.6,0.9c0,0-0.1-0.1-0.2-0.2c-0.1-0.1-0.3-0.4-0.5-0.7c-0.4-0.6-0.7-1.5-0.6-2.6c0.1-1.1,0.5-2,1-2.5
										c0.2-0.3,0.4-0.5,0.6-0.6C636.7,435.7,636.8,435.6,636.8,435.7z"/>
								</g>
							</g>
						</g>
						<g>
							<g>
								<g>
									<path class="st6" d="M634,442.9c0,0-0.5,0.8-1.3,1.7c-0.8,0.9-1.6,1.5-1.6,1.5c0,0,0.7-0.7,1.5-1.6
										C633.3,443.6,633.9,442.9,634,442.9z"/>
								</g>
							</g>
						</g>
						<g>
							<g>
								<g>
									<path class="st6" d="M636,440.7c0.1,0,0.1,0.2,0.2,0.4c0.1,0.2,0.2,0.4,0.2,0.4c0,0-0.2-0.1-0.3-0.4
										C635.9,441,635.9,440.7,636,440.7z"/>
								</g>
							</g>
						</g>
						<g>
							<g>
								<g>
									
										<ellipse transform="matrix(0.9989 -4.760086e-02 4.760086e-02 0.9989 -20.1948 30.7587)" class="st6" cx="635.7" cy="439.4" rx="0.1" ry="0.4"/>
								</g>
							</g>
						</g>
						<g>
							<g>
								<g>
									<path class="st6" d="M636.3,437.4c0,0-0.1,0.2-0.2,0.4c-0.1,0.2-0.1,0.4-0.2,0.4c0,0-0.1-0.2,0-0.5
										C636.1,437.5,636.3,437.4,636.3,437.4z"/>
								</g>
							</g>
						</g>
						<g>
							<g>
								<g>
									
										<ellipse transform="matrix(0.366 -0.9306 0.9306 0.366 -2.5916 869.3942)" class="st6" cx="636.8" cy="436.6" rx="0.2" ry="0.1"/>
								</g>
							</g>
						</g>
					</g>
				</g>
			</g>
			<g>
				<g>
					<g>
						<g>
							<polygon class="st11" points="537.7,438.4 534.7,456.6 550.2,456.6 553.8,441.8 							"/>
						</g>
					</g>
				</g>
				<g>
					<g>
						<g>
							<g>
								<g>
									<path class="st7" d="M535.2,457l0-1.4l15.1-0.1l-0.2,5.7l-0.9,0c-4.1,0.1-21,0.1-23.8-0.8C522.4,459.4,535.2,457,535.2,457
										z"/>
								</g>
							</g>
							<g class="st12">
								<g>
									<path class="st10" d="M544.7,460.9c0.3-1.2,1-2.4,2-3.1c1-0.7,2.3-1.1,3.5-1l-0.1,4.2L544.7,460.9z"/>
								</g>
							</g>
						</g>
						<g>
							<g class="st12">
								<path class="st10" d="M529,458.4c0,0-4.5,1.1-4,1.9s17.6,1.4,25.2,1l0-0.3l-19.9-0.5C530.2,460.3,529.8,458.4,529,458.4z"/>
							</g>
						</g>
						<g>
							<g>
								<g>
									<path class="st6" d="M550.4,460.9c0,0-0.1,0-0.3,0c-0.2,0-0.5,0-0.7,0c-0.7,0-1.6,0-2.7,0c-2.3,0-5.5,0-9-0.2
										c-3.5-0.1-6.7-0.3-9-0.5c-1.1-0.1-2-0.2-2.7-0.2c-0.3,0-0.5,0-0.7-0.1c-0.2,0-0.3,0-0.3,0c0,0,0.1,0,0.3,0
										c0.2,0,0.5,0,0.7,0c0.7,0,1.6,0.1,2.7,0.2c2.3,0.1,5.5,0.3,9,0.4c3.5,0.1,6.7,0.2,9,0.2c1.1,0,2,0,2.7,0c0.3,0,0.5,0,0.7,0
										C550.3,460.8,550.4,460.9,550.4,460.9z"/>
								</g>
							</g>
						</g>
						<g>
							<g>
								<g>
									<path class="st6" d="M530.2,460.6c-0.1,0-0.1-0.6-0.5-1.3c-0.4-0.7-0.9-1-0.9-1.1c0,0,0.6,0.3,1,1
										C530.3,459.9,530.2,460.6,530.2,460.6z"/>
								</g>
							</g>
						</g>
						<g>
							<g>
								<g>
									
										<ellipse transform="matrix(0.8627 -0.5058 0.5058 0.8627 -158.1832 333.1227)" class="st6" cx="534.3" cy="457.8" rx="0.1" ry="0.7"/>
								</g>
							</g>
						</g>
						<g>
							<g>
								<g>
									
										<ellipse transform="matrix(0.6941 -0.7199 0.7199 0.6941 -165.5037 525.3862)" class="st6" cx="535.5" cy="457.4" rx="0.1" ry="0.6"/>
								</g>
							</g>
						</g>
						<g>
							<g>
								<g>
									
										<ellipse transform="matrix(2.404799e-02 -0.9997 0.9997 2.404799e-02 66.7279 981.3022)" class="st6" cx="536" cy="456.5" rx="0.1" ry="0.8"/>
								</g>
							</g>
						</g>
						<g>
							<g>
								<g>
									<path class="st6" d="M537,455.5c0,0-0.4,0.2-0.9,0.2c-0.5,0-0.9-0.1-0.9-0.2c0-0.1,0.4,0,0.9,0
										C536.6,455.5,537,455.5,537,455.5z"/>
								</g>
							</g>
						</g>
						<g>
							<g>
								<g>
									<path class="st6" d="M534.2,457.2c0,0-0.4,0.1-1,0c-0.3,0-0.6-0.1-1-0.3c-0.2-0.1-0.4-0.1-0.6-0.3
										c-0.1-0.1-0.2-0.2-0.2-0.3c0-0.1,0-0.3,0.2-0.4c0.9-0.4,1.8,0.1,2.2,0.6c0.2,0.2,0.3,0.5,0.3,0.7c0,0.2,0,0.3,0,0.3
										c0,0-0.1-0.4-0.4-0.8c-0.2-0.2-0.4-0.4-0.8-0.6c-0.3-0.1-0.8-0.2-1.1,0c-0.2,0.1-0.1,0.3,0.1,0.4c0.2,0.1,0.4,0.2,0.5,0.2
										c0.4,0.1,0.7,0.2,1,0.3C533.9,457.1,534.2,457.1,534.2,457.2z"/>
								</g>
							</g>
						</g>
						<g>
							<g>
								<g>
									<path class="st6" d="M534,457.2c0,0-0.1-0.2-0.1-0.7c0-0.2,0.1-0.5,0.3-0.7c0.2-0.2,0.4-0.5,0.8-0.5c0.2,0,0.3,0.3,0.3,0.5
										c0,0.2-0.1,0.3-0.2,0.4c-0.2,0.2-0.3,0.4-0.5,0.6C534.3,457.1,534.1,457.2,534,457.2c0.1,0,0.3-0.2,0.6-0.5
										c0.1-0.1,0.3-0.3,0.4-0.6c0.1-0.2,0.2-0.6,0-0.6c-0.2,0-0.5,0.2-0.6,0.4c-0.2,0.2-0.3,0.4-0.3,0.6
										C533.9,456.9,534,457.2,534,457.2z"/>
								</g>
							</g>
						</g>
						<g>
							<g>
								<g>
									<path class="st6" d="M550.2,456.8c0,0-0.4-0.1-1.1,0c-0.7,0.1-1.6,0.3-2.4,0.9c-0.8,0.6-1.3,1.4-1.6,2.1
										c-0.3,0.6-0.3,1.1-0.3,1.1c0,0,0-0.1,0-0.3c0-0.2,0.1-0.5,0.2-0.8c0.2-0.7,0.7-1.5,1.6-2.2c0.9-0.6,1.9-0.9,2.5-0.9
										c0.3,0,0.6,0,0.8,0.1C550.1,456.7,550.2,456.7,550.2,456.8z"/>
								</g>
							</g>
						</g>
						<g>
							<g>
								<g>
									<path class="st6" d="M542.9,459.4c0,0-1,0.2-2.2,0.1c-1.2,0-2.2-0.2-2.2-0.3c0-0.1,1,0,2.2,0.1
										C541.9,459.4,542.9,459.3,542.9,459.4z"/>
								</g>
							</g>
						</g>
						<g>
							<g>
								<g>
									<path class="st6" d="M545.8,459.5c0,0-0.1,0.2-0.2,0.4c-0.1,0.2-0.2,0.4-0.2,0.4c0,0-0.1-0.2,0.1-0.5
										C545.6,459.5,545.8,459.4,545.8,459.5z"/>
								</g>
							</g>
						</g>
						<g>
							<g>
								<g>
									
										<ellipse transform="matrix(0.7269 -0.6867 0.6867 0.7269 -165.5018 500.5928)" class="st6" cx="546.7" cy="458.4" rx="0.4" ry="0.1"/>
								</g>
							</g>
						</g>
						<g>
							<g>
								<g>
									<path class="st6" d="M548.6,457.5c0,0.1-0.2,0-0.4,0.1c-0.2,0.1-0.4,0.2-0.4,0.1c0,0,0.1-0.2,0.4-0.3
										C548.4,457.4,548.6,457.5,548.6,457.5z"/>
								</g>
							</g>
						</g>
						<g>
							<g>
								<g>
									
										<ellipse transform="matrix(0.9445 -0.3286 0.3286 0.9445 -119.7898 205.9885)" class="st6" cx="549.5" cy="457.4" rx="0.2" ry="0.1"/>
								</g>
							</g>
						</g>
					</g>
				</g>
			</g>
		</g>
		<g>
			<g>
				<g>
					<path class="st13" d="M596.5,221.7l-25.4,2.2c0,0-7.6,0.2-15.9,19.5l-5.7,11.3l11.2,7.1l0,0l0.5,7l1,28.3l47.2-3.5
						c-1.1-6.4-6.1-14.9-7.8-20.3c1.7-4.3,11.7-21.8,11.7-30.8C613.1,223.4,596.5,221.7,596.5,221.7"/>
				</g>
			</g>
			<g>
				<g>
					<path class="st3" d="M585.3,262c0,0.1-1.2-0.6-3.3-0.3c-1,0.1-2.2,0.5-3.5,0.9c-1.3,0.5-2.8,1.1-4.4,1.3
						c-3.3,0.6-6.3-0.1-8.2-1c-1-0.4-1.7-0.9-2.2-1.2c-0.5-0.3-0.7-0.6-0.7-0.6c0.1-0.1,1.1,0.7,3.1,1.5c1.9,0.7,4.9,1.3,8,0.8
						c1.6-0.2,3-0.8,4.3-1.3c1.3-0.5,2.6-0.8,3.7-0.8c1.1-0.1,2,0.1,2.5,0.3C585.1,261.8,585.3,262,585.3,262z"/>
				</g>
			</g>
			<g>
				<g>
					<path class="st3" d="M558.3,254c-0.1,0.1-1.3-1.1-3.1-2c-1.8-1-3.5-1.3-3.4-1.4c0-0.1,1.8,0,3.7,1
						C557.3,252.5,558.4,254,558.3,254z"/>
				</g>
			</g>
			<g>
				<g>
					<path class="st3" d="M572.1,270.8c0,0,0-0.5,0-1.5c0-0.5,0-1.1,0.1-1.8c0.1-0.7,0.1-1.5,0.3-2.3c0.2-1.7,0.7-3.8,1.3-6
						c0.6-2.2,1.4-4.6,2.4-7.1c2-5,4.2-9.2,5.9-12.3c0.8-1.5,1.5-2.8,2-3.6c0.5-0.8,0.8-1.3,0.8-1.3c0,0-0.2,0.5-0.6,1.4
						c-0.5,1-1.1,2.2-1.9,3.7c-1.6,3.1-3.8,7.4-5.7,12.3c-1,2.5-1.8,4.9-2.4,7.1c-0.6,2.2-1.1,4.2-1.4,5.9c-0.2,0.9-0.3,1.6-0.4,2.3
						c-0.1,0.7-0.2,1.3-0.2,1.8C572.2,270.3,572.2,270.8,572.1,270.8z"/>
				</g>
			</g>
			<g>
				<g>
					<path class="st3" d="M560.9,246.3c0,0,0.1-0.3,0.3-0.9c0.2-0.6,0.5-1.4,1-2.5c0.9-2,2.3-4.8,4.3-7.6c1.9-2.8,4-5.2,5.5-6.8
						c0.8-0.8,1.4-1.4,1.9-1.8c0.5-0.4,0.7-0.6,0.8-0.6c0.1,0.1-0.9,1-2.4,2.7c-1.5,1.6-3.5,4-5.4,6.8c-1.9,2.8-3.4,5.5-4.4,7.5
						C561.5,245,561,246.3,560.9,246.3z"/>
				</g>
			</g>
			<g>
				<g>
					<path class="st3" d="M589.8,243.5c0,0.1-0.4-0.2-1.3-0.4c-0.8-0.2-2.1-0.1-3.6,0.2c-1.5,0.3-3.3,1-5.4,0.9
						c-2.1-0.1-4.3-1.1-6.2-2.5c-2-1.4-3.6-2.9-5.4-3.9c-1.7-1.1-3.4-1.7-4.9-1.9c-1.5-0.2-2.7,0.1-3.5,0.5
						c-0.8,0.3-1.2,0.7-1.2,0.6c0,0,0.1-0.1,0.2-0.2c0.2-0.1,0.5-0.4,0.8-0.6c0.8-0.4,2.1-0.8,3.6-0.7c1.6,0.1,3.4,0.7,5.2,1.8
						c1.8,1.1,3.5,2.6,5.4,3.9c1.9,1.3,4,2.3,6,2.4c2,0.1,3.8-0.5,5.3-0.8c1.5-0.3,2.8-0.3,3.7-0.1c0.4,0.1,0.7,0.3,0.9,0.4
						C589.8,243.4,589.9,243.5,589.8,243.5z"/>
				</g>
			</g>
			<g>
				<g>
					<path class="st6" d="M561.1,268.8c-0.1,0,0.3-1.6-0.1-4.2c-0.2-1.3-0.6-2.8-1.1-4.4c-0.5-1.7-1-3.5-1.3-5.5
						c-0.3-2-0.1-4,0.6-5.6c0.7-1.6,1.7-2.9,2.6-3.8c0.9-1,1.7-1.7,2.2-2.1c0.6-0.5,0.9-0.7,0.9-0.7c0.1,0.1-1.1,1.1-2.8,3.1
						c-0.8,1-1.8,2.2-2.4,3.8c-0.7,1.6-0.8,3.4-0.6,5.4c0.2,1.9,0.8,3.7,1.2,5.4c0.5,1.7,0.8,3.2,1,4.5c0.2,1.3,0.1,2.4,0,3.1
						C561.2,268.4,561.1,268.8,561.1,268.8z"/>
				</g>
			</g>
		</g>
		<g>
			<g>
				<path class="st14" d="M562.1,297.2c0,0-11.4,34.9-15.7,68.6c-4.3,33.7-9.6,80.1-9.6,80.1l15.6,0.3l28.9-90.5l29.5-41.7
					l-2.9-25.4L562.1,297.2z"/>
			</g>
			<g>
				<polyline class="st14" points="563.5,301.4 574.3,390.8 618.5,435.6 628.2,422.2 596.9,372.6 603.9,294.4 561.7,302.4 				"/>
			</g>
			<g>
				<g>
					<path class="st9" d="M593.6,340.2c0,0-0.1,0.2-0.3,0.5c-0.2,0.3-0.5,0.8-0.9,1.3c-0.8,1.1-2.2,2.6-3.9,4.3
						c-1.8,1.7-4,3.7-6,6.2c-2,2.5-3.5,5.8-4.5,9.4c-1.1,3.6-2,7.1-2.7,10.3c-0.7,3.2-1.1,6.1-1.9,8.5c-0.8,2.4-1.5,4.2-1.8,5.5
						c-0.4,1.3-0.6,2.1-0.6,2.1c0,0,0-0.2,0.1-0.6c0.1-0.4,0.2-0.9,0.3-1.6c0.3-1.3,1-3.2,1.7-5.6c0.7-2.3,1.1-5.3,1.8-8.5
						c0.6-3.2,1.6-6.7,2.6-10.3c1.1-3.6,2.6-7,4.7-9.6c2.1-2.6,4.3-4.5,6.1-6.2c1.8-1.7,3.2-3.1,4-4.2
						C593.2,340.8,593.5,340.1,593.6,340.2z"/>
				</g>
			</g>
			<g>
				<g>
					<path class="st9" d="M597.3,372c0.1,0.1-1.7,1-3.2,2.7c-1.6,1.7-2.4,3.4-2.5,3.4c-0.1,0,0.4-2,2.1-3.7
						C595.3,372.5,597.2,371.8,597.3,372z"/>
				</g>
			</g>
			<g>
				<g>
					<path class="st9" d="M596.7,372.5c0,0.2-1.5,0.1-3.3,0.3c-1.8,0.2-3.3,0.5-3.3,0.4c0-0.1,1.4-0.7,3.3-0.9
						C595.2,372.1,596.7,372.4,596.7,372.5z"/>
				</g>
			</g>
		</g>
		<g>
			<g>
				<polygon class="st7" points="526.2,261.2 523.8,271.9 556,273.9 				"/>
			</g>
			<g class="st8">
				<polygon points="526.2,261.2 523.8,271.9 556,273.9 				"/>
			</g>
			<g>
				<g>
					<path class="st9" d="M635.2,292.1c0,0-4.5-3.4-5.1-3.5c-0.5-0.1-3.8,2.5-3.8,2.5s1.1-4.5-0.9-6.7c-1.9-2.3-5-2.3-8.7,0
						c-3.6,2.4-11.1,3.5-11.1,3.5s-1.2-1.8-2.4-3.6c-1.2-1.8-2.6-1.1-7.5-1c-4.9,0.1-17.9-6.9-17.9-6.9s-7.2-5.2-15.9-11.6l2-2.5
						c1.2-1.5,0.9-3.7-0.6-4.9l0,0c-1.5-1.2-3.7-0.9-4.9,0.6l-0.2,0.3c0.5-1,0.2-2.3-0.7-3.1c-1.1-0.9-2.7-0.7-3.5,0.4l-1,1.2
						c0.1-0.8-0.3-1.6-1-2.1c-1-0.8-2.5-0.7-3.4,0.2c-5.1-3.8-9.8-7.4-12.8-9.9c-10.9-8.8-13.6-25.2-13.6-25.2c-4,1-4,3.6-4,6.4
						c0,0.7,0,1.4,0,1.9c-3.1-1.1-6.5-1.3-9.7-0.4c-2.6,0.7-4.9,2.2-6.7,4.2c0.7-1.3,0.7-2.9-0.2-4.2c-1.3-1.9-3.8-2.5-5.7-1.2
						c-1.9,1.3-2.5,3.8-1.2,5.7c1.3,1.9,3.8,2.5,5.7,1.2c0.1-0.1,0.2-0.2,0.3-0.3c-0.8,1.1-1.4,2.2-1.9,3.5
						c-1.5,4.3-0.6,9.4,2.5,12.8l1.5,0.5c-0.8,0.3-1.7,0.5-2.9,0.9c-2.7,0.9-5.2,1.6-4.9,5.8c0,0,16.4-2.3,28.1,5.5
						c3.2,2.1,7.7,5.3,12.7,8.9l-0.2,0.3c-0.9,1.1-0.7,2.7,0.4,3.5c0.7,0.5,1.5,0.7,2.3,0.4l-0.9,1.2c-0.9,1.1-0.7,2.7,0.4,3.5
						c0.9,0.7,2.2,0.7,3.1,0l-0.2,0.3c-1.2,1.5-0.9,3.7,0.6,4.9c1.5,1.2,3.7,0.9,4.9-0.6l3-3.8c8.9,6.5,16.3,12.1,16.3,12.1
						s10.6,10.3,11.9,15c1.3,4.7,1.1,6.2,3.2,6.8c2.1,0.6,4.2,1.2,4.2,1.2s1.2,7.5,0,11.6s-0.2,7.1,2.6,8.3c2.7,1.2,6.7-1.2,6.7-1.2
						s-1.5,3.9-1.2,4.4c0.3,0.5,4.8,3.8,4.8,3.8l19-26.1l-0.8,1.2L635.2,292.1z"/>
				</g>
				<g>
					<g>
						<path class="st6" d="M518.3,225.3c0,0,0.1,0.5,0.1,1.4c0,0.9,0,2.2-0.2,3.7c-0.1,0.8-0.3,1.6-0.7,2.5
							c-0.4,0.9-1.1,1.7-2.1,2.2c-1.9,1-4.4,0.9-6.2,2.4c-0.9,0.7-1.2,1.8-1.2,2.9c0,1.1,0.2,2.2,0.2,3.2c0,1.1-0.2,2.1-0.7,2.9
							c-0.5,0.8-1.2,1.4-1.8,1.9c-1.4,0.8-2.5,1.5-3.3,1.8c-0.8,0.3-1.3,0.4-1.3,0.4c0,0,0.5-0.2,1.2-0.6c0.8-0.4,1.9-1.1,3.2-1.9
							c0.6-0.5,1.2-1,1.7-1.8c0.5-0.8,0.7-1.7,0.6-2.7c0-1-0.2-2.1-0.2-3.3c0-1.1,0.4-2.5,1.4-3.3c1-0.8,2.2-1.2,3.3-1.5
							c1.1-0.3,2.2-0.5,3-1c0.9-0.5,1.5-1.2,1.9-2c0.4-0.8,0.6-1.6,0.8-2.4c0.3-1.5,0.3-2.8,0.4-3.7
							C518.3,225.7,518.3,225.3,518.3,225.3z"/>
					</g>
				</g>
				<g>
					<g>
						<path class="st6" d="M537.9,275.7c-0.1-0.1,0.8-1.1,2.2-2.7c1.4-1.7,3.3-4,5.4-6.6c2-2.6,3.8-5.1,5-6.9c1.2-1.8,2-2.9,2.1-2.9
							c0,0-0.1,0.3-0.4,0.9c-0.3,0.5-0.8,1.3-1.3,2.2c-1.2,1.8-2.9,4.3-4.9,7c-2,2.6-4,4.9-5.5,6.5c-0.7,0.8-1.4,1.4-1.8,1.9
							C538.2,275.5,538,275.7,537.9,275.7z"/>
					</g>
				</g>
				<g>
					<g>
						<path class="st6" d="M558.5,258c0,0-0.2,0.4-0.6,0.9c-0.4,0.6-1,1.4-1.8,2.4c-1.5,2-3.7,4.8-6.1,7.9c-2.4,3.1-4.6,5.8-6.3,7.8
							c-1.6,2-2.7,3.2-2.7,3.1c0,0,0.2-0.3,0.6-0.9c0.5-0.7,1.1-1.5,1.8-2.4c1.6-2,3.7-4.8,6.1-7.9c2.4-3.1,4.6-5.8,6.2-7.8
							c0.8-0.9,1.4-1.7,1.9-2.3C558.2,258.3,558.5,258,558.5,258z"/>
					</g>
				</g>
				<g>
					<g>
						<path class="st6" d="M548.9,281.5c-0.1-0.1,0.7-1,2-2.4c1.3-1.5,3-3.5,4.8-5.9c1.8-2.3,3.3-4.5,4.4-6.1
							c1.1-1.6,1.8-2.6,1.8-2.6c0.1,0-0.5,1.1-1.5,2.8c-1,1.7-2.5,3.9-4.3,6.2c-1.8,2.4-3.6,4.4-4.9,5.8
							C549.8,280.8,548.9,281.6,548.9,281.5z"/>
					</g>
				</g>
				<g>
					<g>
						<path class="st6" d="M627.9,288.6c0,0-0.1,0.2-0.3,0.5c-0.3,0.4-0.6,0.8-1,1.3c-0.9,1.2-2.2,2.9-3.8,4.9
							c-3.2,4.1-7.6,9.8-12.3,16.3c-4.7,6.4-8.9,12.3-11.9,16.6c-1.5,2.1-2.7,3.8-3.5,5.1c-0.4,0.6-0.7,1-1,1.4
							c-0.2,0.3-0.4,0.5-0.4,0.5c0,0,0.1-0.2,0.3-0.5c0.2-0.4,0.5-0.8,0.9-1.4c0.8-1.2,1.9-3,3.4-5.2c2.9-4.3,7-10.3,11.8-16.7
							c4.7-6.4,9.2-12.1,12.4-16.2c1.6-2,3-3.7,3.9-4.8c0.4-0.5,0.8-0.9,1.1-1.3C627.7,288.7,627.9,288.6,627.9,288.6z"/>
					</g>
				</g>
			</g>
			<g>
				<g>
					<path class="st11" d="M513.2,252.5c-0.2-0.8,0-1.7,0.9-1.8l0,0c0.5,0.1,0.8,0.6,0.9,0.9l2.2,7.7l0,0l-1.1-5.8
						c-0.2-0.8,0.1-1.7,0.8-1.6c0.4,0.1,0.7,0.6,0.8,0.9l1.8,6.5l-0.8-4.2c-0.2-1,0-1.4,0.5-1.5c0.5-0.1,0.9,0.5,1,0.8l1.4,4.7
						c0.7,0.6,3.2,2.4,3.2,4.3c0,0.1,0.3,0.2,0.3,0.3l0.7,0.2l-1,4.1c0,0-6.5-4.5-8.2-6.1c-1.5-1.3-1.8-2.6-2-3.3L513.2,252.5z"/>
				</g>
			</g>
		</g>
		<g>
			<g>
				<g>
					<path class="st6" d="M567.2,182.8c-2.6,2.3-3.2,6.1-3.1,9.6c0.1,3.5,0.6,7-0.3,10.4c-0.4,1.6-1.2,3-1.6,4.6
						c-0.4,1.6-0.5,3.3,0.4,4.7c1.4,2,4.2,2.3,6.6,2.4c1.8,0,3.7,0.1,5.5,0.1c0.6,0,1.3,0,1.7-0.4c0.4-0.4,0.5-1.1,0.5-1.7
						c0.1-9.8-1-19.6-3-29.2"/>
				</g>
				<g>
					<g>
						<g>
							<g>
								<g>
									<g>
										<path class="st11" d="M593.3,186l0,2.5l-0.5,37.5c-0.1,4.3-3.8,7.8-8.5,7.7h0c-4.7-0.1-8.5-3.7-8.5-8.1
											c0-4.6-0.1-9.5-0.1-9.5s-5.9-1-7.2-8.7c-0.6-3.9-0.4-10.2-0.1-15.3c0.3-4.7,4.4-8.1,9-7.6L593.3,186z"/>
									</g>
								</g>
								<g>
									<g>
										<g>
											<path class="st6" d="M570,196.3c0,0.5,0.4,1,1,1c0.5,0,1-0.4,1-0.9c0-0.5-0.4-1-1-1C570.4,195.4,570,195.8,570,196.3z"/>
										</g>
									</g>
									<g>
										<g>
											<g>
												<path class="st6" d="M569.7,195.2c0.1,0.1,0.9-0.4,1.9-0.4c1.1,0,1.9,0.5,2,0.4c0.1-0.1-0.1-0.3-0.4-0.5
													c-0.3-0.2-0.9-0.5-1.6-0.5c-0.7,0-1.2,0.2-1.5,0.5C569.8,194.9,569.7,195.2,569.7,195.2z"/>
											</g>
										</g>
									</g>
								</g>
								<g>
									<g>
										<g>
											<path class="st6" d="M580.7,196.3c0,0.5,0.4,1,1,1c0.5,0,1-0.4,1-0.9c0-0.5-0.4-1-1-1
												C581.1,195.4,580.7,195.8,580.7,196.3z"/>
										</g>
									</g>
									<g>
										<g>
											<g>
												<path class="st6" d="M580.3,195.4c0.1,0.1,0.9-0.4,1.9-0.4c1.1,0,1.9,0.5,2,0.4c0.1-0.1-0.1-0.3-0.4-0.5
													c-0.3-0.2-0.9-0.5-1.6-0.5c-0.7,0-1.2,0.2-1.5,0.5C580.3,195.1,580.2,195.4,580.3,195.4z"/>
											</g>
										</g>
									</g>
								</g>
								<g>
									<g>
										<g>
											<path class="st6" d="M576.4,203.3c0-0.1-0.7-0.2-1.7-0.3c-0.3,0-0.5-0.1-0.6-0.3c-0.1-0.2,0.1-0.5,0.2-0.8
												c0.3-0.7,0.5-1.4,0.8-2.1c1.1-3,1.9-5.4,1.8-5.4c-0.1,0-1.1,2.3-2.2,5.3c-0.3,0.7-0.5,1.4-0.8,2.1
												c-0.1,0.3-0.3,0.7-0.1,1.1c0.1,0.2,0.3,0.4,0.4,0.4c0.2,0.1,0.3,0.1,0.5,0.1C575.7,203.4,576.4,203.4,576.4,203.3z"/>
										</g>
									</g>
								</g>
								<g>
									<g>
										<path class="st15" d="M575.6,216c0,0,5.2,0.3,10.4-2.8c0,0-2.5,5.3-10.3,4.6L575.6,216z"/>
									</g>
								</g>
								<g>
									<g>
										<path class="st15" d="M576.8,205.9c0.4-0.5,1.1-0.8,1.7-0.7c0.5,0.1,0.9,0.3,1.2,0.7c0.3,0.4,0.3,0.9,0.1,1.3
											c-0.3,0.4-0.9,0.5-1.4,0.4c-0.5-0.1-1-0.5-1.4-0.8c-0.1-0.1-0.2-0.2-0.3-0.3C576.7,206.2,576.7,206.1,576.8,205.9"/>
									</g>
								</g>
								<g>
									<g>
										<g>
											<path class="st6" d="M579.5,204.1c-0.2,0-0.2,1.2-1.2,2c-1,0.8-2.2,0.7-2.2,0.9c0,0.1,0.3,0.2,0.8,0.2
												c0.5,0,1.3-0.1,1.9-0.7c0.6-0.5,0.9-1.2,0.9-1.7C579.7,204.4,579.6,204.1,579.5,204.1z"/>
										</g>
									</g>
								</g>
							</g>
						</g>
					</g>
				</g>
			</g>
			<g>
				<g>
					<path class="st6" d="M603.2,203.7c-0.5-2.2-0.6-4.5-0.9-6.7c-0.5-4.4-1.8-8.8-4.2-12.5c-1.6-2.4-3.8-4.5-6.3-5.9
						c1.6-0.7,3.1-2.1,3.5-3.8c0.6-2.2-0.6-4.8-2.7-5.7c-2.1-0.9-4.8-0.2-6.1,1.7c-1.2,1.8-1,4.4,0.5,6c-2.2-0.4-4.4-0.2-6.5,0.4
						c-0.2,0-0.4,0-0.6,0c-2.6,0.2-5.2-0.2-7.7,0.6c-2.4,0.8-4.8,2.4-5.9,4.7c-1.3,2.6-1.1,5.6-0.8,8.5c0.1,0.8,0.2,1.7,0.9,2.2
						c0.5,0.4,1.2,0.4,1.8,0.4c1.8,0,3.6,0,5.4,0c1.3,0,2.6,0,3.6-0.7c0.5-0.3,1-0.9,1.2-1.5c0.4,0.9,1.3,1.7,2.2,2
						c1.5,0.6,3.2,0.4,4.8,0.3c1-0.1,2.2-0.3,3.1-0.7c0.1,5,0.3,10.1,0.4,15.1c0,0.8,0.1,1.7,0.5,2.4c0.7,1,2,1.3,3.2,1.4
						c1.7,0.1,3.4,0.1,4.8-0.8c1.2-0.7,1.9-2.2,1.7-3.5c0.5,1.2,1.6,2.3,2.9,2.7c1.5,0.5,3.3,0.1,4.5-1
						C604.8,208.1,603.7,205.9,603.2,203.7z"/>
				</g>
				<g>
					<g>
						<path class="st9" d="M580.4,177.8c0,0.1-1.4-0.3-3.6,0c-2.2,0.3-5.2,1.4-7.4,4c-2.2,2.6-2.7,5.8-2.6,8
							c0.1,2.2,0.8,3.5,0.7,3.5c0,0-0.2-0.3-0.4-0.9c-0.2-0.6-0.5-1.5-0.6-2.6c-0.2-2.2,0.3-5.6,2.5-8.4c2.3-2.7,5.5-3.8,7.8-4
							c1.1-0.1,2.1,0,2.7,0.1C580,177.6,580.4,177.7,580.4,177.8z"/>
					</g>
				</g>
				<g>
					<g>
						<path class="st9" d="M574.2,193.1c0,0-0.2-0.2-0.4-0.6c-0.2-0.4-0.4-1-0.6-1.8c-0.4-1.6-0.5-4,0.4-6.3
							c0.9-2.4,2.4-4.2,3.7-5.1c0.7-0.5,1.2-0.8,1.6-1c0.4-0.2,0.7-0.3,0.7-0.2c0,0.1-0.9,0.5-2.1,1.6c-1.2,1-2.7,2.8-3.5,5
							c-0.8,2.3-0.8,4.5-0.5,6.1C573.9,192.1,574.3,193,574.2,193.1z"/>
					</g>
				</g>
				<g>
					<g>
						<path class="st9" d="M578,188.2c-0.1,0-0.4-0.5-0.7-1.6c-0.3-1-0.4-2.5-0.1-4.1c0.4-1.6,1.1-2.9,1.8-3.7
							c0.7-0.8,1.2-1.2,1.3-1.1c0.1,0.1-0.4,0.5-1,1.3c-0.6,0.8-1.3,2.1-1.6,3.6c-0.3,1.5-0.3,2.9-0.1,3.9
							C577.8,187.6,578.1,188.2,578,188.2z"/>
					</g>
				</g>
			</g>
		</g>
		<g>
			<g>
				<path class="st3" d="M613.6,240.8c-0.1,0.1-0.9-0.9-2.6-2.1c-1.6-1.2-4.2-2.6-7.3-3.1c-3.1-0.5-5.9-0.1-7.9,0.4
					c-2,0.6-3.1,1.2-3.1,1.1c0,0,0.2-0.2,0.8-0.5c0.5-0.3,1.3-0.6,2.3-1c2-0.7,4.9-1.2,8.1-0.6c3.2,0.6,5.8,2,7.4,3.3
					c0.8,0.7,1.4,1.2,1.8,1.7C613.5,240.6,613.6,240.8,613.6,240.8z"/>
			</g>
		</g>
		<g>
			<g>
				<g>
					<g>
						<g>
							<path class="st13" d="M547.2,265.9l-4.8,16.3c0,0,23.6,9.6,37.1,9.4c12.7-0.2,16.6-4.3,21.5-12.5
								c5.8-9.6,10.2-21.8,11.3-28.6c0,0,7.2-31.2-20.2-28.4l-0.7,24.4c0,0-3,10-3.2,10.6c-2,5.4-4.7,13.3-7.2,14.3
								C578.4,272.3,547.2,265.9,547.2,265.9z"/>
						</g>
					</g>
				</g>
				<g>
					<g>
						<path class="st6" d="M547.2,265.9c0,0,0.2,0,0.7,0.1c0.5,0.1,1.1,0.2,1.9,0.3c1.7,0.3,4.1,0.8,7.1,1.4c3,0.6,6.6,1.5,10.6,2.2
							c4,0.7,8.6,1.3,13.4,1.2l-0.2,0.2c0.5-1.3,1-2.7,1.6-4.2c3.6-10.1,6.4-19.4,8.7-26c1.1-3.3,2.1-6,2.8-7.8
							c0.3-0.9,0.6-1.6,0.8-2.1c0.2-0.5,0.3-0.7,0.3-0.7c0,0-0.1,0.3-0.2,0.8c-0.2,0.5-0.4,1.2-0.8,2.1c-0.7,1.8-1.6,4.5-2.7,7.9
							c-2.2,6.7-4.9,15.9-8.5,26c-0.5,1.4-1.1,2.9-1.6,4.2l-0.1,0.2l-0.2,0c-4.9,0.1-9.4-0.5-13.5-1.2c-4.1-0.8-7.6-1.6-10.6-2.3
							c-3-0.7-5.4-1.2-7.1-1.6c-0.8-0.2-1.4-0.3-1.9-0.4C547.4,266,547.2,265.9,547.2,265.9z"/>
					</g>
				</g>
				<g>
					<g>
						<path class="st6" d="M542.4,282.2c0,0,0.3,0.1,0.8,0.2c0.5,0.2,1.3,0.4,2.2,0.7c1.9,0.6,4.6,1.5,8.1,2.5c3.4,1,7.6,2,12.1,3.1
							c4.6,1.1,9.6,2.3,15.1,2.6c1.4,0,2.7,0,4-0.1c1.3-0.1,2.6-0.4,3.8-0.8c2.4-0.8,4.5-2.2,6.2-3.8c3.5-3.2,5.7-6.8,7.5-9.9
							c1.7-3.1,2.9-5.8,3.7-7.6c0.4-0.9,0.7-1.6,1-2.1c0.2-0.5,0.3-0.7,0.4-0.7s-0.1,0.3-0.3,0.8c-0.2,0.5-0.5,1.2-0.9,2.1
							c-0.8,1.8-1.9,4.5-3.6,7.7c-1.7,3.1-3.9,6.9-7.5,10.1c-1.8,1.6-3.9,3-6.4,3.9c-1.2,0.4-2.5,0.7-3.9,0.8
							c-1.3,0.2-2.7,0.2-4.1,0.1c-5.5-0.3-10.6-1.5-15.2-2.7c-4.6-1.2-8.7-2.2-12.1-3.3c-3.4-1-6.2-1.9-8.1-2.6
							c-0.9-0.3-1.7-0.6-2.1-0.8C542.7,282.3,542.4,282.2,542.4,282.2z"/>
					</g>
				</g>
				<g class="st16">
					<g>
						<path d="M560.5,268.5c4.7,0.1,9.3,0.2,14,0.3c1.1,0,2.3,0,3.3-0.4c1.5-0.6,2.4-2.1,3.2-3.4c2.5-4,4.7-8.2,6.7-12.5
							c0,0-3.7,11.7-6,16.8c-0.7,1.5-1.7,1.9-3.3,1.7C572.3,271,566.3,270.2,560.5,268.5z"/>
					</g>
				</g>
				<g class="st16">
					<path d="M602.7,276.8c0,0-4.7,18-16.8,17.6c-12.1-0.4-23.6-5.6-23.6-5.6l0.5-0.6c0,0,20.6,4.4,26.3,1.6
						C600,284.6,602.7,276.8,602.7,276.8z"/>
				</g>
				<g>
					<g>
						<g>
							<g>
								<path class="st11" d="M542.9,280.5l-3.8,0c-3.5-0.3-5.4-0.4-6.4-1.3c-1.3-1.2,0.5-2.5,0.5-2.5s-2.5-0.9-2.3-2.4
									c0.2-1,1.4-1.2,1.4-1.2s-2.2-0.9-2.7-1.8c-0.6-1.3,1-1.9,1-1.9c-3-1.9-2.8-3.7-2.1-3.9c0.7-0.2,3.1,0.9,3.1,0.9
									c2,0.6,7.4,2.2,5.4-0.8c-2-3-2.4-6.1-2-7c0.5-0.9,1.9-0.6,2.1,0.5c0.1,0.9,0.8,2.3,1.4,3.4c0.5,0.9,1.1,1.6,1.8,2.3
									c0.9,0.8,1.6,1.4,2.3,1.9l3.4,3.3L542.9,280.5z"/>
							</g>
						</g>
					</g>
				</g>
			</g>
			<g>
				<g>
					<path class="st3" d="M608.1,266.1c0,0.1-1.3-0.5-3.4-1.2c-2.1-0.7-5-1.5-8.4-1.8c-3.3-0.3-6.4-0.1-8.6,0.2
						c-2.2,0.3-3.5,0.7-3.5,0.6c0,0,0.3-0.2,0.9-0.3c0.6-0.2,1.5-0.4,2.6-0.6c2.2-0.4,5.3-0.7,8.7-0.4c3.4,0.3,6.4,1.1,8.4,2
						c1,0.4,1.9,0.8,2.4,1.1C607.8,265.9,608.1,266.1,608.1,266.1z"/>
				</g>
			</g>
			<g>
				<g>
					<path class="st3" d="M580.3,291.4c-0.1,0,0.7-1,0.7-2.9c0-0.9-0.2-2-0.6-3.2c-0.4-1.2-1.1-2.4-1.9-3.6c-0.8-1.2-1.5-2.5-2-3.6
						c-0.5-1.2-0.7-2.3-0.8-3.3c0-1,0.1-1.8,0.3-2.3c0.2-0.5,0.4-0.8,0.4-0.7c0.1,0-0.5,1.1-0.4,3c0.1,0.9,0.4,2,0.9,3.2
						c0.5,1.1,1.2,2.3,2,3.6c0.8,1.3,1.5,2.5,1.9,3.7c0.4,1.2,0.6,2.4,0.5,3.4c-0.1,1-0.3,1.8-0.6,2.2
						C580.6,291.2,580.3,291.5,580.3,291.4z"/>
				</g>
			</g>
			<g>
				<g>
					<path class="st3" d="M554.4,285.3c-0.1,0,0-0.9,0.2-2.4c0.2-1.5,0.6-3.5,1.2-5.8c0.6-2.2,1.2-4.2,1.7-5.6
						c0.5-1.4,0.9-2.3,1-2.2c0.1,0-0.2,0.9-0.6,2.4c-0.4,1.4-1,3.4-1.6,5.6c-0.6,2.2-1,4.2-1.3,5.7
						C554.7,284.4,554.5,285.3,554.4,285.3z"/>
				</g>
			</g>
			<g>
				<g>
					<path class="st3" d="M606.8,226.3c0,0,0.1,0.3,0.3,1c0.1,0.7,0.2,1.7,0.1,3c-0.1,1.3-0.6,2.8-1.2,4.6c-0.6,1.7-1.4,3.6-2,5.8
						c-1.4,4.4-2.3,9.8-3.7,15.7c-0.7,3-1.5,6.1-2.7,9.2c-1.2,3.1-2.8,6.2-5.1,8.9c-2.3,2.7-5,5-8.1,6.4c-3.1,1.4-6.4,1.8-9.4,1.6
						c-3.1-0.2-5.9-0.8-8.5-1.5c-2.6-0.7-5-1.4-7.2-2.2c-4.4-1.5-7.8-2.9-10.2-3.9c-1.2-0.5-2.1-1-2.7-1.3c-0.3-0.1-0.5-0.3-0.7-0.3
						c-0.2-0.1-0.2-0.1-0.2-0.1c0,0,0.1,0,0.2,0.1c0.2,0.1,0.4,0.2,0.7,0.3c0.7,0.3,1.6,0.7,2.7,1.2c2.4,1,5.8,2.4,10.2,3.8
						c2.2,0.7,4.6,1.4,7.2,2.1c2.6,0.7,5.4,1.3,8.5,1.4c3,0.2,6.2-0.2,9.2-1.6c3-1.3,5.7-3.6,7.9-6.2c2.2-2.7,3.8-5.7,5-8.8
						c1.2-3.1,2-6.1,2.8-9.1c1.4-5.9,2.4-11.3,3.8-15.7c0.7-2.2,1.5-4.1,2.1-5.8c0.6-1.7,1.1-3.2,1.3-4.5
						C607.3,227.7,606.7,226.3,606.8,226.3z"/>
				</g>
			</g>
		</g>
	</g>
</g>
<g id="Character_1">
	<g>
		<g>
			<g>
				<path class="st11" d="M284,202.7c0.4,0.8,0.4,1.8,0,2.6L263,242.6c-3.8,6-11.6,8-17.7,4.5l-11.7-6.6l8.1-14.1l8.7,5.2l21-27.8
					c0.1-0.5,0.3-2.1,0.3-4.7c0-0.8-0.2-1.6-0.4-2.3c-0.3-0.9-0.8-2.1-1.3-2.7c-0.6-0.7,0-1.8,0.8-1.6c0.8,0.2,2.5,2.1,3.2,5
					c0.8,2.9,2.7-1.4,3.4-2.9c0.7-1.5,3.2-6.2,3.8-6.3c0.9-0.2,1.4,0.8,0.6,2.3c-0.8,1.5-2.7,6.2-1.9,6.6c0,0,1.5,0.3,1.8,1.2
					L284,202.7z"/>
			</g>
			<g>
				<g>
					<path class="st15" d="M281.4,197.9c0.1,0-0.1,0.7-0.4,1.8c-0.2,0.6-0.4,1.2-0.6,1.9c-0.1,0.4-0.2,0.7-0.4,1.1
						c-0.1,0.2-0.1,0.4-0.3,0.6c-0.2,0.3-0.7,0.2-0.9,0.1c-0.2-0.1-0.4-0.2-0.6-0.4c-0.2-0.1-0.4-0.3-0.4-0.6
						c-0.1-0.6,0.2-0.9,0.3-1.3c0.2-0.6,0.5-1.2,0.7-1.8c0.4-1,0.7-1.7,0.8-1.6c0.1,0-0.1,0.7-0.4,1.8c-0.2,0.6-0.4,1.2-0.6,1.9
						c-0.1,0.3-0.3,0.7-0.2,1c0,0.2,0.4,0.5,0.7,0.7c0.2,0.1,0.2,0.1,0.3,0c0.1-0.1,0.2-0.3,0.2-0.4c0.1-0.4,0.3-0.7,0.4-1.1
						c0.2-0.6,0.5-1.2,0.7-1.8C281,198.5,281.3,197.9,281.4,197.9z"/>
				</g>
			</g>
			<g>
				<g>
					<path class="st15" d="M282.1,201.1c0.1,0-0.1,0.6-0.4,1.6c-0.2,0.6-0.4,1.1-0.5,1.7l-0.2,0.5c-0.1,0.2-0.1,0.4-0.4,0.6
						c-0.2,0.2-0.6,0.1-0.8,0c-0.2-0.1-0.4-0.2-0.5-0.3c-0.2-0.1-0.3-0.3-0.4-0.5c-0.1-0.2-0.1-0.5,0-0.7c0.1-0.4,0.2-0.7,0.4-1
						c0.2-0.6,0.4-1.1,0.7-1.6c0.4-0.9,0.7-1.5,0.7-1.5c0.1,0-0.1,0.6-0.4,1.6c-0.2,0.6-0.4,1.1-0.6,1.7c-0.1,0.3-0.2,0.7-0.3,1
						c-0.1,0.3,0,0.5,0.3,0.7c0.3,0.2,0.6,0.4,0.7,0.3c0.1-0.1,0.3-0.5,0.4-0.8c0.2-0.6,0.4-1.1,0.6-1.6
						C281.8,201.6,282.1,201,282.1,201.1z"/>
				</g>
			</g>
			<g>
				<g>
					<path class="st15" d="M283.5,202.8c0.1,0-0.1,0.6-0.4,1.6c-0.2,0.6-0.4,1.1-0.5,1.7l-0.2,0.5c-0.1,0.2-0.1,0.4-0.4,0.6
						c-0.2,0.2-0.6,0.1-0.8,0c-0.2-0.1-0.4-0.2-0.5-0.3c-0.2-0.1-0.3-0.3-0.4-0.5c-0.1-0.2-0.1-0.5,0-0.7c0.1-0.4,0.2-0.7,0.4-1
						c0.2-0.6,0.4-1.1,0.7-1.6c0.4-0.9,0.7-1.5,0.7-1.5c0.1,0-0.1,0.6-0.4,1.6c-0.2,0.6-0.4,1.1-0.6,1.7c-0.1,0.3-0.2,0.7-0.3,1
						c-0.1,0.3,0,0.5,0.3,0.7c0.3,0.2,0.6,0.4,0.7,0.3c0.1-0.1,0.3-0.5,0.4-0.8c0.2-0.6,0.4-1.1,0.6-1.6
						C283.2,203.4,283.5,202.8,283.5,202.8z"/>
				</g>
			</g>
			<g>
				<g>
					<path class="st15" d="M277.2,206.5c-0.2,0,0.2-1.4-0.4-3.1c-0.5-1.6-1.6-2.6-1.5-2.7c0-0.1,0.4,0.1,0.8,0.5
						c0.4,0.4,0.9,1.1,1.2,2c0.3,0.9,0.3,1.7,0.2,2.3C277.5,206.2,277.3,206.5,277.2,206.5z"/>
				</g>
			</g>
		</g>
		<g>
			<g>
				<g>
					<path class="st6" d="M210.9,154.2c-2.5-2.6-6.6-3.3-9.8-1.8c-1.5,0.7-2.8,1.8-4.4,2.2c-1.9,0.5-3.9-0.1-5.8-0.3
						c-2-0.2-4.3,0-5.3,1.7c-0.7,1.1-0.7,2.5-1.6,3.4c-1.2,1.2-3.3,0.7-5,1.2c-1.6,0.5-2.9,2-3.2,3.7c-0.3,1.7,0.4,3.5,1.6,4.7
						c0.7,0.7,1.6,1.3,2,2.1c0.5,1.2,0.1,2.5-0.1,3.8c-0.2,1.3,0,2.8,1.1,3.4c0.6,0.3,1.4,0.2,1.9-0.2c0.5-0.4,0.7-1.2,0.5-1.8
						l24.2-7.8c3.7,0,4.8-3.3,5.4-4.4C214.1,160.9,213.4,156.7,210.9,154.2z"/>
				</g>
				<g>
					<g>
						<g>
							<g>
								<g>
									<path class="st11" d="M182.1,162.6l0.1,2.6l0.5,39.2c0.1,4.6,4,8.1,8.9,8h0c4.9-0.1,8.9-3.9,8.9-8.5c0-4.8,0.1-9.9,0.1-9.9
										s6.2-1,7.5-9.1c0.6-4,0.4-10.7,0.1-16.1c-0.3-4.9-4.6-8.5-9.5-8L182.1,162.6z"/>
								</g>
							</g>
							<g>
								<g>
									<g>
										<path class="st6" d="M206.6,173.4c0,0.5-0.4,1-1,1.1c-0.6,0-1.1-0.4-1.1-0.9c0-0.5,0.4-1,1-1.1
											C206.1,172.5,206.5,172.9,206.6,173.4z"/>
									</g>
								</g>
								<g>
									<g>
										<g>
											<path class="st6" d="M206.8,172.3c-0.1,0.1-0.9-0.4-2-0.4c-1.1,0-1.9,0.6-2.1,0.4c-0.1-0.1,0.1-0.3,0.4-0.6
												c0.4-0.3,1-0.5,1.7-0.5c0.7,0,1.3,0.3,1.6,0.5C206.7,172,206.8,172.2,206.8,172.3z"/>
										</g>
									</g>
								</g>
							</g>
							<g>
								<g>
									<g>
										<path class="st6" d="M195.3,173.4c0,0.5-0.4,1-1,1.1c-0.6,0-1.1-0.4-1.1-0.9c0-0.5,0.4-1,1-1.1
											C194.8,172.5,195.3,172.9,195.3,173.4z"/>
									</g>
								</g>
								<g>
									<g>
										<g>
											<path class="st6" d="M195.8,172.5c-0.1,0.1-0.9-0.4-2-0.4c-1.1,0-1.9,0.6-2.1,0.4c-0.1-0.1,0.1-0.3,0.4-0.6
												c0.4-0.3,1-0.5,1.7-0.5c0.7,0,1.3,0.3,1.6,0.5C195.7,172.2,195.8,172.4,195.8,172.5z"/>
										</g>
									</g>
								</g>
							</g>
							<g>
								<g>
									<g>
										<path class="st6" d="M199.8,180.8c0-0.1,0.7-0.2,1.8-0.3c0.3,0,0.6-0.1,0.6-0.3c0.1-0.2-0.1-0.5-0.2-0.8
											c-0.3-0.7-0.6-1.4-0.8-2.2c-1.2-3.1-2-5.6-1.9-5.7c0.1,0,1.2,2.4,2.4,5.5c0.3,0.8,0.6,1.5,0.8,2.2
											c0.1,0.3,0.3,0.7,0.1,1.1c-0.1,0.2-0.3,0.4-0.5,0.4c-0.2,0.1-0.3,0.1-0.5,0.1C200.5,180.9,199.8,180.9,199.8,180.8z"/>
									</g>
								</g>
							</g>
							<g>
								<g>
									<path class="st15" d="M200.6,194c0,0-5.5,0.4-10.9-2.9c0,0,2.6,5.6,10.8,4.8L200.6,194z"/>
								</g>
							</g>
							<g>
								<g>
									<g>
										<path class="st6" d="M196.5,181.6c0.2,0,0.2,1.2,1.2,2.1c1,0.9,2.3,0.7,2.3,0.9c0,0.1-0.3,0.2-0.8,0.3
											c-0.5,0-1.3-0.2-2-0.7c-0.6-0.5-0.9-1.2-0.9-1.7C196.3,181.9,196.5,181.6,196.5,181.6z"/>
									</g>
								</g>
							</g>
						</g>
					</g>
				</g>
				<g>
					<g>
						<path class="st6" d="M196.1,168.1c-0.1,0.3-1.2,0.2-2.5,0.3c-1.3,0.1-2.4,0.5-2.6,0.2c-0.1-0.1,0.1-0.4,0.5-0.7
							c0.4-0.3,1.1-0.6,1.9-0.7c0.8-0.1,1.5,0,2,0.2C195.9,167.7,196.1,168,196.1,168.1z"/>
					</g>
				</g>
				<g>
					<g>
						<path class="st6" d="M206.4,169c-0.2,0.3-1,0-1.9,0c-0.9,0-1.7,0.2-1.9-0.1c-0.1-0.1,0-0.4,0.4-0.6c0.3-0.2,0.9-0.4,1.5-0.4
							c0.6,0,1.2,0.3,1.5,0.5C206.3,168.7,206.5,168.9,206.4,169z"/>
					</g>
				</g>
				<g>
					<g>
						<path class="st6" d="M208.5,165.2c0,0-4.1,2.2-9.7-0.4c-3.7-1.7-7.9-2.4-8.8-1.7c-0.9,0.8-1,4.5-4.5,5.7c0,0,0.5,7.1-2.4,6.9
							c-2.8-0.2-2.4-14.3-2.4-14.3l7.8-0.4l7.5-1.7l7.1,0.8l5.5,1.3L208.5,165.2z"/>
					</g>
				</g>
				<g>
					<g>
						<g>
							<path class="st6" d="M180.6,159.4c0-0.1,0.6-0.4,1.4-0.1c0.8,0.3,1.1,0.9,1,1c-0.1,0.1-0.5-0.3-1.2-0.6
								C181.2,159.5,180.6,159.5,180.6,159.4z"/>
						</g>
					</g>
				</g>
				<g>
					<g>
						<g>
							<path class="st6" d="M182.9,157c0.1,0,0.1,0.8,0.2,1.8c0.1,1,0.6,1.7,0.5,1.7c-0.1,0.1-0.7-0.6-0.9-1.7
								C182.6,157.8,182.8,157,182.9,157z"/>
						</g>
					</g>
				</g>
			</g>
			<g>
				<g>
					<g>
						<g>
							<path class="st11" d="M183.3,172.8c-0.1-0.1-4.7-1.6-4.7,3.1c0,4.7,4.7,3.8,4.7,3.7C183.3,179.5,183.3,172.8,183.3,172.8z"/>
						</g>
					</g>
				</g>
				<g>
					<g>
						<g>
							<g>
								<path class="st15" d="M181.9,177.8c0,0-0.1,0.1-0.2,0.1c-0.1,0.1-0.4,0.1-0.6,0c-0.5-0.2-0.9-1-0.9-1.8
									c0-0.4,0.1-0.8,0.2-1.2c0.1-0.3,0.4-0.6,0.6-0.6c0.3-0.1,0.4,0.1,0.5,0.2c0.1,0.1,0,0.2,0.1,0.2c0,0,0.1-0.1,0.1-0.3
									c0-0.1-0.1-0.2-0.2-0.3c-0.1-0.1-0.3-0.1-0.5-0.1c-0.4,0-0.7,0.4-0.9,0.7c-0.2,0.4-0.3,0.8-0.3,1.3c0,1,0.5,1.9,1.2,2.1
									c0.3,0.1,0.6,0,0.8-0.1C181.9,177.9,181.9,177.8,181.9,177.8z"/>
							</g>
						</g>
					</g>
				</g>
			</g>
		</g>
		<g>
			<g>
				<g>
					<path class="st7" d="M201.9,204.2c3.5,0.2,9.3,0.7,20.8,7.4c2.5,1.5,28.4,18.8,28.4,18.8l-11.5,14.7l-21.1-11.9l2.8,25.3
						l3.2,30l-51.1-0.6l-1.3-30.2l-0.4-20.5l-3.2,27.4l-20.2-1.9l5.6-36.1c0.7-4.4,2.4-8.6,5.3-12c3.5-4.1,7.9-6.5,13-8.4
						c2.2-0.8,6.6-1.6,9.5-1.7l-0.2-6c0,0,9.1,0.9,11.5,6.7c0,0,3-6.9,8.9-7.5L201.9,204.2z"/>
				</g>
				<g>
					<g>
						<path class="st3" d="M188.2,286.6c-0.1,0-0.8-0.9-1.4-3c-0.7-2-1-5.2-0.9-8.9c0.1-1.9,0.2-3.9,0.3-6.1
							c0.1-2.2,0.1-4.5-0.1-6.9c-0.4-4.9-1.5-10.2-2.7-15.8c-1.2-5.6-2.2-11-2.4-16.1c-0.1-5,0.3-9.5,0.1-13.2
							c-0.2-3.7-0.9-6.6-1.7-8.5c-0.8-1.9-1.4-2.9-1.3-3c0.1-0.1,0.9,0.8,1.9,2.7c1,1.9,1.9,4.9,2.2,8.7c0.4,3.8,0.1,8.3,0.3,13.2
							c0.2,4.9,1.2,10.2,2.4,15.8c1.2,5.6,2.3,11,2.7,16c0.2,2.5,0.2,4.9,0,7.1c-0.2,2.2-0.3,4.2-0.5,6.1c-0.3,3.7-0.1,6.7,0.3,8.7
							C187.8,285.5,188.3,286.5,188.2,286.6z"/>
					</g>
				</g>
				<g>
					<g>
						<path class="st3" d="M209.3,288c-0.1,0-0.3-1.1-0.5-3.2c-0.2-2.1-0.6-5.1-0.9-8.8c-0.8-7.5-2-17.7-3.6-29
							c-0.8-5.7-1.7-11-2.5-15.9c-0.8-4.9-1.6-9.3-2.1-13c-0.5-3.7-0.6-6.8-0.5-8.9c0.1-2.1,0.2-3.3,0.3-3.3c0.2,0,0.1,4.7,1.3,12
							c0.6,3.7,1.5,8.1,2.4,12.9c0.9,4.9,1.8,10.3,2.7,15.9c1.7,11.3,2.7,21.7,3.2,29.2c0.3,3.7,0.4,6.8,0.5,8.9
							C209.4,286.9,209.4,288,209.3,288z"/>
					</g>
				</g>
				<g>
					<g>
						<path class="st3" d="M208.1,205.1c0.1,0,0.2,1.2,0.5,3.2c0.3,2.1,1.1,5,2.2,8.6c0.5,1.8,1.2,3.8,1.7,6
							c0.5,2.2,0.9,4.6,1.1,7.1c0.4,5,0.4,10.5,0.7,16.2c0.6,11.5,1.7,21.8,2.5,29.3c0.4,3.8,0.7,6.8,0.9,8.9
							c0.2,2.1,0.2,3.3,0.1,3.3c-0.1,0-0.4-1.1-0.7-3.2c-0.4-2.1-0.8-5.1-1.4-8.8c-1-7.5-2.3-17.8-2.9-29.4
							c-0.3-5.8-0.2-11.3-0.6-16.2c-0.2-2.5-0.5-4.8-0.9-6.9c-0.4-2.1-1-4.1-1.5-6c-1-3.6-1.6-6.7-1.7-8.8
							C207.9,206.3,208,205.1,208.1,205.1z"/>
					</g>
				</g>
				<g>
					<g>
						<path class="st3" d="M200.1,204.9c-0.4-0.1-0.5-1.4-0.9-2.7c-0.4-1.3-1-2.5-0.7-2.8c0.2-0.1,0.5,0,1,0.4
							c0.4,0.4,0.9,1.1,1.2,2c0.2,0.9,0.2,1.8,0,2.3C200.5,204.6,200.3,204.9,200.1,204.9z"/>
					</g>
				</g>
				<g>
					<g>
						<path class="st3" d="M184,205.4c-0.2,0.1-0.5-0.2-0.8-0.9c-0.3-0.6-0.3-1.6-0.1-2.6c0.3-1,0.9-1.8,1.4-2.2
							c0.5-0.4,1-0.5,1.1-0.3c0.3,0.4-0.6,1.4-1,3C184.1,203.8,184.4,205.2,184,205.4z"/>
					</g>
				</g>
				<g>
					<g>
						<path class="st3" d="M199.9,287.6c-0.1,0,0.1-1.2,0-3.2c-0.1-2.1-0.7-5-2-8.5c-0.6-1.8-1.3-3.7-1.9-5.8
							c-0.6-2.1-1.2-4.4-1.6-6.9c-0.9-4.9-1.6-10.3-2.3-16c-1.4-11.3-2.6-21.6-3.4-29c-0.4-3.7-0.7-6.7-0.9-8.8
							c-0.2-2.1-0.2-3.2-0.1-3.3c0.1,0,0.4,1.1,0.7,3.2c0.4,2.1,0.8,5.1,1.3,8.8c1.1,7.4,2.4,17.7,3.9,29c0.7,5.7,1.3,11.1,2.1,15.9
							c0.4,2.4,0.9,4.7,1.5,6.8c0.5,2.1,1.2,4,1.7,5.8c1.1,3.6,1.6,6.7,1.5,8.8C200.5,286.5,200,287.6,199.9,287.6z"/>
					</g>
				</g>
				<g>
					<g>
						<path class="st3" d="M179.1,286.4c-0.2,0-0.6-3.1-1.2-8.1c-0.6-5-1.4-11.9-2.2-19.6c-0.8-7.7-1.4-14.6-1.6-19.7
							c-0.2-5-0.2-8.2,0-8.2c0.2,0,0.6,3.1,1.1,8.1c0.5,5.1,1.3,12,2.1,19.6c0.8,7.7,1.4,14.6,1.7,19.6
							C179.3,283.3,179.3,286.4,179.1,286.4z"/>
					</g>
				</g>
				<g>
					<g>
						<path class="st3" d="M151.8,262.9c-0.2-0.1,0.4-3.3,1.5-8.6c1.1-5.3,2.8-12.5,4.7-20.5c1-4,1.9-7.8,2.8-11.2
							c0.8-3.4,1.7-6.6,3.1-9c1.4-2.4,3.1-4,4.5-4.7c1.4-0.8,2.2-0.8,2.3-0.8c0,0.1-0.8,0.4-1.9,1.3c-1.2,0.9-2.7,2.4-3.9,4.7
							c-1.2,2.3-1.9,5.4-2.7,8.9c-0.8,3.5-1.7,7.3-2.6,11.3c-1.9,8-3.7,15.2-5.1,20.4C153,259.8,152,262.9,151.8,262.9z"/>
					</g>
				</g>
				<g>
					<g>
						<path class="st3" d="M175.7,212.2c0.1,0.1-0.5,0.6-1.1,1.8c-0.6,1.2-1.2,3-1.8,5.4c-0.3,1.2-0.6,2.5-0.9,3.9
							c-0.3,1.4-0.6,2.9-0.9,4.5c-0.3,1.6-0.8,3.3-1.4,5c-0.7,1.7-1.5,3.3-2.3,5c-0.9,1.7-1.7,3.3-2.4,4.8c-0.6,1.5-1,3.2-1.3,4.7
							c-0.6,3.1-0.7,6-0.9,8.5c-0.2,4.9-0.1,7.9-0.4,7.9c-0.2,0-0.7-3-0.7-7.9c0-2.5,0-5.4,0.5-8.7c0.3-1.6,0.6-3.3,1.3-5.1
							c0.7-1.7,1.6-3.3,2.4-5c0.9-1.7,1.7-3.3,2.3-4.9c0.6-1.6,1.1-3.2,1.4-4.7c0.4-1.6,0.7-3.1,1-4.5c0.4-1.4,0.8-2.7,1.1-3.9
							c0.7-2.4,1.6-4.2,2.4-5.4C174.9,212.5,175.7,212.1,175.7,212.2z"/>
					</g>
				</g>
				<g>
					<g>
						<path class="st3" d="M246.5,235.8c-0.1,0.2-2.1-0.5-4.9-2.1c-2.9-1.6-6.7-4.1-10.6-7.5c-1.9-1.7-3.5-3.5-5-5
							c-1.5-1.5-3-2.7-4.4-3.6c-2.7-1.7-4.7-2.2-4.6-2.4c0-0.1,0.5-0.1,1.5,0.1c0.9,0.2,2.2,0.6,3.7,1.4c1.5,0.8,3.1,2,4.8,3.5
							c1.7,1.5,3.3,3.3,5.1,4.9c3.7,3.3,7.4,5.9,10.1,7.7C244.8,234.6,246.6,235.6,246.5,235.8z"/>
					</g>
				</g>
				<g>
					<g>
						<path class="st3" d="M241.7,242.5c-0.1,0.2-1.5-0.6-3.7-1.9c-2.2-1.3-5.2-3.1-8.5-5.2c-3.3-2.1-6.2-4.2-8.2-5.8
							c-2-1.7-3.1-2.9-2.9-3c0.1-0.2,1.5,0.7,3.6,2.1c2.1,1.4,5.1,3.3,8.4,5.4c3.3,2.1,6.3,4.1,8.3,5.6
							C240.7,241.2,241.9,242.3,241.7,242.5z"/>
					</g>
				</g>
				<g>
					<g>
						<path class="st6" d="M170.7,207.4c0,0,0.1,0,0.3,0.1c0.2,0.1,0.5,0.2,0.9,0.4c0.7,0.4,1.7,1.2,2.6,2.4
							c0.9,1.2,1.8,2.8,2.2,4.7c0.5,1.9,0.5,4.1,0.1,6.4c-0.3,2.3-0.9,4.3-1.6,6.2c-0.6,1.9-1.2,3.5-1.7,4.9
							c-0.5,1.4-0.8,2.5-1.1,3.3c-0.2,0.8-0.4,1.2-0.4,1.2c0,0,0-0.5,0.2-1.3c0.2-0.8,0.5-2,0.9-3.4c0.8-2.8,2.5-6.6,3.1-11
							c0.3-2.2,0.3-4.4-0.1-6.2c-0.4-1.9-1.2-3.5-2-4.6C172.5,208.1,170.6,207.5,170.7,207.4z"/>
					</g>
				</g>
				<g>
					<g>
						<path class="st6" d="M219.2,238.9c0,0-0.1-0.4-0.2-1.2c-0.1-0.9-0.3-2-0.4-3.3c-0.4-2.9-0.8-6.7-1.3-11c-0.5-4.2-1-8.1-1.3-11
							c-0.2-1.3-0.3-2.4-0.4-3.3c-0.1-0.8-0.1-1.2-0.1-1.2c0,0,0.1,0.4,0.3,1.2c0.1,0.8,0.3,1.9,0.6,3.3c0.4,2.8,1,6.7,1.5,11
							c0.5,4.3,0.9,8.2,1.2,11c0.1,1.4,0.2,2.6,0.3,3.3C219.2,238.4,219.2,238.9,219.2,238.9z"/>
					</g>
				</g>
				<g>
					<g>
						<path class="st6" d="M191.3,202.8c0,0.1-0.7-0.3-1.7,0.2c-0.5,0.3-0.9,0.7-1.2,1.4c-0.2,0.3-0.3,0.7-0.4,1.1
							c-0.1,0.2-0.1,0.4-0.2,0.6c-0.1,0.2-0.1,0.5-0.3,0.7c-0.1,0.1-0.3,0.2-0.4,0.2c-0.2,0-0.3,0-0.4-0.1c-0.2-0.1-0.4-0.2-0.6-0.3
							c-0.4-0.2-0.7-0.4-1.1-0.5c-0.6-0.3-1.2-0.6-1.8-0.9c-1-0.5-1.6-0.9-1.6-1c0-0.1,0.7,0.2,1.8,0.6c0.6,0.3,1.2,0.5,1.8,0.8
							c0.4,0.2,0.7,0.3,1.1,0.5c0.2,0.1,0.4,0.2,0.6,0.3c0.2,0.1,0.2,0.1,0.3,0c0.2-0.2,0.2-0.7,0.4-1.1c0.1-0.4,0.3-0.8,0.4-1.1
							c0.3-0.7,0.9-1.3,1.5-1.5c0.6-0.3,1.1-0.3,1.4-0.2C191.2,202.7,191.4,202.8,191.3,202.8z"/>
					</g>
				</g>
				<g>
					<g>
						<path class="st6" d="M202,203.8c0.1,0.1-1.7,1.5-3.9,3.3l-0.3,0.2l-0.1-0.4c0-0.2-0.1-0.3-0.1-0.5c-0.2-1.5-0.7-2.8-1.5-3.5
							c-0.7-0.7-1.4-0.8-1.3-0.8c0-0.1,0.7-0.1,1.6,0.6c0.4,0.3,0.8,0.9,1.1,1.5c0.3,0.6,0.5,1.4,0.6,2.2c0,0.2,0.1,0.4,0.1,0.5
							l-0.4-0.2C200.1,205,201.9,203.7,202,203.8z"/>
					</g>
				</g>
				<g>
					<g>
						<path class="st6" d="M167.7,263.7c0,0.1-1-0.2-2.4-0.7c-1.5-0.5-3.6-1.1-5.9-1.7c-2.3-0.6-4.4-1-6-1.3
							c-1.5-0.3-2.5-0.5-2.5-0.6c0-0.1,1,0,2.5,0.2c1.6,0.2,3.7,0.6,6,1.2c2.3,0.6,4.4,1.3,5.9,1.8
							C166.8,263.2,167.7,263.6,167.7,263.7z"/>
					</g>
				</g>
				<g>
					<g>
						<path class="st6" d="M152.6,257.4c0-0.1,0.9,0.1,2.4,0.5c1.5,0.4,3.5,1,5.7,1.7c1.1,0.4,2.1,0.8,3.1,1.1
							c0.9,0.4,1.8,0.7,2.4,1.1c1.4,0.8,1.7,1.9,1.6,1.9c-0.1,0-0.5-0.9-1.8-1.6c-0.7-0.4-1.5-0.7-2.4-1c-1-0.3-2-0.7-3.1-1.1
							c-2.2-0.8-4.2-1.4-5.6-1.9C153.4,257.8,152.5,257.5,152.6,257.4z"/>
					</g>
				</g>
				<g>
					<g>
						<path class="st6" d="M241.3,241.3c-0.1,0,0.3-0.8,0.9-1.9c0.6-1.2,1.5-2.7,2.7-4.4c1.1-1.6,2.3-3.1,3.1-4
							c0.9-1,1.5-1.5,1.5-1.5c0.1,0.1-2,2.6-4.2,5.8C242.9,238.5,241.4,241.3,241.3,241.3z"/>
					</g>
				</g>
				<g>
					<g>
						<path class="st6" d="M239.8,238.9c-0.1,0,0.2-0.7,0.9-1.8c0.6-1,1.7-2.4,3-3.7c1.3-1.3,2.7-2.3,3.7-2.9c1-0.6,1.7-0.9,1.8-0.9
							c0.1,0.1-2.5,1.6-5.1,4.2C241.4,236.4,239.9,239,239.8,238.9z"/>
					</g>
				</g>
			</g>
			<g>
				<g>
					<path class="st6" d="M203.8,290.2c0,0-0.1-0.3-0.1-0.8c-0.1-0.6-0.2-1.3-0.3-2.3c-0.2-2.1-0.6-5-1-8.5
						c-0.8-7.2-2-17.1-3.3-28.1c-1.4-11-2.7-20.9-3.8-28c-0.5-3.6-1-6.5-1.3-8.5c-0.2-1-0.3-1.7-0.4-2.3c-0.1-0.5-0.1-0.8-0.1-0.8
						c0,0,0.1,0.3,0.2,0.8c0.1,0.6,0.3,1.3,0.5,2.3c0.4,2,0.9,4.9,1.5,8.4c1.2,7.1,2.6,17,3.9,28c1.4,11,2.5,20.9,3.2,28.1
						c0.3,3.6,0.6,6.5,0.8,8.5c0.1,1,0.1,1.7,0.2,2.3C203.8,290,203.9,290.2,203.8,290.2z"/>
				</g>
			</g>
			<g>
				<g>
					<path class="st6" d="M197.3,227.8c-0.1,0-0.1-0.4,0.4-0.8c0.2-0.2,0.6-0.3,1-0.1c0.4,0.2,0.7,0.6,0.6,1.1
						c-0.1,0.5-0.6,0.8-1,0.8c-0.5,0-0.8-0.3-0.9-0.6c-0.1-0.3,0-0.5,0.1-0.7c0.1-0.1,0.2-0.2,0.2-0.1c0.1,0-0.1,0.3,0.1,0.7
						c0.1,0.2,0.3,0.3,0.5,0.3c0.2,0,0.5-0.2,0.5-0.4c0-0.2-0.1-0.5-0.3-0.6c-0.2-0.1-0.4-0.1-0.6,0
						C197.4,227.5,197.4,227.8,197.3,227.8z"/>
				</g>
			</g>
			<g>
				<g>
					<path class="st6" d="M200.3,245.2c-0.1,0-0.1-0.4,0.4-0.8c0.2-0.2,0.6-0.3,1-0.1c0.4,0.2,0.7,0.6,0.6,1.1
						c-0.1,0.5-0.6,0.8-1,0.8c-0.5,0-0.8-0.3-0.9-0.6c-0.1-0.3,0-0.5,0.1-0.7c0.1-0.1,0.2-0.2,0.2-0.1c0.1,0-0.1,0.3,0.1,0.7
						c0.1,0.2,0.3,0.3,0.5,0.3c0.2,0,0.5-0.2,0.5-0.4c0-0.2-0.1-0.5-0.3-0.6c-0.2-0.1-0.4-0.1-0.6,0
						C200.5,244.9,200.4,245.3,200.3,245.2z"/>
				</g>
			</g>
		</g>
		<g>
			<g>
				<g>
					<g>
						<g>
							<g>
								<g>
									<path class="st7" d="M192.7,456.2l-0.2-8.9l-16.7,0.3l0.2,13l1,0c4.6,0.2,23.4,0.6,26.5-0.4
										C206.9,459.1,192.7,456.2,192.7,456.2z"/>
								</g>
							</g>
						</g>
					</g>
					<g class="st17">
						<g>
							<g>
								<path class="st10" d="M199.6,457.9c0,0,5,1.4,4.4,2.2c-0.6,0.8-19.7,1.1-28.1,0.5l0-0.4l22.2-0.2
									C198.2,460,198.6,457.9,199.6,457.9z"/>
							</g>
						</g>
					</g>
					<g>
						<g>
							<g>
								<g>
									<path class="st6" d="M175.7,460.2c0,0,0.1,0,0.3,0c0.2,0,0.5,0,0.8,0c0.8,0,1.8,0.1,3,0.1c2.6,0.1,6.1,0.1,10,0
										c3.9-0.1,7.5-0.2,10-0.3c1.2-0.1,2.2-0.1,3-0.2c0.3,0,0.6,0,0.8-0.1c0.2,0,0.3,0,0.3,0c0,0-0.1,0-0.3,0c-0.2,0-0.5,0-0.8,0
										c-0.8,0-1.8,0.1-3,0.1c-2.6,0.1-6.1,0.2-10,0.3c-3.9,0.1-7.4,0.1-10,0c-1.2,0-2.2,0-3,0c-0.3,0-0.6,0-0.8,0
										C175.8,460.2,175.7,460.2,175.7,460.2z"/>
								</g>
							</g>
						</g>
					</g>
					<g>
						<g>
							<g>
								<g>
									<path class="st6" d="M198.2,460.3c0.1,0,0.1-0.7,0.5-1.5c0.4-0.7,1.1-1.1,1-1.2c0-0.1-0.7,0.3-1.2,1.1
										C198.1,459.5,198.1,460.3,198.2,460.3z"/>
								</g>
							</g>
						</g>
					</g>
					<g>
						<g>
							<g>
								<g>
									
										<ellipse transform="matrix(0.5225 -0.8526 0.8526 0.5225 -297.3463 383.3888)" class="st6" cx="193.6" cy="457.2" rx="0.8" ry="0.1"/>
								</g>
							</g>
						</g>
					</g>
					<g>
						<g>
							<g>
								<g>
									
										<ellipse transform="matrix(0.7332 -0.68 0.68 0.7332 -259.2355 252.6246)" class="st6" cx="192.4" cy="456.7" rx="0.7" ry="0.1"/>
								</g>
							</g>
						</g>
					</g>
					<g>
						<g>
							<g>
								<g>
									
										<ellipse transform="matrix(1 -4.587634e-03 4.587634e-03 1 -2.0882 0.8849)" class="st6" cx="191.8" cy="455.6" rx="0.9" ry="0.1"/>
								</g>
							</g>
						</g>
					</g>
					<g>
						<g>
							<g>
								<g>
									<path class="st6" d="M190.7,454.5c0,0.1,0.4,0.2,1,0.3c0.6,0,1-0.1,1-0.1c0-0.1-0.5,0-1-0.1
										C191.1,454.6,190.7,454.5,190.7,454.5z"/>
								</g>
							</g>
						</g>
					</g>
					<g>
						<g>
							<g>
								<g>
									<path class="st6" d="M193.7,456.4c0,0,0.4,0.1,1.1,0c0.3,0,0.7-0.1,1.1-0.3c0.2-0.1,0.4-0.1,0.6-0.3
										c0.1-0.1,0.2-0.2,0.3-0.3c0-0.2,0-0.3-0.2-0.4c-1-0.5-2.1,0.1-2.4,0.6c-0.2,0.3-0.3,0.5-0.3,0.7c0,0.2,0,0.3,0,0.3
										c0,0,0.1-0.4,0.5-0.9c0.2-0.2,0.5-0.5,0.9-0.6c0.4-0.1,0.9-0.2,1.3,0.1c0.2,0.1,0.1,0.3-0.1,0.4c-0.2,0.1-0.4,0.2-0.6,0.3
										c-0.4,0.1-0.8,0.2-1.1,0.3C194.2,456.4,193.7,456.4,193.7,456.4z"/>
								</g>
							</g>
						</g>
					</g>
					<g>
						<g>
							<g>
								<g>
									<path class="st6" d="M194,456.5c0,0,0.2-0.3,0.1-0.7c0-0.2-0.1-0.5-0.3-0.8c-0.2-0.2-0.4-0.6-0.9-0.5
										c-0.2,0-0.4,0.3-0.3,0.5c0,0.2,0.1,0.3,0.2,0.5c0.2,0.3,0.3,0.5,0.5,0.6C193.7,456.3,193.9,456.5,194,456.5
										c-0.1,0-0.3-0.2-0.6-0.5c-0.1-0.2-0.3-0.4-0.5-0.6c-0.2-0.2-0.3-0.6,0-0.7c0.3,0,0.5,0.2,0.7,0.4c0.2,0.2,0.3,0.5,0.3,0.7
										C194.1,456.2,194,456.5,194,456.5z"/>
								</g>
							</g>
						</g>
					</g>
					<g>
						<g>
							<g>
								<g>
									<path class="st6" d="M175.9,455.6c0,0,0.5-0.1,1.2,0c0.7,0.1,1.8,0.4,2.7,1.1c0.9,0.7,1.5,1.6,1.7,2.3
										c0.3,0.7,0.3,1.2,0.3,1.2c0,0,0-0.1,0-0.3c0-0.2-0.1-0.5-0.2-0.9c-0.2-0.7-0.8-1.7-1.7-2.5c-1-0.7-2-1-2.8-1
										c-0.4,0-0.7,0-0.9,0C176.1,455.6,175.9,455.6,175.9,455.6z"/>
								</g>
							</g>
						</g>
					</g>
					<g>
						<g>
							<g>
								<g>
									
										<ellipse transform="matrix(1 -3.076056e-03 3.076056e-03 1 -1.3898 0.5484)" class="st6" cx="177.6" cy="452.1" rx="0.1" ry="3.4"/>
								</g>
							</g>
						</g>
					</g>
					<g>
						<g>
							<g>
								<g>
									<path class="st6" d="M184,458.7c0,0.1,1.1,0.2,2.4,0.2c1.4,0,2.4-0.2,2.4-0.2c0-0.1-1.1,0-2.4,0
										C185.1,458.7,184,458.6,184,458.7z"/>
								</g>
							</g>
						</g>
					</g>
					<g>
						<g>
							<g>
								<g>
									<path class="st6" d="M180.8,458.7c0,0,0.1,0.2,0.2,0.5c0.1,0.2,0.2,0.5,0.2,0.5c0.1,0,0.1-0.3-0.1-0.6
										C181,458.8,180.8,458.7,180.8,458.7z"/>
								</g>
							</g>
						</g>
					</g>
					<g>
						<g>
							<g>
								<g>
									
										<ellipse transform="matrix(0.7008 -0.7134 0.7134 0.7008 -272.5793 265.1853)" class="st6" cx="179.8" cy="457.5" rx="0.1" ry="0.4"/>
								</g>
							</g>
						</g>
					</g>
					<g>
						<g>
							<g>
								<g>
									<path class="st6" d="M177.7,456.5c0,0.1,0.2,0.1,0.5,0.1c0.2,0.1,0.4,0.2,0.5,0.2c0,0-0.1-0.3-0.4-0.4
										C178,456.4,177.7,456.5,177.7,456.5z"/>
								</g>
							</g>
						</g>
					</g>
					<g>
						<g>
							<g>
								<g>
									
										<ellipse transform="matrix(0.3466 -0.938 0.938 0.3466 -312.5637 463.9547)" class="st6" cx="176.7" cy="456.3" rx="0.1" ry="0.3"/>
								</g>
							</g>
						</g>
					</g>
				</g>
			</g>
			<g class="st8">
				<polygon points="176,455.2 192.6,454.6 192.6,452.6 175.8,454.1 				"/>
			</g>
		</g>
		<g>
			<g>
				<g>
					<g>
						<g>
							<g>
								<g>
									<path class="st7" d="M231.3,456.3l-0.2-8.9l-16.7,0.4l0.2,13l1,0c4.6,0.2,23.5,0.5,26.5-0.5
										C245.6,459.2,231.3,456.3,231.3,456.3z"/>
								</g>
							</g>
						</g>
					</g>
					<g class="st17">
						<g>
							<g>
								<path class="st10" d="M238.3,458c0,0,5,1.3,4.4,2.2c-0.6,0.8-19.7,1.2-28.1,0.7l0-0.4l22.2-0.3
									C236.9,460.2,237.3,458.1,238.3,458z"/>
							</g>
						</g>
					</g>
					<g>
						<g>
							<g>
								<g>
									<path class="st6" d="M214.4,460.5c0,0,0.1,0,0.3,0c0.2,0,0.5,0,0.8,0c0.8,0,1.8,0,3,0.1c2.6,0,6.1,0,10,0
										c3.9-0.1,7.5-0.2,10-0.4c1.2-0.1,2.2-0.1,3-0.2c0.3,0,0.6,0,0.8-0.1c0.2,0,0.3,0,0.3,0c0,0-0.1,0-0.3,0c-0.2,0-0.5,0-0.8,0
										c-0.8,0-1.8,0.1-3,0.1c-2.6,0.1-6.1,0.2-10,0.3c-3.9,0.1-7.4,0.1-10,0.1c-1.2,0-2.2,0-3,0c-0.3,0-0.6,0-0.8,0
										C214.5,460.4,214.4,460.5,214.4,460.5z"/>
								</g>
							</g>
						</g>
					</g>
					<g>
						<g>
							<g>
								<g>
									<path class="st6" d="M236.9,460.4c0.1,0,0.1-0.7,0.5-1.5c0.4-0.7,1-1.1,1-1.2c0-0.1-0.7,0.3-1.2,1.1
										C236.8,459.7,236.8,460.5,236.9,460.4z"/>
								</g>
							</g>
						</g>
					</g>
					<g>
						<g>
							<g>
								<g>
									
										<ellipse transform="matrix(0.518 -0.8554 0.8554 0.518 -279.221 419.1543)" class="st6" cx="232.3" cy="457.3" rx="0.8" ry="0.1"/>
								</g>
							</g>
						</g>
					</g>
					<g>
						<g>
							<g>
								<g>
									
										<ellipse transform="matrix(0.7297 -0.6838 0.6838 0.7297 -249.9512 281.4806)" class="st6" cx="231" cy="456.9" rx="0.7" ry="0.1"/>
								</g>
							</g>
						</g>
					</g>
					<g>
						<g>
							<g>
								<g>
									
										<ellipse transform="matrix(1 -9.692135e-03 9.692135e-03 1 -4.4068 2.2557)" class="st6" cx="230.5" cy="455.8" rx="0.9" ry="0.1"/>
								</g>
							</g>
						</g>
					</g>
					<g>
						<g>
							<g>
								<g>
									<path class="st6" d="M229.3,454.7c0,0.1,0.4,0.2,1,0.3c0.6,0,1-0.1,1-0.2c0-0.1-0.5,0-1,0
										C229.8,454.7,229.4,454.6,229.3,454.7z"/>
								</g>
							</g>
						</g>
					</g>
					<g>
						<g>
							<g>
								<g>
									<path class="st6" d="M232.4,456.6c0,0,0.4,0.1,1.1,0c0.3,0,0.7-0.1,1.1-0.3c0.2-0.1,0.4-0.1,0.6-0.3
										c0.1-0.1,0.2-0.2,0.3-0.3c0-0.2,0-0.3-0.2-0.4c-1-0.5-2.1,0.1-2.4,0.6c-0.2,0.3-0.3,0.5-0.3,0.7c0,0.2,0,0.3,0,0.3
										c0,0,0.1-0.4,0.5-0.9c0.2-0.2,0.5-0.5,0.9-0.6c0.4-0.1,0.9-0.2,1.3,0.1c0.2,0.1,0.1,0.3-0.1,0.4c-0.2,0.1-0.4,0.2-0.6,0.3
										c-0.4,0.1-0.8,0.2-1.1,0.3C232.8,456.5,232.4,456.6,232.4,456.6z"/>
								</g>
							</g>
						</g>
					</g>
					<g>
						<g>
							<g>
								<g>
									<path class="st6" d="M232.7,456.6c0,0,0.2-0.3,0.1-0.7c0-0.2-0.1-0.5-0.3-0.8c-0.2-0.2-0.4-0.6-0.9-0.5
										c-0.2,0-0.4,0.3-0.3,0.5c0,0.2,0.1,0.3,0.2,0.5c0.2,0.3,0.3,0.5,0.5,0.6C232.3,456.5,232.6,456.6,232.7,456.6
										c-0.1,0-0.3-0.2-0.6-0.5c-0.2-0.2-0.3-0.4-0.5-0.6c-0.2-0.2-0.3-0.6,0-0.7c0.3,0,0.5,0.2,0.7,0.4c0.2,0.2,0.3,0.5,0.3,0.7
										C232.8,456.3,232.7,456.6,232.7,456.6z"/>
								</g>
							</g>
						</g>
					</g>
					<g>
						<g>
							<g>
								<g>
									<path class="st6" d="M214.6,455.9c0,0,0.5-0.1,1.2,0c0.7,0.1,1.8,0.4,2.7,1.1c0.9,0.7,1.5,1.6,1.7,2.3
										c0.3,0.7,0.3,1.2,0.3,1.2c0,0,0-0.1,0-0.3c0-0.2-0.1-0.5-0.2-0.9c-0.2-0.7-0.8-1.7-1.7-2.5c-1-0.7-2.1-1-2.8-1
										c-0.4,0-0.7,0-0.9,0C214.7,455.8,214.6,455.9,214.6,455.9z"/>
								</g>
							</g>
						</g>
					</g>
					<g>
						<g>
							<g>
								<g>
									
										<ellipse transform="matrix(1 -8.236833e-03 8.236833e-03 1 -3.7185 1.7965)" class="st6" cx="216.2" cy="452.3" rx="0.1" ry="3.4"/>
								</g>
							</g>
						</g>
					</g>
					<g>
						<g>
							<g>
								<g>
									<path class="st6" d="M222.7,458.9c0,0.1,1.1,0.2,2.4,0.2c1.4,0,2.4-0.2,2.4-0.2c0-0.1-1.1,0-2.4,0
										C223.8,458.9,222.8,458.8,222.7,458.9z"/>
								</g>
							</g>
						</g>
					</g>
					<g>
						<g>
							<g>
								<g>
									<path class="st6" d="M219.5,459c0,0,0.1,0.2,0.2,0.5c0.1,0.2,0.2,0.5,0.2,0.5c0.1,0,0.1-0.3-0.1-0.6
										C219.7,459.1,219.5,458.9,219.5,459z"/>
								</g>
							</g>
						</g>
					</g>
					<g>
						<g>
							<g>
								<g>
									
										<ellipse transform="matrix(0.697 -0.717 0.717 0.697 -262.029 295.3801)" class="st6" cx="218.5" cy="457.8" rx="0.1" ry="0.4"/>
								</g>
							</g>
						</g>
					</g>
					<g>
						<g>
							<g>
								<g>
									<path class="st6" d="M216.4,456.8c0,0.1,0.2,0,0.5,0.1c0.2,0.1,0.4,0.2,0.5,0.2c0,0-0.1-0.3-0.4-0.4
										C216.7,456.6,216.4,456.7,216.4,456.8z"/>
								</g>
							</g>
						</g>
					</g>
					<g>
						<g>
							<g>
								<g>
									
										<ellipse transform="matrix(0.3419 -0.9397 0.9397 0.3419 -287.2952 502.9314)" class="st6" cx="215.4" cy="456.6" rx="0.1" ry="0.3"/>
								</g>
							</g>
						</g>
					</g>
				</g>
			</g>
			<g class="st8">
				<polygon points="214.6,455.4 231.3,454.8 231.2,452.8 214.5,454.4 				"/>
			</g>
		</g>
		<g>
			<g>
				<g>
					<polygon class="st14" points="172.7,285.2 172.7,453.9 199,453.9 201.3,307.6 210.5,453.9 236.8,453.9 225.1,288 					"/>
				</g>
			</g>
			<g>
				<g>
					<path class="st9" d="M203.6,286.4c0.1,0,0.1,1,0.2,2.7c0.1,1.7,0.1,4,0.2,6.6c0,1.3,0,2.5,0,3.6c0,1.1-0.1,2.2-0.5,3
						c-0.4,0.8-1,1.3-1.5,1.5c-0.5,0.2-0.8,0.2-0.8,0.2c0,0,0.3-0.1,0.7-0.4c0.4-0.3,0.9-0.8,1.3-1.5c0.3-0.7,0.4-1.7,0.4-2.8
						c0-1.1,0-2.3-0.1-3.6c0-2.6,0-4.9,0-6.6C203.4,287.5,203.5,286.4,203.6,286.4z"/>
				</g>
			</g>
			<g>
				<g>
					<path class="st9" d="M198.8,288.3c0,0.1-0.4,0.3-0.4,0.8c0,0.3,0.1,0.6,0.4,0.8c0.3,0.2,0.7,0.2,1.1-0.1
						c0.5-0.3,0.4-0.9,0.1-1.2C199.6,288.4,199.1,288.3,198.8,288.3L198.8,288.3c0.3,0,0.4,0.1,0.4,0.1
						C199.2,288.5,199.1,288.5,198.8,288.3l-0.2,0L198.8,288.3c0.2-0.3,0.9-0.4,1.4,0c0.3,0.2,0.5,0.5,0.5,0.9c0,0.4-0.2,0.8-0.6,1
						c-0.5,0.3-1.2,0.4-1.6,0c-0.4-0.3-0.5-0.8-0.5-1.1c0.1-0.3,0.3-0.6,0.4-0.7C198.7,288.3,198.8,288.3,198.8,288.3z"/>
				</g>
			</g>
		</g>
		<g>
			<path class="st11" d="M217.5,255.4c-0.7-0.9-9,0.5-9,0.5l3-2.3c-1.5-2.7-6.9,0.6-8.6,2.2c-0.4,0.4-0.7,1-0.8,1.7l-33.5,7.1
				l-18.7-1.9c0,0-0.4,3.2-1.3,9.3c-0.9,5.8,8.6,11.4,14.4,10.6c5.4-0.8,38.1-10.1,43.7-11.7l0,0l0,0c0.5-0.1,0.8-0.2,0.8-0.2l0,0
				c1.8-0.6,6.1-2.2,6.6-2.9c0.6-1,0.4-8.8,0.4-8.8l3.1-1.4C217.6,257.6,218.2,256.3,217.5,255.4z"/>
		</g>
	</g>
</g>
</svg>
