<?xml version="1.0" encoding="utf-8"?>
<!-- Generator: Adobe Illustrator 21.1.0, SVG Export Plug-In . SVG Version: 6.00 Build 0)  -->
<svg version="1.1" xmlns="http://www.w3.org/2000/svg" xmlns:xlink="http://www.w3.org/1999/xlink" x="0px" y="0px"
	 viewBox="0 0 500 500" style="enable-background:new 0 0 500 500;" xml:space="preserve">
<style type="text/css">
	.st0{fill:#F5F5F5;}
	.st1{fill:#E0E0E0;}
	.st2{fill:#EBEBEB;}
	.st3{fill:none;}
	.st4{display:none;}
	.st5{display:inline;fill:#EBEBEB;}
	.st6{fill:#263238;}
	.st7{fill:#FAFAFA;}
	.st8{fill:#0F4C81;}
	.st9{fill:#455A64;}
	.st10{fill:#FFBE9D;}
	.st11{opacity:0.3;}
	.st12{fill:#EB996E;}
	.st13{fill:#A860A5;}
	.st14{fill:#5D7546;}
	.st15{opacity:0.2;}
</style>
<g id="Background_Complete">
	<g>
		<g>
			<g>
				<g>
					<path class="st0" d="M394,456.2c-17.8-9-24.5-29.4-26.6-48.4c-0.3-3.2-1.2-6.4-0.1-9.4c1.1-3,4.3-5.4,7.3-4.5
						c2.5,0.8,3.9,3.3,5.5,5.4c2.2,2.7,5.1,4.8,8.4,6c2.2,0.8,4.7,1,6.6-0.3c2.5-1.9,2.3-5.7,1.8-8.8c-0.9-5.8-1.8-11.7-2.6-17.5
						c-0.5-3.1-0.9-6.3-0.4-9.4c0.5-3.1,2.3-6.2,5.2-7.5c2.9-1.3,6.8-0.1,7.9,2.9c0.4,1.2,0.4,2.6,0.7,3.9c0.3,1.3,1.1,2.6,2.4,2.8
						c1.3,0.2,2.4-0.9,3.2-1.9c2.8-3.6,4.4-8,5.8-12.4c1.5-4.4,2.9-8.8,5.3-12.7c2.4-3.9,6.1-7.2,10.6-8.1c4.5-0.9,9.6,1.2,11.4,5.4
						c1.8,4.3-0.2,9.1-2.4,13.1c-3.4,5.9-7.6,11.3-12.6,16c-0.9,0.8-1.8,1.8-2.1,3c-0.4,2.2,1.9,4,4.1,4.4c2.4,0.4,4.9-0.2,7.4-0.2
						c2.5-0.1,5.3,0.6,6.5,2.8c1.7,3-0.4,6.8-2.8,9.3c-4.6,5.2-10.2,9.5-16.3,12.8c-2.2,1.2-4.5,2.3-6.1,4.2
						c-1.6,1.9-2.3,4.9-0.9,6.9c1.4,2,4.4,2.3,6.8,1.5c2.3-0.8,4.3-2.4,6.5-3.6c4.1-2.2,9.7-2.8,13,0.6c2.2,2.2,2.8,5.6,2.3,8.6
						c-0.5,3-2,5.8-3.6,8.4c-5.7,9.1-13.6,16.9-23.1,21.8C413.6,456.2,404.4,458.4,394,456.2"/>
				</g>
			</g>
		</g>
		<g>
			<g>
				<g>
					<g>
						<path class="st1" d="M397.1,443.7c1.4-9.9,3.8-20.7,6.8-31.9c0.7-2.8,1.5-5.5,2.2-8.3c0.7-2.7,1.5-5.4,2.3-8
							c1.7-5.2,3.8-10,5.9-14.6c2.1-4.5,4.2-8.8,6.3-12.7c2-3.9,4-7.6,6-10.8c3.9-6.5,7.6-11.4,10.3-14.6c1.3-1.6,2.4-2.8,3.2-3.7
							c0.4-0.4,0.6-0.7,0.9-0.9c0.2-0.2,0.3-0.3,0.3-0.3c0,0-0.1,0.1-0.3,0.3c-0.2,0.2-0.5,0.6-0.8,1c-0.7,0.8-1.8,2.1-3.1,3.7
							c-2.6,3.3-6.3,8.2-10.1,14.7c-1.9,3.2-3.9,6.9-5.9,10.8c-2,4-4.1,8.2-6.2,12.7c-2.1,4.5-4.1,9.4-5.8,14.5
							c-0.9,2.6-1.6,5.2-2.3,7.9c-0.7,2.7-1.5,5.5-2.2,8.3c-2.9,11.2-5.4,21.9-6.8,31.8"/>
					</g>
				</g>
			</g>
		</g>
		<g>
			<g>
				<g>
					<g>
						<path class="st1" d="M408.6,395.6c0,0-0.2-0.4-0.5-1.3c-0.3-0.8-0.7-2.1-1.1-3.6c-0.9-3.1-2-7.3-3.2-12
							c-1.2-4.7-2.3-8.9-3.3-12c-0.5-1.5-0.9-2.7-1.1-3.6c-0.3-0.8-0.4-1.3-0.4-1.3c0,0,0.2,0.4,0.6,1.3c0.3,0.8,0.8,2,1.3,3.5
							c1,3,2.3,7.2,3.4,12c1.2,4.6,2.2,8.8,3,12.1c0.4,1.4,0.7,2.7,0.9,3.6C408.5,395.1,408.7,395.6,408.6,395.6z"/>
					</g>
				</g>
			</g>
		</g>
		<g>
			<g>
				<g>
					<g>
						<path class="st1" d="M447.8,382.2c0,0-0.6,0.2-1.6,0.4c-1,0.2-2.5,0.6-4.3,1.1c-3.6,0.9-8.6,2.4-14,4.2
							c-5.4,1.9-10.2,3.8-13.7,5.2c-1.7,0.7-3.1,1.3-4.1,1.8c-1,0.4-1.5,0.6-1.5,0.6c0,0,0.5-0.3,1.4-0.8c0.9-0.5,2.3-1.2,4-1.9
							c3.4-1.6,8.2-3.5,13.7-5.4c5.4-1.9,10.4-3.3,14.1-4.1c1.8-0.4,3.3-0.7,4.4-0.9C447.2,382.2,447.8,382.2,447.8,382.2z"/>
					</g>
				</g>
			</g>
		</g>
		<g>
			<g>
				<g>
					<g>
						<path class="st1" d="M397.5,442.9c0,0-0.1-0.1-0.3-0.5c-0.2-0.4-0.5-0.8-0.9-1.4c-0.8-1.2-1.9-2.9-3.2-5.1
							c-2.6-4.3-6-10.4-9.7-17.2c-3.7-6.8-7-12.9-9.6-17.3c-1.2-2.1-2.2-3.9-3-5.2c-0.3-0.6-0.6-1-0.8-1.4c-0.2-0.3-0.3-0.5-0.2-0.5
							c0,0,0.1,0.1,0.3,0.5c0.2,0.4,0.5,0.8,0.9,1.4c0.8,1.2,1.9,2.9,3.2,5.1c2.6,4.3,6,10.4,9.7,17.2c3.7,6.8,7,12.9,9.6,17.3
							c1.2,2.1,2.2,3.9,3,5.2c0.3,0.6,0.6,1,0.8,1.4C397.5,442.7,397.5,442.9,397.5,442.9z"/>
					</g>
				</g>
			</g>
		</g>
		<g>
			<g>
				<g>
					<g>
						<path class="st1" d="M448.6,417.9c0,0-0.2,0.1-0.5,0.3c-0.4,0.2-0.9,0.4-1.5,0.7c-1.4,0.7-3.2,1.6-5.5,2.7
							c-4.6,2.3-11,5.5-18,9c-7,3.6-13.4,6.7-18,8.9c-2.3,1.1-4.2,1.9-5.5,2.5c-0.6,0.3-1.1,0.5-1.5,0.6c-0.4,0.1-0.5,0.2-0.5,0.2
							s0.2-0.1,0.5-0.3c0.4-0.2,0.9-0.4,1.5-0.7c1.4-0.7,3.2-1.6,5.5-2.7c4.6-2.3,11-5.5,18-9c7-3.6,13.4-6.7,18-8.9
							c2.3-1.1,4.2-2,5.5-2.5c0.6-0.3,1.1-0.5,1.5-0.6C448.4,417.9,448.6,417.9,448.6,417.9z"/>
					</g>
				</g>
			</g>
		</g>
	</g>
	<g>
		<g>
			<path class="st1" d="M67.9,170.1l-9.8-19.4c-5.7,2.9-10.4,8.1-13,14.3c-3,7.3-2.9,16,2.3,24c0.6,0.9,1.2,1.7,1.9,2.6
				c0,0,0,0,0,0.1l0,0l20.9-16.9L67.9,170.1z"/>
			<path class="st2" d="M89.1,152.1c-6.7-5.2-15.9-7.5-25.5-3.9c-0.3,0.1-0.5,0.2-0.8,0.3c-0.2,0.1-0.3,0.1-0.5,0.2
				c-0.5,0.2-1,0.4-1.4,0.7c0,0,0,0-0.1,0c0,0,0,0,0,0c0,0,0,0-0.1,0l0,0l0,0l9.8,19.4l2.3,4.6l26-6.5l0,0v0c-0.5-1.8-1.1-3.6-2-5.3
				C95.1,158,92.4,154.7,89.1,152.1z"/>
		</g>
		<path class="st0" d="M72.6,176.5l-20.9,16.9c7.7,9.6,21.3,12.8,32.8,7.1c11.5-5.7,17.1-18.6,14.1-30.6L72.6,176.5"/>
	</g>
	<rect x="101.2" y="115.7" class="st0" width="97.4" height="87.2"/>
	<rect x="92.3" y="122.4" class="st2" width="97.4" height="87.2"/>
	<g>
		<path class="st1" d="M392.5,80.3H423c0,16.7-13.8,30.5-30.5,30.5c-16.7,0-30.5-13.8-30.5-30.5c0-16.5,13.3-30.1,29.8-30.5
			L392.5,80.3z"/>
		<path class="st0" d="M400.7,72.8L400,42.4c7.9,0,16.3,3.1,21.9,8.6c5.7,5.5,9,13.4,9.2,21.4L400.7,72.8z"/>
	</g>
	<g>
		<g>
			<g>
				<g>
					<g>
						<path class="st3" d="M125.5,277.6c1-1.3,2.1-2.5,3.4-3.5l-0.8-4.5l6.9-3l2.7,3.7c1.6-0.2,3.3-0.3,4.9-0.1l2.6-3.8l7,2.8
							l-0.7,4.5c1.3,1,2.5,2.2,3.5,3.4l4.5-0.8l3,6.9l-3.7,2.7c0.2,1.6,0.3,3.3,0.1,4.9l3.8,2.6l-2.8,7l-4.5-0.7
							c-1,1.3-2.1,2.5-3.4,3.5l0.8,4.5l-6.9,3l-2.7-3.7c-1.6,0.2-3.3,0.3-4.9,0.1l-2.6,3.8l-7-2.8l0.7-4.5c-1.3-1-2.5-2.1-3.5-3.4
							l-4.5,0.8l-3-6.9l3.7-2.7c-0.2-1.6-0.3-3.3-0.1-4.9l-3.8-2.6l2.8-7L125.5,277.6L125.5,277.6z M133.1,285.3
							c-1.7,4.2,0.4,8.9,4.5,10.5c4.2,1.7,8.9-0.4,10.5-4.5c1.7-4.2-0.4-8.9-4.5-10.5C139.4,279.2,134.7,281.2,133.1,285.3z"/>
					</g>
					<g>
						<g>
							<path class="st1" d="M133.1,285.3c0,0,0-0.2,0.2-0.5c0.1-0.3,0.3-0.8,0.7-1.3c0.7-1.1,2.1-2.5,4.4-3.2
								c1.1-0.3,2.4-0.5,3.8-0.2c1.4,0.3,2.8,0.9,3.9,1.9c1.2,1,2.1,2.5,2.5,4.1c0.5,1.6,0.3,3.5-0.3,5.2c-0.7,1.7-1.9,3.1-3.3,4
								c-1.4,0.9-3.1,1.3-4.7,1.3c-1.6,0-3-0.6-4.2-1.3c-1.2-0.7-2-1.7-2.6-2.8c-1.2-2.1-1.2-4.1-1-5.3c0.1-0.6,0.2-1.1,0.4-1.4
								C133,285.5,133.1,285.3,133.1,285.3c0.1,0-0.2,0.7-0.4,1.9c-0.1,1.2,0,3.2,1.1,5.1c0.6,1,1.4,1.9,2.6,2.6
								c1.1,0.7,2.5,1.2,4,1.2c1.5,0,3-0.3,4.4-1.2c1.4-0.8,2.5-2.2,3.1-3.7c0.6-1.6,0.7-3.3,0.3-4.9c-0.4-1.6-1.3-2.9-2.4-3.9
								c-1.1-1-2.4-1.6-3.7-1.9c-1.3-0.3-2.5-0.2-3.6,0.1c-2.2,0.6-3.6,1.9-4.3,2.9C133.4,284.7,133.1,285.4,133.1,285.3z"/>
						</g>
					</g>
					<g>
						<g>
							<path class="st1" d="M125.5,277.6c0,0-0.1,0-0.3,0c-0.2,0-0.5-0.1-0.9-0.1c-0.8-0.1-1.9-0.3-3.4-0.5l0.1-0.1
								c-0.7,1.8-1.6,4.2-2.7,7l0-0.2c1.1,0.8,2.4,1.6,3.8,2.6l0.1,0.1l0,0.1c-0.2,1.5-0.2,3.2,0.1,4.9l0,0.1l-0.1,0.1
								c-1.1,0.8-2.4,1.8-3.7,2.7l0.1-0.2c0.9,2.2,1.9,4.5,3,6.9l-0.2-0.1c1.4-0.3,2.9-0.5,4.5-0.8l0.1,0l0.1,0.1
								c0.9,1.2,2.1,2.4,3.5,3.4l0.1,0.1l0,0.1c-0.2,1.4-0.5,2.9-0.7,4.5l-0.1-0.3c2.2,0.9,4.6,1.8,7,2.8l-0.3,0.1
								c0.8-1.2,1.7-2.5,2.6-3.8l0.1-0.1l0.1,0c1.5,0.2,3.2,0.2,4.9-0.1l0.2,0l0.1,0.1c0.8,1.2,1.8,2.4,2.7,3.7l-0.3-0.1
								c2.2-0.9,4.5-2,6.9-3l-0.2,0.3c-0.3-1.4-0.5-2.9-0.8-4.5l0-0.2l0.1-0.1c1.2-1,2.4-2.1,3.4-3.5l0,0c0.5-0.2,0.1-0.1,0.3-0.1
								l0,0l0,0l0,0l0,0l0,0l0.1,0l0.1,0l0.3,0l0.6,0.1l1.1,0.2c0.8,0.1,1.5,0.2,2.2,0.4l-0.3,0.2c0.9-2.4,1.9-4.7,2.8-7l0.1,0.3
								c-1.3-0.9-2.5-1.7-3.8-2.6l-0.1-0.1l0-0.2c0.2-1.6,0.2-3.3-0.1-4.8l0-0.2l0.1-0.1c1.2-0.9,2.5-1.8,3.7-2.7l-0.1,0.3
								c-1-2.4-2-4.7-3-6.9l0.3,0.1c-1.5,0.3-3,0.6-4.5,0.8l-0.1,0l-0.1-0.1c-1-1.3-2.2-2.4-3.5-3.4l-0.1-0.1l0-0.1
								c0.2-1.5,0.5-3,0.7-4.5l0.1,0.2c-2.5-1-4.8-1.9-7-2.8l0.2-0.1c-0.9,1.3-1.8,2.6-2.6,3.8l-0.1,0.1l-0.1,0
								c-1.7-0.2-3.4-0.2-4.9,0.1l-0.1,0l-0.1-0.1c-1-1.3-1.8-2.6-2.7-3.7l0.2,0.1c-2.7,1.1-5,2.1-6.9,3l0.1-0.1
								c0.3,1.8,0.6,3.3,0.8,4.5l0,0.1l0,0c-1.3,1-2.2,1.9-2.7,2.5c-0.3,0.3-0.4,0.5-0.6,0.7C125.6,277.5,125.6,277.6,125.5,277.6
								c0,0,0.1-0.1,0.2-0.3c0.1-0.2,0.3-0.4,0.6-0.7c0.5-0.6,1.3-1.6,2.7-2.6l0,0.1c-0.2-1.2-0.5-2.7-0.9-4.5l0-0.1l0.1,0
								c2-0.9,4.2-1.8,6.9-3l0.1,0l0.1,0.1c0.8,1.1,1.7,2.3,2.7,3.7l-0.2-0.1c1.5-0.2,3.2-0.3,5-0.1l-0.2,0.1
								c0.8-1.2,1.7-2.4,2.6-3.8l0.1-0.1l0.1,0.1c2.2,0.9,4.5,1.8,7,2.8l0.2,0.1l0,0.2c-0.2,1.5-0.5,3-0.7,4.5l-0.1-0.2
								c1.3,1,2.5,2.1,3.6,3.5l-0.2-0.1c1.5-0.3,3-0.6,4.5-0.8l0.2,0l0.1,0.2c1,2.3,2,4.6,3,6.9l0.1,0.2l-0.2,0.1
								c-1.2,0.9-2.4,1.8-3.7,2.7l0.1-0.2c0.2,1.6,0.3,3.3,0.1,5l-0.1-0.2c1.2,0.9,2.5,1.7,3.8,2.6l0.2,0.1l-0.1,0.2
								c-0.9,2.3-1.8,4.6-2.8,7l-0.1,0.2l-0.2,0c-0.7-0.1-1.5-0.2-2.2-0.4l-1.1-0.2l-0.6-0.1l-0.3,0l-0.1,0l-0.1,0l0,0l0,0l0,0l0,0
								l0,0c0.1,0-0.2,0.1,0.2-0.1l0,0c-1,1.4-2.2,2.6-3.5,3.6l0.1-0.3c0.3,1.5,0.6,3.1,0.8,4.5l0,0.2l-0.2,0.1c-2.4,1-4.7,2-6.9,3
								l-0.2,0.1l-0.1-0.2c-0.9-1.3-1.8-2.5-2.7-3.7l0.2,0.1c-1.7,0.3-3.4,0.3-5,0.1l0.2-0.1c-0.9,1.3-1.8,2.6-2.6,3.8l-0.1,0.2
								l-0.2-0.1c-2.4-1-4.8-1.9-7-2.8l-0.2-0.1l0-0.2c0.2-1.6,0.5-3.1,0.7-4.5l0.1,0.2c-1.4-1-2.6-2.3-3.6-3.5l0.2,0.1
								c-1.6,0.3-3.1,0.6-4.5,0.8l-0.2,0l-0.1-0.2c-1-2.4-2-4.8-3-6.9l-0.1-0.1l0.1-0.1c1.3-0.9,2.5-1.8,3.7-2.7l-0.1,0.2
								c-0.3-1.7-0.2-3.4-0.1-5l0.1,0.1c-1.3-0.9-2.6-1.8-3.7-2.6l-0.1-0.1l0-0.1c1.2-2.8,2.1-5.2,2.8-7l0-0.1l0.1,0
								c1.4,0.2,2.6,0.4,3.3,0.6c0.4,0.1,0.6,0.1,0.9,0.2C125.4,277.5,125.5,277.6,125.5,277.6z"/>
						</g>
					</g>
				</g>
			</g>
			<g>
				<g>
					<g>
						<g>
							<path class="st1" d="M133.1,285.3c0,0,0.1-0.3,0.4-0.9c0.3-0.6,0.9-1.4,1.8-2.2c1-0.8,2.4-1.6,4.2-1.9c1.8-0.3,4,0.1,5.8,1.5
								c1.9,1.3,3.3,3.7,3.3,6.5c0,2.7-1.5,5.7-4.2,7.1c-1.3,0.7-2.9,1.1-4.5,1c-1.6-0.1-3.2-0.7-4.5-1.8c-1.3-1.1-2.3-2.5-2.8-4.2
								c-0.2-0.8-0.3-1.7-0.3-2.6c0-0.4,0.1-0.9,0.2-1.3c0-0.2,0.1-0.4,0.1-0.6l0.1-0.3l0-0.2l0-0.1l0,0c0,0,0,0,0,0
								c0-0.1,0,0.2,0.2,0.2l0.3-0.1c-0.1,0.3-0.3,0.6-0.4,1c-0.5,1.6-0.3,3.4,0.3,4.9c0.6,1.5,1.7,2.9,3.1,3.7
								c1.4,0.9,2.9,1.3,4.5,1.3c1.5,0,3-0.5,4.3-1.3c1.2-0.8,2.2-1.9,2.8-3.2c0.6-1.3,0.9-2.6,0.8-4c-0.1-2.7-1.6-4.9-3.4-6.2
								c-1.9-1.3-4-1.7-5.8-1.4c-1.8,0.3-3.2,1-4.2,1.9c-1,0.8-1.5,1.7-1.8,2.3c-0.2,0.3-0.3,0.5-0.3,0.7
								C133.1,285.3,133.1,285.3,133.1,285.3c0,0,0-0.1,0.1-0.3c0.1-0.2,0.1-0.4,0.3-0.7c0.3-0.6,0.8-1.5,1.8-2.4
								c1-0.9,2.4-1.7,4.2-2c1.8-0.3,4.1,0.1,6,1.4c1.9,1.3,3.5,3.7,3.6,6.5c0.1,1.4-0.2,2.8-0.8,4.2c-0.6,1.3-1.7,2.5-3,3.4
								c-1.3,0.9-2.9,1.4-4.5,1.4c-1.6,0-3.3-0.4-4.8-1.3c-1.4-0.9-2.6-2.3-3.3-3.9c-0.7-1.6-0.8-3.5-0.3-5.3
								c0.1-0.4,0.2-0.8,0.4-1.1l0.1-0.2l0.2,0.1c0.2,0.1,0.2,0.3,0.2,0.3c0,0,0,0.1,0,0.1l0,0.1l0,0.1l0,0.2l-0.1,0.3
								c-0.1,0.2-0.1,0.4-0.1,0.6c-0.1,0.4-0.1,0.8-0.2,1.2c0,0.8,0.1,1.6,0.3,2.4c0.4,1.6,1.4,3,2.6,4c1.2,1,2.7,1.6,4.2,1.7
								c1.5,0.1,3-0.2,4.3-0.9c2.6-1.4,4-4.1,4-6.7c0-2.6-1.3-4.9-3.1-6.2c-1.8-1.3-3.9-1.7-5.6-1.5c-1.7,0.2-3.1,1-4.1,1.7
								c-1,0.8-1.5,1.6-1.9,2.1C133.3,285,133.1,285.4,133.1,285.3z"/>
						</g>
					</g>
				</g>
			</g>
			<g>
				<g>
					<g>
						<g>
							<path class="st1" d="M125.5,277.6c-0.4-0.1-1.7-0.3-4.6-0.7l0.1,0c-0.7,1.8-1.7,4.2-2.9,7.1l0-0.1c1.2,0.8,2.4,1.7,3.8,2.6
								l-0.2,0.1c0,0,0-0.1-0.1-0.1l0.2,0c-0.2,1.5-0.2,3.2,0.1,4.9l-0.2,0c0,0,0-0.1,0.1-0.1l0.2,0.1c-1.2,0.9-2.5,1.8-3.8,2.8
								l0-0.2c1,2.3,2,4.6,3.1,7.2l-0.2-0.1c1.4-0.3,3-0.6,4.6-0.9l0,0.3c-0.1,0-0.1,0-0.2-0.1l0.2-0.2c0.9,1.2,2.1,2.4,3.5,3.4
								l-0.3,0.2c0-0.1-0.1-0.1-0.1-0.2l0.3,0c-0.2,1.4-0.5,3-0.7,4.7l-0.1-0.2c2.3,0.9,4.8,1.9,7.3,2.9l-0.2,0.1
								c0.8-1.2,1.7-2.5,2.7-3.9l0.2,0.3c-0.1,0-0.1,0.1-0.2,0.1l-0.1-0.4c1.5,0.2,3.2,0.2,4.9-0.1l0,0.4c-0.1,0-0.1-0.1-0.2-0.1
								l0.2-0.3c0.9,1.2,1.8,2.5,2.8,3.8l-0.2-0.1c2.2-1,4.7-2,7.3-3.1l-0.1,0.2c-0.3-1.4-0.6-3-0.9-4.7l0.4,0
								c0,0.1-0.1,0.1-0.1,0.2l-0.3-0.3c1.2-0.9,2.4-2.1,3.4-3.5l0.3,0.3c-0.1,0-0.1,0.1-0.2,0.1l-0.1-0.4c1.4,0.2,3.1,0.5,4.7,0.7
								l-0.2,0.1c0.9-2.3,1.9-4.8,2.9-7.4l0.1,0.3c-1.2-0.8-2.6-1.7-3.9-2.7l0.4-0.3c0,0.1,0.1,0.1,0.1,0.2l-0.5,0.1
								c0.2-1.5,0.2-3.2-0.1-4.9l0.5,0.1c0,0.1-0.1,0.1-0.1,0.2l-0.4-0.3c1.2-0.9,2.5-1.8,3.8-2.8l-0.1,0.3c-1-2.2-2-4.7-3.1-7.2
								l0.3,0.1c-1.4,0.3-3,0.6-4.6,0.9l0-0.5c0.1,0,0.1,0,0.2,0.1l-0.3,0.4c-0.9-1.2-2.2-2.4-3.5-3.4l0.4-0.3
								c0,0.1,0.1,0.1,0.1,0.2l-0.5,0.1c0.2-1.4,0.5-3,0.7-4.7l0.2,0.3c-2.3-0.9-4.8-1.9-7.3-2.9l0.3-0.1c-0.8,1.2-1.7,2.5-2.6,3.9
								l-0.3-0.4c0,0,0.1,0,0.2-0.1l0.1,0.5c-1.5-0.2-3.2-0.2-4.9,0.1l0.1-0.5c0,0,0.1,0,0.1,0.1l-0.3,0.4c-0.9-1.2-1.8-2.5-2.8-3.8
								l0.3,0.1c-2.2,1-4.7,2-7.1,3.1l0.2-0.3c0.3,1.4,0.6,3,0.9,4.6l-0.5,0l0-0.1l0.4,0.3c-1,0.8-2.1,1.9-3,3l-0.2,0.3
								c0,0,0,0-0.1,0c0,0,0,0-0.1,0l0,0l0,0l0,0c0.1,0-0.2-0.3-0.3-0.1c0,0,0,0-0.1,0l0,0c0,0,0,0,0,0l0.5-0.5
								c0.3-0.4,0.6-0.7,1-1.1c0.7-0.7,1.4-1.3,2.1-1.9l-0.1,0.3c-0.3-1.5-0.5-3-0.8-4.5l0.5,0.1l-0.1,0.1l-0.3-0.4
								c2.3-1,4.6-2,6.9-3l0,0.5l-0.2,0l0.3-0.4c0.9,1.3,1.8,2.5,2.7,3.8l-0.2-0.1c1.7-0.3,3.4-0.3,5.1-0.1l-0.2,0.1
								c0.9-1.3,1.8-2.6,2.6-3.8l0.3,0.4l-0.2,0.1l0-0.5c2.4,0.9,4.7,1.9,7,2.8l-0.3,0.4l-0.1-0.2l0.5-0.1c-0.2,1.6-0.5,3.1-0.7,4.6
								l-0.1-0.2c1.4,1,2.7,2.3,3.7,3.6l-0.2-0.1c1.6-0.3,3.1-0.6,4.6-0.8l-0.1,0.5l-0.2-0.1l0.3-0.3c1,2.3,2,4.7,3,6.9l-0.5,0
								c0-0.1,0-0.2,0.1-0.3l0.4,0.3c-1.3,0.9-2.6,1.9-3.8,2.8l0.1-0.2c0.3,1.8,0.3,3.5,0.1,5.2l-0.1-0.2c1.3,0.9,2.6,1.8,3.9,2.7
								l-0.4,0.3c0-0.1-0.1-0.2-0.1-0.3l0.4,0c-1,2.4-1.9,4.7-2.8,7l-0.3-0.3c0.1,0,0.2-0.1,0.3-0.1l0.1,0.4
								c-1.6-0.3-3.1-0.5-4.6-0.7l0.2-0.1c-1.1,1.5-2.3,2.7-3.6,3.7l0.1-0.2c0.3,1.6,0.6,3.1,0.9,4.6l-0.4-0.1
								c0-0.1,0.1-0.2,0.1-0.3l0.3,0.3c-2.4,1-4.7,2-6.9,3l0-0.4c0.1,0,0.2,0.1,0.3,0.1l-0.2,0.3c-1-1.3-1.9-2.6-2.8-3.8l0.2,0.1
								c-1.8,0.3-3.5,0.3-5.2,0.1l0.2-0.1c-1,1.4-1.8,2.6-2.7,3.9l-0.2-0.3c0.1,0,0.2-0.1,0.3-0.1l0,0.4c-2.5-1-4.8-1.9-7-2.8
								l0.2-0.3c0,0.1,0.1,0.2,0.1,0.2l-0.3,0.1c0.3-1.7,0.5-3.2,0.7-4.6l0.1,0.2c-1.5-1.1-2.7-2.3-3.7-3.6l0.2,0.1
								c-1.7,0.3-3.2,0.6-4.6,0.9l0-0.3c0.1,0,0.1,0.1,0.2,0.1l-0.2,0.2c-1.1-2.6-2.1-4.8-3-6.9l0.3,0c0,0.1,0,0.1-0.1,0.2l-0.2-0.1
								c1.5-1.1,2.6-1.9,3.8-2.7l0,0.1c-0.3-2-0.2-3.6-0.1-5.1l0,0.1c-1.6-1.1-2.8-1.9-3.8-2.6l0.1-0.1c0,0.1,0,0.1,0,0.1l-0.2,0
								c1.2-3.1,2.1-5.3,2.8-7l0.1,0.1c0,0-0.1,0-0.1,0l0-0.1C124,277.3,125.2,277.5,125.5,277.6c0,0-0.4,0-1.1-0.1
								c-0.8-0.1-1.9-0.3-3.4-0.5l-0.2,0l0.1-0.1c0,0,0,0,0.1,0l0.1-0.1l-0.1,0.2c-0.7,1.7-1.5,4-2.7,7l-0.1,0.2l-0.1-0.3
								c0,0,0-0.1,0-0.1l-0.1-0.3l0.2,0.1c1.1,0.7,2.2,1.5,3.8,2.6l0.1,0l0,0.1c-0.2,1.4-0.2,3,0.1,5l0,0.1l-0.1,0
								c-1.1,0.8-2.3,1.7-3.7,2.8l-0.3,0.2l0.1-0.4c0-0.1,0-0.1,0.1-0.2l0.1-0.4l0.2,0.3c0.9,2.1,1.9,4.3,3,6.9l0.2,0.4l-0.4-0.2
								c-0.1,0-0.1-0.1-0.2-0.1l-0.4-0.2l0.4-0.1c1.4-0.3,2.9-0.5,4.6-0.9l0.1,0l0.1,0.1c1,1.2,2.1,2.4,3.6,3.5l0.1,0.1l0,0.1
								c-0.2,1.4-0.5,2.9-0.7,4.6l-0.1,0.5l-0.3-0.4c0-0.1-0.1-0.1-0.1-0.2l-0.3-0.4l0.5,0.2c2.2,0.9,4.5,1.8,7,2.8l0.5,0.2
								l-0.5,0.2c-0.1,0-0.2,0.1-0.3,0.1l-0.5,0.2l0.3-0.4c0.8-1.2,1.7-2.5,2.6-3.9l0.1-0.1l0.1,0c1.6,0.2,3.3,0.2,5.1-0.1l0.1,0
								l0.1,0.1c0.9,1.2,1.8,2.4,2.8,3.8l0.3,0.5l-0.6-0.2c-0.1,0-0.2,0-0.3-0.1l-0.6-0.2l0.5-0.2c2.2-1,4.5-2,6.9-3l0.6-0.2
								l-0.3,0.5c0,0.1-0.1,0.2-0.1,0.3l-0.3,0.5l-0.1-0.6c-0.3-1.5-0.6-3-0.9-4.6l0-0.1l0.1-0.1c1.3-1,2.5-2.2,3.5-3.6l0.1-0.1
								l0.1,0c1.5,0.2,3,0.5,4.6,0.7l0.6,0.1l-0.6,0.3c-0.1,0-0.2,0.1-0.3,0.1l-0.6,0.3l0.2-0.6c0.9-2.3,1.8-4.6,2.8-7l0.2-0.6
								l0.2,0.6c0,0.1,0.1,0.2,0.1,0.3l0.2,0.6l-0.6-0.4c-1.3-0.9-2.5-1.7-3.9-2.7l-0.1-0.1l0-0.1c0.2-1.7,0.2-3.4-0.1-5.1l0-0.1
								l0.1-0.1c1.2-0.9,2.5-1.8,3.8-2.8l0.6-0.4l-0.2,0.7c0,0.1,0,0.2-0.1,0.3l-0.2,0.7l-0.3-0.6c-1-2.3-2-4.6-3-6.9l-0.3-0.6
								l0.6,0.3l0.2,0.1l0.6,0.3l-0.7,0.1c-1.5,0.3-3.1,0.6-4.6,0.9l-0.1,0l-0.1-0.1c-1-1.3-2.2-2.5-3.6-3.5l-0.1-0.1l0-0.2
								c0.2-1.5,0.5-3.1,0.7-4.6l0.1-0.7l0.4,0.6l0.1,0.2l0.4,0.6l-0.7-0.3c-2.3-0.9-4.6-1.9-7-2.8l-0.7-0.3l0.7-0.2l0.2-0.1
								l0.7-0.2l-0.4,0.6c-0.9,1.3-1.8,2.5-2.6,3.8l-0.1,0.1l-0.2,0c-1.7-0.2-3.3-0.2-5,0.1l-0.2,0l-0.1-0.1
								c-0.9-1.2-1.8-2.5-2.7-3.8l-0.4-0.6l0.7,0.2l0.2,0l0.7,0.2l-0.7,0.3c-2.3,1-4.6,2-6.9,3l-0.7,0.3l0.3-0.7l0.1-0.1l0.4-0.7
								l0.1,0.7c0.3,1.5,0.5,3,0.8,4.5l0,0.2l-0.1,0.1c-0.7,0.6-1.4,1.2-2.1,1.8c-0.3,0.3-0.6,0.7-0.9,1l-0.5,0.5l0,0.1l0,0
								c0,0,0,0-0.1,0c-0.1,0.1-0.4-0.2-0.3-0.1l0,0l0,0l0,0c0,0,0-0.1,0-0.1c0-0.1,0.1-0.2,0.1-0.3l0.2-0.3c0.9-1.2,2-2.2,3-3.1
								l0.7-0.6l-0.3,0.9l0,0.1l-0.3,0.9l-0.2-0.9c-0.3-1.6-0.6-3.1-0.9-4.6l0-0.2l0.2-0.1c2.4-1.1,4.9-2.1,7.1-3.1l0.2-0.1l0.1,0.2
								c0.9,1.3,1.9,2.6,2.8,3.8l0.6,0.8l-0.9-0.4c-0.1,0-0.1,0-0.1-0.1l-0.8-0.4l0.9-0.1c1.7-0.3,3.5-0.3,5-0.1l0.9,0.1l-0.8,0.4
								c-0.1,0-0.1,0-0.2,0.1l-0.8,0.4l0.5-0.8c0.9-1.3,1.8-2.7,2.7-3.9l0.1-0.2l0.2,0.1c2.5,1,5,2,7.3,2.9l0.2,0.1l0,0.2
								c-0.3,1.6-0.5,3.2-0.7,4.7l-0.1,0.9l-0.3-0.8c0-0.1-0.1-0.1-0.1-0.2l-0.3-0.8l0.7,0.5c1.4,1,2.6,2.3,3.6,3.5l0.6,0.7
								l-0.8-0.3c-0.1,0-0.1-0.1-0.2-0.1l-0.8-0.3l0.9-0.2c1.6-0.3,3.2-0.6,4.6-0.9l0.2,0l0.1,0.2c1.1,2.5,2.2,5,3.1,7.2l0.1,0.2
								l-0.2,0.1c-1.3,1-2.6,1.9-3.8,2.8l-0.7,0.5l0.3-0.8c0-0.1,0.1-0.1,0.1-0.2l0.3-0.8l0.1,0.8c0.3,1.7,0.3,3.5,0.1,5l-0.1,0.8
								l-0.4-0.8c0-0.1-0.1-0.1-0.1-0.2l-0.4-0.8l0.7,0.5c1.4,0.9,2.7,1.9,3.9,2.7l0.2,0.1l-0.1,0.2c-1,2.6-2,5.1-2.9,7.4l-0.1,0.2
								l-0.2,0c-1.6-0.3-3.3-0.5-4.7-0.7l-0.8-0.1l0.7-0.3c0.1,0,0.2-0.1,0.2-0.1l0.7-0.3l-0.5,0.6c-1,1.4-2.3,2.7-3.5,3.6l-0.6,0.5
								l0.3-0.7c0-0.1,0.1-0.2,0.1-0.2l0.3-0.7l0.1,0.8c0.3,1.6,0.6,3.2,0.9,4.7l0,0.2l-0.2,0.1c-2.5,1.1-5,2.2-7.3,3.1l-0.2,0.1
								l-0.1-0.1c-1-1.3-1.9-2.7-2.8-3.8l-0.4-0.6l0.7,0.3c0.1,0,0.2,0.1,0.2,0.1l0.7,0.3l-0.7,0.1c-1.8,0.3-3.5,0.3-5,0.1l-0.7-0.1
								l0.6-0.3c0.1,0,0.1-0.1,0.2-0.1l0.6-0.3l-0.4,0.6c-0.9,1.4-1.9,2.7-2.7,3.9l-0.1,0.1l-0.1-0.1c-2.6-1-5.1-2-7.3-2.9l-0.1-0.1
								l0-0.1c0.3-1.6,0.5-3.2,0.7-4.7l0.1-0.6l0.2,0.6c0,0.1,0.1,0.1,0.1,0.2l0.2,0.6l-0.5-0.4c-1.4-1.1-2.6-2.3-3.6-3.5l-0.4-0.5
								l0.5,0.2c0.1,0,0.1,0,0.2,0.1l0.5,0.2l-0.6,0.1c-1.6,0.3-3.2,0.6-4.6,0.8l-0.1,0l0-0.1c-1.1-2.5-2.1-4.9-3.1-7.2l0-0.1
								l0.1-0.1c1.3-1,2.6-1.9,3.8-2.7l0.4-0.3l-0.2,0.4c0,0.1,0,0.1-0.1,0.1l-0.2,0.4l-0.1-0.4c-0.3-1.8-0.2-3.4,0-5l0-0.4l0.2,0.4
								c0,0,0,0.1,0.1,0.1l0.2,0.4l-0.3-0.2c-1.4-1-2.7-1.9-3.8-2.7l-0.1,0l0-0.1c1.2-2.9,2.2-5.3,2.9-7.1l0,0l0,0
								c1.5,0.3,2.6,0.5,3.4,0.6c0.4,0.1,0.7,0.1,0.9,0.2C125.5,277.5,125.5,277.6,125.5,277.6z"/>
						</g>
					</g>
				</g>
			</g>
		</g>
		<g>
			<g>
				<g>
					<path class="st1" d="M177,285.9c0.4-0.6,0.9-1.1,1.5-1.5l-0.4-1.9l2.9-1.3l1.1,1.6c0.7-0.1,1.4-0.1,2.1,0l1.1-1.6l3,1.2
						l-0.3,1.9c0.6,0.4,1.1,0.9,1.5,1.5l1.9-0.4l1.3,2.9l-1.6,1.1c0.1,0.7,0.1,1.4,0,2.1l1.6,1.1l-1.2,3l-1.9-0.3
						c-0.4,0.6-0.9,1.1-1.5,1.5l0.4,1.9l-2.9,1.3l-1.1-1.6c-0.7,0.1-1.4,0.1-2.1,0l-1.1,1.6l-3-1.2l0.3-1.9
						c-0.6-0.4-1.1-0.9-1.5-1.5l-1.9,0.4l-1.3-2.9l1.6-1.1c-0.1-0.7-0.1-1.4,0-2.1l-1.6-1.1l1.2-3L177,285.9L177,285.9z
						 M180.2,289.1c-0.7,1.8,0.2,3.7,1.9,4.4c1.8,0.7,3.7-0.2,4.4-1.9c0.7-1.8-0.2-3.7-1.9-4.4C182.9,286.5,180.9,287.4,180.2,289.1
						z"/>
				</g>
			</g>
			<g>
				<g>
					<g>
						<path class="st1" d="M180.2,289.1c0,0,0.1-0.3,0.4-0.8c0.3-0.4,0.9-1.1,1.9-1.3c0.5-0.1,1-0.2,1.6-0.1
							c0.6,0.1,1.2,0.4,1.7,0.8c0.3,0.2,0.5,0.5,0.7,0.8c0.2,0.3,0.3,0.6,0.4,1c0.2,0.7,0.1,1.5-0.1,2.2c-0.3,0.7-0.8,1.3-1.4,1.7
							c-0.3,0.2-0.6,0.3-1,0.4c-0.3,0.1-0.7,0.1-1,0.1c-0.7,0-1.3-0.2-1.8-0.5c-0.5-0.3-0.9-0.7-1.1-1.2c-0.5-0.9-0.5-1.7-0.4-2.3
							C180,289.4,180.2,289.1,180.2,289.1c0,0-0.1,0.3-0.2,0.8c-0.1,0.5,0,1.3,0.5,2.2c0.3,0.4,0.6,0.8,1.1,1.1
							c0.5,0.3,1.1,0.5,1.7,0.5c0.3,0,0.6,0,1-0.1c0.3-0.1,0.6-0.2,0.9-0.4c0.6-0.4,1.1-0.9,1.3-1.6c0.3-0.7,0.3-1.4,0.1-2.1
							c-0.1-0.3-0.2-0.6-0.4-0.9c-0.2-0.3-0.4-0.5-0.6-0.7c-0.5-0.4-1-0.7-1.6-0.8c-0.5-0.1-1.1-0.1-1.5,0.1
							c-0.9,0.3-1.5,0.8-1.8,1.2C180.3,288.9,180.2,289.2,180.2,289.1z"/>
					</g>
				</g>
			</g>
			<g>
				<g>
					<g>
						<path class="st1" d="M177,285.9c0,0,0,0-0.1,0c-0.1,0-0.2,0-0.4,0c-0.3,0-0.8-0.1-1.4-0.2l0,0c-0.3,0.8-0.7,1.8-1.2,3l0-0.1
							c0.5,0.3,1,0.7,1.6,1.1l0,0l0,0c-0.1,0.6-0.1,1.3,0,2.1l0,0l0,0c-0.5,0.4-1,0.7-1.6,1.1l0-0.1c0.4,0.9,0.8,1.9,1.3,2.9l-0.1,0
							c0.6-0.1,1.2-0.2,1.9-0.4l0,0l0,0c0.4,0.5,0.9,1,1.5,1.4l0,0l0,0.1c-0.1,0.6-0.2,1.2-0.3,1.9l-0.1-0.1c0.9,0.4,1.9,0.8,3,1.2
							l-0.1,0c0.3-0.5,0.7-1,1.1-1.6l0,0l0.1,0c0.6,0.1,1.4,0.1,2.1,0l0.1,0l0,0c0.4,0.5,0.7,1,1.1,1.6l-0.1,0
							c0.9-0.4,1.9-0.8,2.9-1.3l-0.1,0.1c-0.1-0.6-0.2-1.2-0.4-1.9l0-0.1l0,0c0.5-0.4,1-0.9,1.4-1.5l0,0l0,0l0.1,0
							c0.6,0.1,1.3,0.2,1.9,0.3l-0.1,0.1c0.4-1,0.8-2,1.2-3l0,0.1c-0.5-0.4-1.1-0.7-1.6-1.1l0,0l0-0.1c0.1-0.7,0.1-1.4,0-2.1l0-0.1
							l0,0c0.5-0.4,1-0.8,1.6-1.1l0,0.1c-0.4-1-0.9-2-1.3-2.9l0.1,0.1c-0.6,0.1-1.3,0.2-1.9,0.4l-0.1,0l0,0c-0.4-0.6-0.9-1-1.5-1.4
							l0,0l0-0.1c0.1-0.7,0.2-1.3,0.3-1.9l0.1,0.1c-1-0.4-2-0.8-3-1.2l0.1,0c-0.4,0.6-0.7,1.1-1.1,1.6l0,0l0,0
							c-0.7-0.1-1.4-0.1-2.1,0l0,0l0,0c-0.4-0.6-0.8-1.1-1.1-1.6l0.1,0c-1.1,0.5-2.1,0.9-2.9,1.3l0,0c0.1,0.8,0.2,1.4,0.3,1.9l0,0
							l0,0c-0.6,0.4-0.9,0.8-1.1,1.1C177.2,285.6,177.2,285.7,177,285.9C177,285.8,177,285.9,177,285.9c0,0,0,0,0.1-0.1
							c0.1-0.1,0.1-0.2,0.2-0.3c0.2-0.3,0.6-0.7,1.1-1.1l0,0c-0.1-0.5-0.2-1.1-0.4-1.9l0,0l0,0c0.8-0.4,1.8-0.8,2.9-1.3l0,0l0,0
							c0.4,0.5,0.7,1,1.1,1.6l-0.1,0c0.7-0.1,1.4-0.1,2.1,0l-0.1,0c0.3-0.5,0.7-1,1.1-1.6l0,0l0.1,0c0.9,0.4,1.9,0.8,3,1.2l0.1,0
							l0,0.1c-0.1,0.6-0.2,1.3-0.3,1.9l0-0.1c0.6,0.4,1.1,0.9,1.5,1.5l-0.1,0c0.6-0.1,1.3-0.2,1.9-0.4l0.1,0l0,0.1
							c0.4,1,0.8,1.9,1.3,2.9l0,0.1l-0.1,0c-0.5,0.4-1,0.8-1.6,1.1l0-0.1c0.1,0.7,0.1,1.4,0,2.1l0-0.1c0.5,0.4,1.1,0.7,1.6,1.1
							l0.1,0l0,0.1c-0.4,1-0.8,2-1.2,3l0,0.1l-0.1,0c-0.6-0.1-1.3-0.2-1.9-0.3l0.1,0l0,0c-0.4,0.6-0.9,1.1-1.5,1.5l0-0.1
							c0.1,0.7,0.2,1.3,0.4,1.9l0,0.1l-0.1,0c-1,0.4-2,0.9-2.9,1.3l-0.1,0l0-0.1c-0.4-0.5-0.8-1.1-1.1-1.6l0.1,0
							c-0.7,0.1-1.5,0.1-2.1,0l0.1,0c-0.4,0.6-0.8,1.1-1.1,1.6l0,0.1l-0.1,0c-1-0.4-2-0.8-3-1.2l-0.1,0l0-0.1
							c0.1-0.7,0.2-1.3,0.3-1.9l0,0.1c-0.6-0.4-1.1-1-1.5-1.5l0.1,0c-0.7,0.1-1.3,0.2-1.9,0.3l-0.1,0l0-0.1c-0.4-1-0.9-2-1.3-2.9
							l0-0.1l0,0c0.5-0.4,1.1-0.8,1.6-1.1l0,0.1c-0.1-0.7-0.1-1.4,0-2.1l0,0.1c-0.6-0.4-1.1-0.8-1.6-1.1l0,0l0,0
							c0.5-1.2,0.9-2.2,1.2-3l0,0l0,0c0.6,0.1,1.1,0.2,1.4,0.2c0.2,0,0.3,0,0.4,0.1C177,285.8,177,285.9,177,285.9z"/>
					</g>
				</g>
			</g>
		</g>
		<g>
			<g>
				<g>
					<path class="st0" d="M162.7,244.5c0.7-0.9,1.5-1.8,2.4-2.5l-0.6-3.2l4.9-2.1l1.9,2.6c1.1-0.2,2.3-0.2,3.5-0.1l1.8-2.7l5,2
						l-0.5,3.2c0.9,0.7,1.8,1.5,2.5,2.4l3.2-0.6l2.1,4.9l-2.6,1.9c0.2,1.1,0.2,2.3,0,3.5l2.7,1.8l-2,5l-3.2-0.5
						c-0.7,0.9-1.5,1.8-2.4,2.5l0.6,3.2l-4.9,2.1l-1.9-2.6c-1.1,0.2-2.3,0.2-3.5,0.1l-1.8,2.7l-5-2l0.5-3.2
						c-0.9-0.7-1.8-1.5-2.5-2.4l-3.2,0.6l-2.1-4.9l2.6-1.9c-0.2-1.1-0.2-2.3-0.1-3.5l-2.7-1.8l2-5L162.7,244.5L162.7,244.5z
						 M168.1,250c-1.2,2.9,0.3,6.3,3.2,7.4c2.9,1.2,6.3-0.3,7.4-3.2c1.2-2.9-0.3-6.3-3.2-7.4C172.6,245.6,169.2,247,168.1,250z"/>
				</g>
			</g>
			<g>
				<g>
					<g>
						<path class="st0" d="M168.1,250c0,0,0.1-0.5,0.6-1.3c0.5-0.7,1.5-1.8,3.1-2.2c0.8-0.2,1.7-0.3,2.7-0.1c1,0.2,2,0.6,2.8,1.4
							c0.4,0.4,0.8,0.8,1.1,1.3c0.3,0.5,0.6,1,0.7,1.6c0.3,1.2,0.2,2.5-0.2,3.7c-0.5,1.2-1.3,2.2-2.4,2.8c-0.5,0.3-1.1,0.6-1.6,0.7
							c-0.6,0.1-1.1,0.2-1.7,0.2c-1.1,0-2.1-0.4-3-0.9c-0.8-0.5-1.4-1.2-1.9-1.9c-0.8-1.4-0.9-2.9-0.7-3.8
							C167.8,250.4,168.1,250,168.1,250c0,0-0.2,0.5-0.3,1.4c-0.1,0.9,0,2.3,0.8,3.6c0.4,0.7,1,1.3,1.8,1.8c0.8,0.5,1.8,0.8,2.8,0.8
							c0.5,0,1.1,0,1.6-0.2c0.5-0.1,1.1-0.4,1.5-0.7c1-0.6,1.8-1.5,2.2-2.7c0.4-1.1,0.5-2.4,0.2-3.5c-0.1-0.6-0.4-1.1-0.7-1.5
							c-0.3-0.5-0.6-0.9-1-1.2c-0.8-0.7-1.7-1.1-2.6-1.3c-0.9-0.2-1.8-0.1-2.6,0.1c-1.6,0.4-2.6,1.4-3.1,2.1
							C168.3,249.5,168.1,250,168.1,250z"/>
					</g>
				</g>
			</g>
			<g>
				<g>
					<g>
						<path class="st0" d="M162.7,244.5c0,0-0.1,0-0.2,0c-0.1,0-0.3,0-0.6-0.1c-0.6-0.1-1.4-0.2-2.4-0.3l0.1,0
							c-0.5,1.3-1.2,2.9-1.9,5l0-0.1c0.8,0.5,1.7,1.2,2.7,1.8l0,0l0,0.1c-0.1,1.1-0.1,2.2,0.1,3.5l0,0.1l-0.1,0
							c-0.8,0.6-1.7,1.2-2.6,1.9l0-0.1c0.7,1.5,1.4,3.2,2.1,4.9l-0.1-0.1c1-0.2,2.1-0.4,3.2-0.6l0.1,0l0.1,0.1
							c0.7,0.8,1.5,1.7,2.5,2.4l0.1,0.1l0,0.1c-0.2,1-0.3,2.1-0.5,3.2l-0.1-0.2c1.6,0.6,3.2,1.3,5,2l-0.2,0.1
							c0.6-0.8,1.2-1.7,1.8-2.7l0.1-0.1l0.1,0c1.1,0.1,2.3,0.1,3.4-0.1l0.1,0l0.1,0.1c0.6,0.8,1.2,1.7,1.9,2.6l-0.2-0.1
							c1.6-0.7,3.2-1.4,4.9-2.1l-0.1,0.2c-0.2-1-0.4-2.1-0.6-3.2l0-0.1l0.1-0.1c0.9-0.7,1.7-1.5,2.4-2.5l0,0l0.1-0.1l0.1,0
							c1.1,0.2,2.1,0.3,3.2,0.5l-0.2,0.1c0.7-1.7,1.3-3.3,2-5l0.1,0.2c-0.9-0.6-1.8-1.2-2.7-1.8l-0.1-0.1l0-0.1
							c0.1-1.2,0.1-2.3,0-3.4l0-0.1l0.1-0.1c0.9-0.6,1.8-1.3,2.6-1.9l-0.1,0.2c-0.7-1.7-1.4-3.3-2.1-4.9l0.2,0.1
							c-1.1,0.2-2.1,0.4-3.2,0.6l-0.1,0l-0.1-0.1c-0.7-0.9-1.6-1.7-2.5-2.4l-0.1-0.1l0-0.1c0.2-1.1,0.3-2.1,0.5-3.2l0.1,0.1
							c-1.7-0.7-3.4-1.4-5-2l0.2,0c-0.6,0.9-1.2,1.8-1.8,2.7l0,0.1l-0.1,0c-1.2-0.1-2.4-0.1-3.4,0l-0.1,0l0-0.1
							c-0.7-0.9-1.3-1.8-1.9-2.6l0.1,0c-1.9,0.8-3.5,1.5-4.9,2.1l0-0.1c0.2,1.3,0.4,2.3,0.6,3.2l0,0l0,0c-0.9,0.7-1.5,1.4-1.9,1.8
							c-0.2,0.2-0.3,0.4-0.4,0.5C162.8,244.4,162.7,244.5,162.7,244.5c0,0,0-0.1,0.1-0.2c0.1-0.1,0.2-0.3,0.4-0.5
							c0.4-0.4,1-1.1,1.9-1.8l0,0.1c-0.2-0.9-0.4-1.9-0.6-3.2l0-0.1l0.1,0c1.4-0.6,3-1.3,4.9-2.1l0.1,0l0,0.1
							c0.6,0.8,1.2,1.7,1.9,2.6l-0.1,0c1.1-0.2,2.3-0.2,3.5-0.1l-0.1,0.1c0.6-0.8,1.2-1.7,1.8-2.7l0.1-0.1l0.1,0
							c1.6,0.6,3.2,1.3,5,2l0.1,0l0,0.1c-0.2,1-0.3,2.1-0.5,3.2l-0.1-0.1c0.9,0.7,1.8,1.5,2.5,2.4l-0.1-0.1c1-0.2,2.1-0.4,3.2-0.6
							l0.1,0l0,0.1c0.7,1.6,1.4,3.2,2.1,4.9l0,0.1l-0.1,0.1c-0.9,0.6-1.7,1.3-2.6,1.9l0.1-0.2c0.2,1.1,0.2,2.3,0.1,3.5l-0.1-0.2
							c0.9,0.6,1.8,1.2,2.7,1.8l0.1,0.1l0,0.1c-0.6,1.6-1.3,3.3-2,5l0,0.1l-0.1,0c-1.1-0.2-2.1-0.3-3.2-0.5l0.2-0.1l0,0
							c-0.7,1-1.6,1.8-2.5,2.5l0.1-0.2c0.2,1.1,0.4,2.2,0.6,3.2l0,0.1l-0.1,0.1c-1.7,0.7-3.3,1.4-4.9,2.1l-0.1,0.1L177,268
							c-0.7-0.9-1.3-1.8-1.9-2.6l0.2,0.1c-1.2,0.2-2.4,0.2-3.5,0l0.1-0.1c-0.6,0.9-1.3,1.8-1.8,2.7l-0.1,0.1l-0.1,0
							c-1.7-0.7-3.4-1.4-5-2l-0.1,0l0-0.1c0.2-1.1,0.3-2.2,0.5-3.2l0.1,0.1c-1-0.7-1.8-1.6-2.5-2.5l0.1,0c-1.1,0.2-2.2,0.4-3.2,0.6
							l-0.1,0l0-0.1c-0.7-1.7-1.4-3.4-2.1-4.9l0-0.1l0.1-0.1c0.9-0.7,1.8-1.3,2.6-1.9l0,0.1c-0.2-1.2-0.2-2.4,0-3.5l0,0.1
							c-1-0.7-1.8-1.3-2.7-1.8l-0.1,0l0-0.1c0.8-2,1.5-3.7,2-4.9l0,0l0,0c1,0.2,1.8,0.3,2.4,0.4c0.3,0,0.5,0.1,0.6,0.1
							C162.7,244.4,162.7,244.5,162.7,244.5z"/>
					</g>
				</g>
			</g>
		</g>
	</g>
	<g>
		<path class="st0" d="M342.8,320.9l41.3-6.3c3.5,22.7-12.3,44.2-35,47.7c-22.7,3.5-44.2-12.3-47.7-35c-3.5-22.7,12.3-44.2,35-47.7
			c3.6-0.6,7.3-0.6,10.9-0.2L342.8,320.9z"/>
		<path class="st1" d="M356.2,279.5l-5,32.1l31.5-5.9C382.7,305.6,378.1,287.7,356.2,279.5z"/>
	</g>
</g>
<g id="Background_Simple" class="st4">
	<path class="st5" d="M193.7,346.1c-33.3-16.3-63.2-40.7-81.8-72.8c-18.6-32-24.9-72-12.7-107c12.2-35,44.3-63.3,81.2-66.9
		c15.5-1.5,31.9,1.4,44.1,11.1c14.2,11.2,20.6,29.2,29.5,44.9c8.9,15.7,24,31.1,41.9,29.2c10.3-1,19.1-7.6,28.6-11.6
		c29.9-12.7,67.3,1.7,84.7,29.1c17.4,27.4,15.9,64.3,0.4,92.8c-15.6,28.5-43.6,48.9-74.1,59.9c-39.9,14.4-85.1,13.6-124.5-2.1"/>
	<path class="st5" d="M350.8,84.6c-7.5-12-15.4-19.4-27.3-19.9l1.4-0.1c-3.9-0.3-7.8,0.1-11.5,1.1c0,0,0,0,0,0l0,0
		C302.5,68.5,293,76.5,288.9,87c-5.4,14.1-0.3,31.7,12,40.5c12.3,8.9,30.6,8.2,42.1-1.6S358.8,97.4,350.8,84.6z"/>
</g>
<g id="Floor">
	<g>
		<path class="st6" d="M449.2,456.8c0,0.1-92.2,0.3-205.9,0.3c-113.7,0-205.9-0.1-205.9-0.3s92.2-0.3,205.9-0.3
			C357,456.6,449.2,456.7,449.2,456.8z"/>
	</g>
</g>
<g id="Graphics">
	<g>
		<g>
			<rect x="282.5" y="97.2" class="st7" width="179.1" height="155.4"/>
			<g>
				<path class="st6" d="M461.6,252.6c0,0,0-1,0-2.9c0-1.9,0-4.7,0-8.3c0-7.3,0-17.9-0.1-31.5c0-27.1-0.1-66-0.1-112.7l0.2,0.2
					c-51.4,0-113,0-179,0h0l0.3-0.3c0,56.4,0,109.6,0,155.4l-0.2-0.2c53.4,0,98.1,0.1,129.5,0.1c15.7,0,28.1,0,36.5,0.1
					c4.2,0,7.5,0,9.7,0c1.1,0,1.9,0,2.5,0C461.3,252.6,461.6,252.6,461.6,252.6s-0.3,0-0.8,0c-0.6,0-1.4,0-2.5,0c-2.2,0-5.4,0-9.6,0
					c-8.4,0-20.8,0-36.5,0.1c-31.4,0-76.2,0.1-129.7,0.1l-0.2,0l0-0.2c0-45.8,0-99,0-155.4l0-0.3h0.3h0c66,0,127.6,0,179,0l0.2,0
					l0,0.2c0,46.8-0.1,85.7-0.1,112.9c0,13.6,0,24.2-0.1,31.5c0,3.6,0,6.4,0,8.3C461.6,251.7,461.6,252.6,461.6,252.6z"/>
			</g>
		</g>
		<g>
			<path class="st1" d="M445.1,139c0,0-0.2,0-0.7,0c-0.5,0-1.2,0-2.1,0c-1.9,0-4.7,0-8.2,0c-7.2,0-17.6,0-30.7,0.1
				c-26.1,0-62.6,0.1-104.2,0.1l0.3-0.3c0,11.4,0,23.2,0,35.3c0,12.5,0,24.6,0,36.4l-0.3-0.3c41.4,0,77.6,0.1,103.5,0.1
				c12.9,0,23.3,0.1,30.4,0.1c3.6,0,6.3,0,8.2,0c0.9,0,1.6,0,2.1,0c0.5,0,0.7,0,0.7,0s-0.2,0-0.7,0c-0.5,0-1.2,0-2.1,0
				c-1.9,0-4.6,0-8.2,0c-7.1,0-17.5,0-30.4,0.1c-25.9,0-62.2,0.1-103.5,0.1l-0.3,0l0-0.3c0-11.8,0-23.9,0-36.4c0-12.1,0-23.9,0-35.3
				v-0.3l0.3,0c41.6,0,78.1,0.1,104.2,0.1c13,0,23.5,0.1,30.7,0.1c3.6,0,6.4,0,8.2,0c0.9,0,1.6,0,2.1,0
				C444.8,139,445.1,139,445.1,139z"/>
		</g>
		<g>
			<path class="st1" d="M445.1,151.1c0,0.1-32.7,0.3-73,0.3c-40.3,0-73-0.1-73-0.3c0-0.1,32.7-0.3,73-0.3
				C412.4,150.9,445.1,151,445.1,151.1z"/>
		</g>
		<g>
			<path class="st1" d="M445.1,161c0,0.1-32.7,0.3-73,0.3c-40.3,0-73-0.1-73-0.3c0-0.1,32.7-0.3,73-0.3
				C412.4,160.7,445.1,160.9,445.1,161z"/>
		</g>
		<g>
			<path class="st1" d="M445.1,170.9c0,0.1-32.7,0.3-73,0.3c-40.3,0-73-0.1-73-0.3c0-0.1,32.7-0.3,73-0.3
				C412.4,170.6,445.1,170.7,445.1,170.9z"/>
		</g>
		<g>
			<path class="st1" d="M445.1,180.8c0,0.1-32.7,0.3-73,0.3c-40.3,0-73-0.1-73-0.3c0-0.1,32.7-0.3,73-0.3
				C412.4,180.5,445.1,180.6,445.1,180.8z"/>
		</g>
		<g>
			<path class="st1" d="M445.1,190.6c0,0.1-32.7,0.3-73,0.3c-40.3,0-73-0.1-73-0.3s32.7-0.3,73-0.3
				C412.4,190.4,445.1,190.5,445.1,190.6z"/>
		</g>
		<g>
			<path class="st1" d="M299,200.5c0-0.1,32.7-0.3,73-0.3c40.3,0,73,0.1,73,0.3c0,0.1-32.7,0.3-73,0.3
				C331.7,200.8,299,200.7,299,200.5z"/>
		</g>
		<g>
			<ellipse class="st1" cx="327.9" cy="175.5" rx="0.3" ry="36.4"/>
		</g>
		<g>
			<ellipse class="st1" cx="357.2" cy="175.5" rx="0.3" ry="36.4"/>
		</g>
		<g>
			<ellipse class="st1" cx="386.5" cy="175.5" rx="0.3" ry="36.4"/>
		</g>
		<g>
			<ellipse class="st1" cx="415.8" cy="175.5" rx="0.3" ry="36.4"/>
		</g>
		<g>
			<ellipse class="st1" cx="445.1" cy="175.5" rx="0.3" ry="36.4"/>
		</g>
		<g>
			<path class="st8" d="M445.1,151.1c0,0-0.4,0.3-1.1,0.9c-0.8,0.5-1.9,1.3-3.3,2.3c-2.9,2-7.1,4.9-12.3,8.5
				c-10.4,7.2-25,17.1-41.6,28.3l-0.2,0.1l-0.2-0.1c-4-1.3-8.2-2.8-12.4-4.2c-5.8-2-11.4-3.9-16.8-5.7l0.4-0.1
				c-11.1,7.4-21.1,14.1-29.3,19.7l0,0l0,0c-8.9,3.1-16.1,5.6-21.2,7.3c-2.5,0.8-4.5,1.5-5.8,1.9c-0.7,0.2-1.2,0.4-1.5,0.5
				c-0.3,0.1-0.5,0.1-0.5,0.1c0,0,0.2-0.1,0.5-0.2c0.4-0.1,0.9-0.3,1.5-0.6c1.3-0.5,3.3-1.2,5.7-2.2c5-1.8,12.2-4.4,21.1-7.7l-0.1,0
				c8.2-5.6,18.2-12.4,29.2-19.9l0.2-0.1l0.2,0.1c5.4,1.8,11.1,3.7,16.8,5.7c4.3,1.4,8.4,2.9,12.4,4.2l-0.5,0.1
				c16.6-11.2,31.3-21,41.8-28c5.3-3.5,9.5-6.3,12.4-8.2c1.5-0.9,2.6-1.7,3.4-2.2C444.6,151.3,445,151.1,445.1,151.1z"/>
		</g>
		<circle class="st8" cx="327.9" cy="200.5" r="1.8"/>
		<circle class="st8" cx="357.2" cy="180.8" r="1.8"/>
		<circle class="st8" cx="386.5" cy="190.5" r="1.8"/>
		<circle class="st8" cx="416.1" cy="171" r="1.8"/>
		<g>
			<path class="st9" d="M445.1,200.5c0,0-0.2-0.1-0.6-0.3c-0.4-0.2-0.9-0.6-1.6-1c-1.4-0.9-3.4-2.2-5.9-3.8
				c-5.1-3.4-12.5-8.2-21.5-14.1h0.4c-8.3,5.6-18.3,12.3-29.2,19.7l-0.4,0.3l-0.3-0.4c-4.8-6.5-10-13.5-15.4-20.8
				c-4.8-6.5-9.5-12.8-13.9-18.8l0.8,0.1c-11.2,11.3-21.2,21.4-29.4,29.6l-0.1,0.1l-0.1,0c-9.2,3-16.6,5.4-21.8,7.1
				c-2.6,0.8-4.6,1.4-5.9,1.9c-0.7,0.2-1.2,0.4-1.6,0.5c-0.4,0.1-0.5,0.1-0.5,0.1c0,0,0.2-0.1,0.5-0.2c0.4-0.1,0.9-0.3,1.5-0.6
				c1.4-0.5,3.3-1.2,5.9-2.1c5.1-1.8,12.5-4.3,21.7-7.4l-0.2,0.1c8.1-8.2,18.1-18.4,29.2-29.7l0.4-0.4l0.4,0.5
				c4.4,6,9.1,12.3,13.9,18.8c5.4,7.2,10.5,14.3,15.4,20.8l-0.7-0.1c11-7.3,21-13.9,29.3-19.5l0.2-0.1l0.2,0.1
				c8.9,6.1,16.2,11,21.3,14.4c2.5,1.7,4.4,3.1,5.8,4c0.6,0.5,1.1,0.8,1.5,1.1C444.9,200.4,445.1,200.5,445.1,200.5z"/>
		</g>
		<circle class="st9" cx="357.2" cy="161" r="1.8"/>
		<circle class="st9" cx="327.9" cy="190.6" r="1.8"/>
		<circle class="st9" cx="386.5" cy="200.5" r="1.8"/>
		<circle class="st9" cx="415.8" cy="182.5" r="1.8"/>
		<g>
			<ellipse class="st1" cx="312.9" cy="219" rx="2.8" ry="0.3"/>
		</g>
		<g>
			<ellipse class="st1" cx="342.8" cy="219" rx="2.8" ry="0.3"/>
		</g>
		<g>
			<ellipse class="st1" cx="372.8" cy="219" rx="2.8" ry="0.3"/>
		</g>
		<g>
			<ellipse class="st1" cx="402.7" cy="219" rx="2.8" ry="0.3"/>
		</g>
		<g>
			<ellipse class="st1" cx="432.6" cy="219" rx="2.8" ry="0.3"/>
		</g>
		<g>
			<g>
				<ellipse class="st1" cx="292.6" cy="210.4" rx="2.3" ry="0.3"/>
			</g>
			<g>
				<ellipse class="st1" cx="292.6" cy="198.9" rx="2.3" ry="0.3"/>
			</g>
			<g>
				<ellipse class="st1" cx="292.6" cy="187.4" rx="2.3" ry="0.3"/>
			</g>
			<g>
				<ellipse class="st1" cx="292.6" cy="175.9" rx="2.3" ry="0.3"/>
			</g>
			<g>
				<ellipse class="st1" cx="292.6" cy="164.4" rx="2.3" ry="0.3"/>
			</g>
			<g>
				<ellipse class="st1" cx="292.6" cy="152.9" rx="2.3" ry="0.3"/>
			</g>
			<g>
				<ellipse class="st1" cx="292.6" cy="141.4" rx="2.3" ry="0.3"/>
			</g>
		</g>
		<rect x="298.3" y="114.2" class="st8" width="42" height="3"/>
		<g>
			<path class="st6" d="M415.1,122.9c0,0.1-26.2,0.3-58.6,0.3c-32.4,0-58.6-0.1-58.6-0.3c0-0.1,26.2-0.3,58.6-0.3
				C388.9,122.6,415.1,122.7,415.1,122.9z"/>
		</g>
		<g>
			<ellipse class="st6" cx="336.6" cy="233.3" rx="35.7" ry="0.3"/>
		</g>
		<g>
			<ellipse class="st6" cx="310.4" cy="238.7" rx="7.6" ry="0.3"/>
		</g>
		<g>
			<ellipse class="st6" cx="411.7" cy="232.4" rx="25.4" ry="0.3"/>
		</g>
		<g>
			<ellipse class="st6" cx="401.5" cy="235.8" rx="7.9" ry="0.3"/>
		</g>
	</g>
	<g>
		<g>
			<rect x="85.7" y="130" class="st7" width="97.4" height="87.2"/>
			<g>
				<path class="st6" d="M183.1,217.2c0,0,0-0.6,0-1.6c0-1.1,0-2.6,0-4.7c0-4.1,0-10.1-0.1-17.7c0-15.2-0.1-37-0.1-63.2l0.2,0.2
					c-28.1,0-61.6,0-97.4,0h0l0.3-0.3c0,31.7,0,61.6,0,87.2l-0.2-0.2c29.1,0,53.4,0.1,70.5,0.1c8.5,0,15.3,0,19.9,0.1
					c2.3,0,4.1,0,5.3,0c0.6,0,1,0,1.4,0C182.9,217.2,183.1,217.2,183.1,217.2s-0.1,0-0.4,0c-0.3,0-0.8,0-1.3,0c-1.2,0-2.9,0-5.2,0
					c-4.6,0-11.3,0-19.8,0.1c-17.1,0-41.5,0.1-70.6,0.1l-0.2,0l0-0.2c0-25.6,0-55.5,0-87.2l0-0.3h0.3h0c35.9,0,69.4,0,97.4,0l0.2,0
					l0,0.2c0,26.3-0.1,48.1-0.1,63.3c0,7.6,0,13.6-0.1,17.6c0,2,0,3.6,0,4.6C183.1,216.7,183.1,217.2,183.1,217.2z"/>
			</g>
		</g>
		<g>
			<ellipse class="st6" cx="111.6" cy="145.5" rx="11.5" ry="0.3"/>
		</g>
		<g>
			<ellipse class="st6" cx="132.8" cy="152.1" rx="31.5" ry="0.3"/>
		</g>
		<rect x="100.3" y="163.2" class="st6" width="4.1" height="4.1"/>
		<rect x="110.4" y="163.2" class="st6" width="4.1" height="4.1"/>
		<rect x="120.7" y="163" class="st8" width="4.1" height="4.1"/>
		<rect x="130.6" y="163.2" class="st6" width="4.1" height="4.1"/>
		<rect x="140.7" y="163.2" class="st6" width="4.1" height="4.1"/>
		<rect x="150.8" y="163.2" class="st6" width="4.1" height="4.1"/>
		<rect x="160.9" y="163.2" class="st6" width="4.1" height="4.1"/>
		<rect x="100.3" y="171.9" class="st6" width="4.1" height="4.1"/>
		<rect x="110.4" y="171.9" class="st6" width="4.1" height="4.1"/>
		<rect x="120.5" y="171.9" class="st6" width="4.1" height="4.1"/>
		<rect x="130.6" y="171.9" class="st6" width="4.1" height="4.1"/>
		<rect x="140.7" y="171.9" class="st6" width="4.1" height="4.1"/>
		<rect x="151" y="171.7" class="st8" width="4.1" height="4.1"/>
		<rect x="160.9" y="171.9" class="st6" width="4.1" height="4.1"/>
		<rect x="100.3" y="180.6" class="st6" width="4.1" height="4.1"/>
		<rect x="110.6" y="180.4" class="st8" width="4.1" height="4.1"/>
		<rect x="120.5" y="180.6" class="st6" width="4.1" height="4.1"/>
		<rect x="130.6" y="180.6" class="st6" width="4.1" height="4.1"/>
		<rect x="140.7" y="180.6" class="st6" width="4.1" height="4.1"/>
		<rect x="150.8" y="180.6" class="st6" width="4.1" height="4.1"/>
		<rect x="160.9" y="180.6" class="st6" width="4.1" height="4.1"/>
		<rect x="100.3" y="189.4" class="st6" width="4.1" height="4.1"/>
		<rect x="110.4" y="189.4" class="st6" width="4.1" height="4.1"/>
		<rect x="120.5" y="189.4" class="st6" width="4.1" height="4.1"/>
		<rect x="130.8" y="189.2" class="st8" width="4.1" height="4.1"/>
		<rect x="140.7" y="189.4" class="st6" width="4.1" height="4.1"/>
		<rect x="150.8" y="189.4" class="st6" width="4.1" height="4.1"/>
		<rect x="160.9" y="189.4" class="st6" width="4.1" height="4.1"/>
		<rect x="100.3" y="198.1" class="st6" width="4.1" height="4.1"/>
		<rect x="110.4" y="198.1" class="st6" width="4.1" height="4.1"/>
		<rect x="120.5" y="198.1" class="st6" width="4.1" height="4.1"/>
		<rect x="130.6" y="198.1" class="st6" width="4.1" height="4.1"/>
		<rect x="140.7" y="198.1" class="st6" width="4.1" height="4.1"/>
		<rect x="151" y="197.9" class="st8" width="4.1" height="4.1"/>
		<rect x="160.9" y="198.1" class="st6" width="4.1" height="4.1"/>
	</g>
	<g>
		<g>
			<path class="st6" d="M177.9,95.2c0,0,0-0.1,0-0.4c0-0.3,0-0.6,0-1c0-0.9,0-2.2-0.1-3.8c0-3.3-0.1-7.9-0.1-13.4l0.2,0.2
				c-4.4,0-9.5,0-14.8,0c-0.1,0.1,0.5-0.5,0.3-0.3v0v0v0v0v0.1v0.2v0.3l0,0.6c0,0.4,0,0.9,0,1.3c0,0.8,0,1.7,0,2.5
				c0,1.7,0,3.3,0,4.8c0,3.1,0,6.1,0,8.7l-0.2-0.2c4.4,0,8,0.1,10.7,0.1c1.3,0,2.3,0,3,0.1C177.5,95.2,177.9,95.2,177.9,95.2
				s-0.3,0-1,0c-0.7,0-1.7,0-3,0.1c-2.7,0-6.4,0.1-10.8,0.1l-0.2,0l0-0.2c0-2.7,0-5.6,0-8.7c0-1.6,0-3.2,0-4.8c0-0.8,0-1.7,0-2.5
				c0-0.4,0-0.8,0-1.3l0-0.6v-0.3l0-0.2v-0.1v0v0v0v0c-0.2,0.2,0.3-0.3,0.3-0.3c5.3,0,10.4,0,14.8,0l0.2,0l0,0.2
				c0,5.5-0.1,10.2-0.1,13.6c0,1.6,0,2.9-0.1,3.8c0,0.4,0,0.7,0,1C178,95.1,178,95.2,177.9,95.2z"/>
		</g>
		<g>
			<path class="st6" d="M197.6,95.2c0,0,0-0.1,0-0.2c0-0.2,0-0.4,0-0.7c0-0.6,0-1.5,0-2.6c0-2.3,0-5.6-0.1-9.6
				c0-8.2-0.1-19.7-0.1-32.8l0.3,0.3c-4.4,0-9,0-13.8,0c0.5-0.5,0.1-0.1,0.3-0.2v0v0v0.1v0.1v0.2v0.4l0,0.9c0,0.6,0,1.2,0,1.7
				c0,1.1,0,2.3,0,3.4c0,2.3,0,4.5,0,6.6c0,4.3,0,8.5,0,12.4c0,7.8-0.1,14.7-0.1,20l-0.2-0.2c4.3,0,7.7,0.1,10.1,0.1
				c1.2,0,2.1,0,2.7,0c0.3,0,0.5,0,0.7,0C197.5,95.2,197.6,95.2,197.6,95.2c0,0-0.1,0-0.2,0c-0.2,0-0.4,0-0.7,0c-0.6,0-1.5,0-2.7,0
				c-2.4,0-5.9,0.1-10.2,0.1l-0.2,0l0-0.2c0-5.4,0-12.2-0.1-20c0-3.9,0-8.1,0-12.4c0-2.2,0-4.4,0-6.6c0-1.1,0-2.3,0-3.4
				c0-0.6,0-1.1,0-1.7l0-0.9v-0.4v-0.2v-0.1v-0.1v0v0c0.1-0.1-0.3,0.2,0.3-0.3c4.8,0,9.4,0,13.8,0l0.3,0l0,0.3
				c0,13.2-0.1,24.7-0.1,33c0,4.1-0.1,7.3-0.1,9.6c0,1.1,0,1.9,0,2.6c0,0.3,0,0.5,0,0.7C197.6,95.1,197.6,95.2,197.6,95.2z"/>
		</g>
		<g>
			<path class="st6" d="M217.7,95.2c0,0,0-0.2,0-0.6c0-0.4,0-0.9,0-1.6c0-1.4,0-3.4-0.1-5.8c0-5-0.1-11.9-0.1-20l0.2,0.2
				c-4.3,0-9,0-13.9,0c-0.1,0.1,0.5-0.5,0.3-0.3v0v0v0v0.1v0.1v0.3l0,0.5l0,1c0,0.7,0,1.3,0,2c0,1.3,0,2.6,0,3.9c0,2.5,0,5,0,7.4
				c0,4.7,0,9,0,12.6l-0.2-0.2c4.2,0,7.7,0.1,10.1,0.1c1.2,0,2.1,0,2.8,0c0.3,0,0.5,0,0.7,0C217.6,95.2,217.7,95.2,217.7,95.2
				c0,0-0.3,0-0.9,0c-0.7,0-1.6,0-2.8,0c-2.5,0-6,0.1-10.3,0.1l-0.2,0l0-0.2c0-3.7,0-7.9,0-12.6c0-2.4,0-4.8,0-7.4
				c0-1.3,0-2.6,0-3.9c0-0.7,0-1.3,0-2l0-1l0-0.5v-0.3v-0.1v-0.1v0v0v0c-0.2,0.2,0.3-0.3,0.3-0.3c4.9,0,9.6,0,13.9,0l0.2,0l0,0.2
				c0,8.1-0.1,15.1-0.1,20.1c0,2.4-0.1,4.4-0.1,5.7c0,0.6,0,1.1,0,1.5C217.7,95.1,217.7,95.2,217.7,95.2z"/>
		</g>
		<g>
			<path class="st6" d="M238.2,95.2c0,0,0-0.1,0-0.2c0-0.2,0-0.4,0-0.6c0-0.5,0-1.3,0-2.2c0-2,0-4.8-0.1-8.3c0-7.1-0.1-17-0.1-28.5
				l0.3,0.3c-4.6,0-9.5,0-14.5,0c0.5-0.5,0.1-0.1,0.3-0.3v0v0v0v0.1v0.2v0.4l0,0.7c0,0.5,0,1,0,1.5c0,1,0,1.9,0,2.9
				c0,1.9,0,3.8,0,5.7c0,3.7,0,7.3,0,10.7c0,6.7,0,12.7-0.1,17.7l-0.2-0.2c4.5,0,8.1,0.1,10.6,0.1c1.2,0,2.2,0,2.9,0
				c0.3,0,0.6,0,0.8,0C238.1,95.2,238.2,95.2,238.2,95.2c0,0-0.1,0-0.2,0c-0.2,0-0.4,0-0.7,0c-0.7,0-1.6,0-2.9,0
				c-2.6,0-6.2,0.1-10.7,0.1l-0.2,0l0-0.2c0-4.9,0-10.9-0.1-17.7c0-3.4,0-6.9,0-10.7c0-1.9,0-3.7,0-5.7c0-1,0-1.9,0-2.9
				c0-0.5,0-1,0-1.5l0-0.7v-0.4v-0.2v-0.1v0l0,0v0c0.1-0.1-0.3,0.2,0.3-0.3c5.1,0,10,0,14.5,0l0.3,0l0,0.3c0,11.5-0.1,21.5-0.1,28.6
				c0,3.5-0.1,6.3-0.1,8.3c0,0.9,0,1.7,0,2.2C238.2,95,238.2,95.2,238.2,95.2z"/>
		</g>
	</g>
</g>
<g id="Character">
	<g>
		<g>
			<path class="st10" d="M244,365.4c1.6,3.7,8.1,88.8,7.4,87.5l16.4-1.1l1.1-88.4L244,365.4z"/>
			<g>
				<g>
					<g>
						<g>
							<g>
								<g>
									<path class="st8" d="M268.4,452.7l-0.1-1.5l-17.5,0.3l0.1,5l1.1,0c4.8,0.1,24.5,0.4,27.7-0.4
										C283.3,455.2,268.4,452.7,268.4,452.7z"/>
								</g>
							</g>
						</g>
						<g class="st11">
							<g>
								<g>
									<path d="M257.2,456.3c-0.3-1.2-1.1-2.3-2.3-3c-1.2-0.7-2.6-1.1-4.1-1l0.1,4L257.2,456.3z"/>
								</g>
							</g>
						</g>
					</g>
					<g>
						<g>
							<g class="st11">
								<path d="M275.6,454.1c0,0,5.2,1.1,4.6,1.9c-0.6,0.7-20.6,1-29.4,0.5l0-0.3l23.2-0.2C274.1,456,274.6,454.2,275.6,454.1z"/>
							</g>
						</g>
					</g>
					<g>
						<g>
							<g>
								<g>
									<path class="st6" d="M250.6,456.2c0,0,0.1,0,0.3,0c0.3,0,0.5,0,0.9,0c0.9,0,1.9,0,3.2,0.1c2.7,0,6.4,0,10.5,0
										c4.1-0.1,7.8-0.2,10.5-0.3c1.2-0.1,2.3-0.1,3.2-0.2c0.3,0,0.6,0,0.9-0.1c0.2,0,0.3,0,0.3,0c0,0-0.1,0-0.3,0
										c-0.3,0-0.5,0-0.9,0c-0.9,0-1.9,0.1-3.2,0.1c-2.7,0.1-6.4,0.2-10.5,0.3c-4.1,0.1-7.8,0.1-10.5,0.1c-1.3,0-2.3,0-3.2,0
										c-0.3,0-0.6,0-0.9,0C250.7,456.2,250.6,456.2,250.6,456.2z"/>
								</g>
							</g>
						</g>
					</g>
					<g>
						<g>
							<g>
								<g>
									<path class="st6" d="M274.1,456.2c0.1,0,0.1-0.6,0.6-1.2c0.4-0.6,1.1-1,1.1-1c0,0-0.8,0.2-1.2,0.9
										C274,455.6,274.1,456.2,274.1,456.2z"/>
								</g>
							</g>
						</g>
					</g>
					<g>
						<g>
							<g>
								<g>
									<path class="st6" d="M268.9,454.2c0,0,0.3-0.2,0.5-0.6c0.2-0.3,0.4-0.6,0.4-0.6c0,0-0.3,0.2-0.5,0.6
										C269,453.8,268.9,454.1,268.9,454.2z"/>
								</g>
							</g>
						</g>
					</g>
					<g>
						<g>
							<g>
								<g>
									<path class="st6" d="M267.5,453.6c0,0,0.3-0.1,0.6-0.3c0.3-0.2,0.5-0.4,0.5-0.5c0,0-0.3,0.1-0.6,0.3
										C267.7,453.3,267.5,453.5,267.5,453.6z"/>
								</g>
							</g>
						</g>
					</g>
					<g>
						<g>
							<g>
								<g>
									
										<ellipse transform="matrix(1 -6.854413e-03 6.854413e-03 1 -3.0934 1.8442)" class="st6" cx="267.5" cy="452.2" rx="0.9" ry="0.1"/>
								</g>
							</g>
						</g>
					</g>
					<g>
						<g>
							<g>
								<g>
									<path class="st6" d="M266.3,451.3c0,0,0.4,0.2,1,0.2c0.6,0,1.1-0.1,1-0.1c0,0-0.5,0-1,0
										C266.7,451.3,266.3,451.2,266.3,451.3z"/>
								</g>
							</g>
						</g>
					</g>
					<g>
						<g>
							<g>
								<g>
									<path class="st6" d="M269.5,452.9c0,0,0.4,0.1,1.1,0c0.3,0,0.8-0.1,1.2-0.2c0.2-0.1,0.4-0.1,0.7-0.2
										c0.1-0.1,0.2-0.1,0.3-0.3c0-0.1-0.1-0.3-0.2-0.4c-1.1-0.4-2.1,0.1-2.5,0.5c-0.2,0.2-0.3,0.5-0.4,0.6c0,0.2,0,0.2,0,0.2
										c0,0,0.1-0.4,0.5-0.8c0.2-0.2,0.5-0.4,0.9-0.5c0.4-0.1,1-0.1,1.3,0.1c0.2,0.1,0.1,0.3-0.1,0.4c-0.2,0.1-0.4,0.2-0.6,0.2
										c-0.4,0.1-0.8,0.2-1.1,0.3C269.9,452.9,269.5,452.9,269.5,452.9z"/>
								</g>
							</g>
						</g>
					</g>
					<g>
						<g>
							<g>
								<g>
									<path class="st6" d="M269.8,452.9c0,0,0.2-0.2,0.1-0.6c0-0.2-0.1-0.4-0.3-0.7c-0.2-0.2-0.5-0.5-0.9-0.5
										c-0.3,0-0.4,0.3-0.3,0.4c0,0.2,0.1,0.3,0.2,0.4c0.2,0.2,0.4,0.4,0.5,0.5C269.4,452.8,269.7,452.9,269.8,452.9
										c-0.1,0-0.3-0.2-0.6-0.5c-0.2-0.1-0.3-0.3-0.5-0.5c-0.2-0.2-0.3-0.5,0-0.6c0.3,0,0.6,0.2,0.7,0.4c0.2,0.2,0.3,0.4,0.3,0.6
										C269.9,452.7,269.8,452.9,269.8,452.9z"/>
								</g>
							</g>
						</g>
					</g>
					<g>
						<g>
							<g>
								<g>
									<path class="st6" d="M250.9,452.3c0,0,0.5,0,1.3,0c0.8,0.1,1.9,0.3,2.8,0.9c1,0.6,1.5,1.4,1.8,2c0.3,0.6,0.3,1,0.4,1
										c0,0,0-0.1,0-0.3c0-0.2-0.1-0.5-0.2-0.8c-0.2-0.6-0.8-1.5-1.8-2.1c-1-0.6-2.1-0.9-3-0.9c-0.4,0-0.7,0-1,0
										C251,452.2,250.9,452.3,250.9,452.3z"/>
								</g>
							</g>
						</g>
					</g>
					<g>
						<g>
							<g>
								<g>
									<path class="st6" d="M259.4,454.9c0,0,1.1,0.2,2.6,0.2c1.4,0,2.6-0.2,2.5-0.2c0-0.1-1.1,0-2.6,0
										C260.5,454.9,259.4,454.8,259.4,454.9z"/>
								</g>
							</g>
						</g>
					</g>
					<g>
						<g>
							<g>
								<g>
									<path class="st6" d="M255.9,454.9c0,0,0.1,0.2,0.2,0.4c0.1,0.2,0.2,0.4,0.3,0.4c0.1,0,0.1-0.2-0.1-0.5
										C256.2,455,256,454.9,255.9,454.9z"/>
								</g>
							</g>
						</g>
					</g>
					<g>
						<g>
							<g>
								<g>
									<path class="st6" d="M254.6,453.6c0,0,0.1,0.2,0.3,0.3c0.2,0.1,0.4,0.2,0.4,0.2c0,0-0.1-0.2-0.3-0.3
										C254.8,453.7,254.7,453.6,254.6,453.6z"/>
								</g>
							</g>
						</g>
					</g>
					<g>
						<g>
							<g>
								<g>
									<path class="st6" d="M252.8,453.1c0,0,0.2,0,0.5,0.1c0.3,0.1,0.4,0.2,0.5,0.1c0,0-0.1-0.2-0.4-0.3
										C253,452.9,252.7,453,252.8,453.1z"/>
								</g>
							</g>
						</g>
					</g>
					<g>
						<g>
							<g>
								<g>
									<path class="st6" d="M251.4,452.8c0,0,0.1,0.1,0.2,0.2c0.1,0,0.3,0,0.3,0c0,0-0.1-0.1-0.2-0.2
										C251.6,452.8,251.5,452.8,251.4,452.8z"/>
								</g>
							</g>
						</g>
					</g>
				</g>
			</g>
		</g>
		<g>
			<path class="st10" d="M212.2,365.9c0.5,1.6,9.1,87.7,9.1,87.7l16.4-1.1l1.1-86.6H212.2z"/>
			<g>
				<g>
					<g>
						<g>
							<g>
								<g>
									<path class="st8" d="M238.3,453.3l-0.1-1.5l-17.5,0.3l0.1,5l1.1,0c4.8,0.1,24.5,0.4,27.7-0.4
										C253.2,455.8,238.3,453.3,238.3,453.3z"/>
								</g>
							</g>
						</g>
						<g class="st11">
							<g>
								<g>
									<path d="M227.1,456.9c-0.3-1.2-1.1-2.3-2.3-3c-1.2-0.7-2.6-1.1-4.1-1l0.1,4L227.1,456.9z"/>
								</g>
							</g>
						</g>
					</g>
					<g>
						<g>
							<g class="st11">
								<path d="M245.6,454.7c0,0,5.2,1.1,4.6,1.9c-0.6,0.7-20.6,1-29.4,0.5l0-0.3l23.2-0.2C244.1,456.6,244.5,454.8,245.6,454.7z"
									/>
							</g>
						</g>
					</g>
					<g>
						<g>
							<g>
								<g>
									<path class="st6" d="M220.5,456.8c0,0,0.1,0,0.3,0c0.3,0,0.5,0,0.9,0c0.9,0,1.9,0,3.2,0.1c2.7,0,6.4,0,10.5,0
										c4.1-0.1,7.8-0.2,10.5-0.3c1.2-0.1,2.3-0.1,3.2-0.2c0.3,0,0.6,0,0.9-0.1c0.2,0,0.3,0,0.3,0c0,0-0.1,0-0.3,0
										c-0.3,0-0.5,0-0.9,0c-0.9,0-1.9,0.1-3.2,0.1c-2.7,0.1-6.4,0.2-10.5,0.3c-4.1,0.1-7.8,0.1-10.5,0.1c-1.3,0-2.3,0-3.2,0
										c-0.3,0-0.6,0-0.9,0C220.6,456.8,220.5,456.8,220.5,456.8z"/>
								</g>
							</g>
						</g>
					</g>
					<g>
						<g>
							<g>
								<g>
									<path class="st6" d="M244.1,456.8c0.1,0,0.1-0.6,0.6-1.2c0.4-0.6,1.1-1,1.1-1c0,0-0.8,0.2-1.2,0.9
										C243.9,456.2,244,456.8,244.1,456.8z"/>
								</g>
							</g>
						</g>
					</g>
					<g>
						<g>
							<g>
								<g>
									<path class="st6" d="M238.9,454.8c0,0,0.3-0.2,0.5-0.6c0.2-0.3,0.4-0.6,0.4-0.6c0,0-0.3,0.2-0.5,0.6
										C239,454.5,238.8,454.7,238.9,454.8z"/>
								</g>
							</g>
						</g>
					</g>
					<g>
						<g>
							<g>
								<g>
									<path class="st6" d="M237.4,454.2c0,0,0.3-0.1,0.6-0.3c0.3-0.2,0.5-0.4,0.5-0.5c0,0-0.3,0.1-0.6,0.3
										C237.6,453.9,237.4,454.1,237.4,454.2z"/>
								</g>
							</g>
						</g>
					</g>
					<g>
						<g>
							<g>
								<g>
									
										<ellipse transform="matrix(1 -6.854413e-03 6.854413e-03 1 -3.0984 1.6379)" class="st6" cx="237.4" cy="452.8" rx="0.9" ry="0.1"/>
								</g>
							</g>
						</g>
					</g>
					<g>
						<g>
							<g>
								<g>
									<path class="st6" d="M236.2,451.9c0,0,0.4,0.2,1,0.2c0.6,0,1.1-0.1,1-0.1c0,0-0.5,0-1,0
										C236.6,451.9,236.2,451.8,236.2,451.9z"/>
								</g>
							</g>
						</g>
					</g>
					<g>
						<g>
							<g>
								<g>
									<path class="st6" d="M239.4,453.5c0,0,0.4,0.1,1.1,0c0.3,0,0.8-0.1,1.2-0.2c0.2-0.1,0.4-0.1,0.7-0.2
										c0.1-0.1,0.2-0.1,0.3-0.3c0-0.1-0.1-0.3-0.2-0.4c-1.1-0.4-2.1,0.1-2.5,0.5c-0.2,0.2-0.3,0.5-0.4,0.6c0,0.2,0,0.2,0,0.2
										c0,0,0.1-0.4,0.5-0.8c0.2-0.2,0.5-0.4,0.9-0.5c0.4-0.1,1-0.1,1.3,0.1c0.2,0.1,0.1,0.3-0.1,0.4c-0.2,0.1-0.4,0.2-0.6,0.2
										c-0.4,0.1-0.8,0.2-1.1,0.3C239.8,453.5,239.4,453.5,239.4,453.5z"/>
								</g>
							</g>
						</g>
					</g>
					<g>
						<g>
							<g>
								<g>
									<path class="st6" d="M239.7,453.6c0,0,0.2-0.2,0.1-0.6c0-0.2-0.1-0.4-0.3-0.7c-0.2-0.2-0.5-0.5-0.9-0.5
										c-0.3,0-0.4,0.3-0.3,0.4c0,0.2,0.1,0.3,0.2,0.4c0.2,0.2,0.4,0.4,0.5,0.5C239.3,453.5,239.6,453.6,239.7,453.6
										c-0.1,0-0.3-0.2-0.6-0.5c-0.2-0.1-0.3-0.3-0.5-0.5c-0.2-0.2-0.3-0.5,0-0.6c0.3,0,0.6,0.2,0.7,0.4c0.2,0.2,0.3,0.4,0.3,0.6
										C239.8,453.3,239.7,453.5,239.7,453.6z"/>
								</g>
							</g>
						</g>
					</g>
					<g>
						<g>
							<g>
								<g>
									<path class="st6" d="M220.8,452.9c0,0,0.5,0,1.3,0c0.8,0.1,1.9,0.3,2.8,0.9c1,0.6,1.5,1.4,1.8,2c0.3,0.6,0.3,1,0.4,1
										c0,0,0-0.1,0-0.3c0-0.2-0.1-0.5-0.2-0.8c-0.2-0.6-0.8-1.5-1.8-2.1c-1-0.6-2.1-0.9-3-0.9c-0.4,0-0.7,0-1,0
										C220.9,452.9,220.8,452.9,220.8,452.9z"/>
								</g>
							</g>
						</g>
					</g>
					<g>
						<g>
							<g>
								<g>
									<path class="st6" d="M229.3,455.5c0,0,1.1,0.2,2.6,0.2c1.4,0,2.6-0.2,2.5-0.2c0-0.1-1.1,0-2.6,0
										C230.4,455.5,229.3,455.4,229.3,455.5z"/>
								</g>
							</g>
						</g>
					</g>
					<g>
						<g>
							<g>
								<g>
									<path class="st6" d="M225.9,455.5c0,0,0.1,0.2,0.2,0.4c0.1,0.2,0.2,0.4,0.3,0.4c0.1,0,0.1-0.2-0.1-0.5
										C226.1,455.6,225.9,455.5,225.9,455.5z"/>
								</g>
							</g>
						</g>
					</g>
					<g>
						<g>
							<g>
								<g>
									<path class="st6" d="M224.5,454.2c0,0,0.1,0.2,0.3,0.3c0.2,0.1,0.4,0.2,0.4,0.2c0,0-0.1-0.2-0.3-0.3
										C224.8,454.3,224.6,454.2,224.5,454.2z"/>
								</g>
							</g>
						</g>
					</g>
					<g>
						<g>
							<g>
								<g>
									<path class="st6" d="M222.7,453.7c0,0,0.2,0,0.5,0.1c0.3,0.1,0.4,0.2,0.5,0.1c0,0-0.1-0.2-0.4-0.3
										C222.9,453.5,222.7,453.6,222.7,453.7z"/>
								</g>
							</g>
						</g>
					</g>
					<g>
						<g>
							<g>
								<g>
									<path class="st6" d="M221.4,453.4c0,0,0.1,0.1,0.2,0.2c0.1,0,0.3,0,0.3,0c0,0-0.1-0.1-0.2-0.2
										C221.5,453.4,221.4,453.4,221.4,453.4z"/>
								</g>
							</g>
						</g>
					</g>
				</g>
			</g>
		</g>
		<g>
			<g>
				<g>
					<g>
						<path class="st10" d="M310.7,213.7L310.7,213.7c3.3-2.1,5.4-3.9,7.6-5.2c2.8-1.6,3.8-2.4,3.5-2.9c-0.4-0.7-0.2-0.4-5.7,1.7
							c0,0,7.7-3.2,5.5-3.8c-1-0.3-7.4,2.3-7.4,2.3c5.4-1.6,7.2-3,6.9-3.8c-0.4-1.2-8.2,2-8.2,2s6-2.3,6.9-3c0.9-0.7-0.5-1-1.7-1
							c-1.4,0.1-9.3,1.7-11.6,2.1c-1.6,0.2-1.7-1.2-1.7-1.2c0.1-3.4-1.6-6.1-2.4-6.6c-0.8-0.5-1.8,0.4-1.4,1.4
							c0.3,0.8,0.5,2.3,0.5,3.4c0.1,0.9,0,1.8-0.3,2.7c-0.3,1-0.6,1.9-0.9,2.6L285,228.4l6.6,16.4L310.7,213.7z"/>
					</g>
				</g>
				<g>
					<g>
						
							<ellipse transform="matrix(0.9195 -0.3931 0.3931 0.9195 -55.9152 141.0985)" class="st12" cx="316.5" cy="207.1" rx="4" ry="0.3"/>
					</g>
				</g>
				<g>
					<g>
						
							<ellipse transform="matrix(0.9416 -0.3369 0.3369 0.9416 -50.6651 118.3849)" class="st12" cx="315.8" cy="205.2" rx="4.3" ry="0.3"/>
					</g>
				</g>
				<g>
					<g>
						
							<ellipse transform="matrix(0.9459 -0.3244 0.3244 0.9459 -48.9178 113.0182)" class="st12" cx="314.5" cy="203.2" rx="4.1" ry="0.3"/>
					</g>
				</g>
			</g>
			<path class="st13" d="M267.5,188.7v36.6l0.2,26.3L226.9,265l0.4-20c0,0-8.4-26.4-8.4-26.8c0-0.4-0.8-28.8-0.8-28.8l15.1-3.7
				l19-0.2L267.5,188.7z"/>
			<path class="st13" d="M218.1,189.4c0,0-5.3,2.4-7.5,4.1c-1.4,1.2-14,23.7-22.1,38.5c-3.9,7-1.1,15.8,6.1,19.3l23.4,11.4l7.1-19.7
				l-13.4-7.3l10.1-17.6L218.1,189.4"/>
			<polygon class="st13" points="218,262.8 209.3,262.1 209.3,254.8 222,251.6 			"/>
			<path class="st13" d="M209.3,235.5c1.4,0.1,2.9,0.3,4.3,0.1c1.4-0.2,2.8-0.7,3.8-1.8c1.4-1.4,1.7-3.5,2-5.5
				c0.5-3.4,1-6.8,1.4-10.2c-3.4,0.2-6.3,2.9-7.8,6c-1.5,3.1-1.8,6.6-2.1,10.1"/>
			<path class="st13" d="M267.5,188.7l16.5,37.4l10.6-14.5c0,0,10.8,5.3,9.5,20.7l-12.8,17.4c-5.7,4.5-14.1,2.9-17.7-3.4L262,226.1
				L267.5,188.7z"/>
			<path class="st10" d="M226,187.5c-0.2,0.1,23.7,26.6,23.7,26.6l4.9-28.1C254.6,186,239.8,182.5,226,187.5z"/>
			<g>
				<path class="st6" d="M267.7,233.4c0,0-0.2-0.1-0.5-0.4c-0.3-0.3-0.8-0.7-1.3-1.3c-1.1-1.1-2.7-2.7-4.7-4.8
					c-3.9-4.1-9.2-9.8-14.9-16.2c-5.7-6.4-10.8-12.2-14.6-16.4c-1.8-2.1-3.3-3.8-4.4-5c-0.5-0.6-0.9-1-1.2-1.4
					c-0.3-0.3-0.4-0.5-0.4-0.5c0,0,0.2,0.1,0.5,0.4c0.3,0.3,0.7,0.8,1.3,1.3c1.1,1.1,2.6,2.8,4.5,4.9c3.8,4.1,9,9.9,14.7,16.3
					c5.7,6.4,10.9,12.2,14.8,16.3c1.9,2,3.4,3.7,4.5,4.9c0.5,0.5,0.9,1,1.2,1.3C267.6,233.3,267.7,233.4,267.7,233.4z"/>
			</g>
			<g>
				<path class="st6" d="M226.1,241.3c0,0-0.2-0.4-0.4-1.3c-0.3-0.9-0.6-2.1-1-3.5c-0.9-2.9-2.1-7-3.5-11.4
					c-1.4-4.5-2.6-8.5-3.3-11.5c-0.4-1.5-0.6-2.7-0.8-3.5c-0.2-0.8-0.2-1.3-0.2-1.3c0,0,0.2,0.4,0.4,1.3c0.3,0.9,0.6,2.1,1,3.5
					c0.8,2.9,2,7,3.4,11.4c1.4,4.5,2.6,8.5,3.4,11.5c0.4,1.5,0.7,2.7,0.9,3.5C226.1,240.9,226.2,241.3,226.1,241.3z"/>
			</g>
			<g>
				<path class="st6" d="M200.7,233.7c0,0-0.1-0.2,0-0.6c0.1-0.4,0.3-0.9,0.8-1.3c0.5-0.4,1.3-0.7,2.2-0.6c0.9,0.1,1.7,0.5,2.6,0.9
					c3.2,2,6,3.1,6,3.2c0,0.1-3-0.8-6.3-2.7c-0.8-0.5-1.6-0.8-2.4-0.9c-0.8-0.1-1.4,0.1-1.9,0.4c-0.5,0.3-0.8,0.7-0.9,1
					C200.7,233.5,200.7,233.7,200.7,233.7z"/>
			</g>
			<g>
				<path class="st6" d="M220,240.7c0.1,0.1-0.9,1-2.3,2.7c-1.4,1.7-3.2,4.1-4.7,7.1c-1.5,3-2.4,5.9-3,8c-0.5,2.1-0.7,3.5-0.8,3.5
					c0,0,0-0.3,0-1c0-0.6,0.2-1.5,0.4-2.6c0.4-2.2,1.3-5.1,2.9-8.1c1.5-3,3.4-5.5,4.9-7.1c0.7-0.8,1.4-1.4,1.8-1.9
					C219.7,240.8,220,240.6,220,240.7z"/>
			</g>
			<g>
				<path class="st6" d="M266.2,198c0,0,0.2,0.5,0.4,1.4c0.3,0.9,0.6,2.3,1,4c0.8,3.4,1.8,8.1,1.8,13.4c0,5.3-0.8,10.1-1.5,13.5
					c-0.3,1.7-0.6,3.1-0.9,4c-0.2,0.9-0.4,1.5-0.4,1.5c0,0,0-0.5,0.2-1.5c0.2-1,0.4-2.4,0.7-4c0.6-3.4,1.3-8.1,1.3-13.4
					c0-5.3-1-10-1.6-13.4c-0.3-1.6-0.6-3-0.8-4C266.2,198.5,266.1,198,266.2,198z"/>
			</g>
			<g>
				
					<ellipse transform="matrix(6.644577e-02 -0.9978 0.9978 6.644577e-02 33.0386 500.546)" class="st6" cx="284" cy="232.6" rx="5.4" ry="0.3"/>
			</g>
			<g>
				
					<ellipse transform="matrix(0.9301 -0.3674 0.3674 0.9301 -65.0268 121.2425)" class="st6" cx="286" cy="231.4" rx="0.3" ry="6.6"/>
			</g>
			<g>
				<path class="st6" d="M297,241.9c-0.1,0,0.1-1.4,0-3.6c-0.1-2.2-0.5-5.2-1.8-8.3c-1.3-3-3.3-5.4-4.7-7c-1.5-1.6-2.5-2.5-2.5-2.6
					c0,0,0.3,0.2,0.8,0.6c0.5,0.4,1.2,1,1.9,1.8c1.6,1.6,3.6,4,4.9,7.1c1.4,3.1,1.7,6.3,1.7,8.5c0,1.1-0.1,2-0.2,2.6
					C297.1,241.5,297,241.9,297,241.9z"/>
			</g>
			<g>
				<path class="st7" d="M233.5,196.9c0,0-0.4-0.2-1.1-0.5c-0.7-0.3-1.8-0.6-3.2-0.6c-1.4,0-3.1,0.5-4.5,1.6c-1.4,1.1-2.4,3-3.8,4.7
					c-0.7,0.8-1.6,1.6-2.6,2c-1,0.4-2,0.5-3,0.4c-1.9-0.2-3.5-1.1-4.6-2c-1.1-0.9-1.9-1.7-2.5-2.3c-0.5-0.6-0.8-0.9-0.8-0.9
					c0,0,0.4,0.3,0.9,0.8c0.6,0.5,1.4,1.3,2.6,2.1c1.1,0.8,2.6,1.6,4.4,1.8c0.9,0.1,1.9,0,2.8-0.4c0.9-0.4,1.7-1,2.4-1.8
					c1.4-1.6,2.3-3.5,3.9-4.7c1.5-1.2,3.3-1.6,4.8-1.6c1.5,0,2.6,0.4,3.3,0.7c0.4,0.2,0.6,0.3,0.8,0.5
					C233.4,196.8,233.5,196.9,233.5,196.9z"/>
			</g>
			<g>
				<path class="st7" d="M218.8,230.6c0,0-0.1,0.1-0.3,0.1c-0.2,0.1-0.5,0.1-0.8,0.2c-0.7,0.1-1.9-0.2-3-0.9c-1.1-0.7-2.3-2-3-3.6
					c-0.8-1.6-1.2-3.5-2-5.3c-0.7-1.8-1.8-3.4-3.1-4.5c-1.3-1.1-2.6-1.9-3.9-2.3c-2.4-0.9-4.1-0.7-4.1-0.9c0,0,0.4-0.1,1.1-0.1
					c0.7,0,1.8,0.1,3.1,0.6c1.3,0.4,2.7,1.2,4.1,2.3c1.3,1.2,2.6,2.8,3.3,4.7c0.8,1.9,1.2,3.7,1.9,5.3c0.7,1.6,1.7,2.8,2.7,3.5
					c1,0.8,2.1,1,2.8,1C218.4,230.7,218.8,230.5,218.8,230.6z"/>
			</g>
			<g>
				<path class="st7" d="M194.4,251.5c0-0.1,0.4,0,1-0.2c0.6-0.2,1.4-0.9,1.9-1.9c0.6-1,0.9-2.5,1.2-4.1c0.3-1.6,0.6-3.4,1.5-5.1
					c0.4-0.9,1-1.6,1.7-2.2c0.7-0.6,1.5-1,2.2-1.4c1.6-0.6,3.1-0.7,4.3-0.7c1.2,0,2.2,0.2,2.9,0.3c0.7,0.1,1,0.2,1,0.3
					c0,0.1-1.5-0.2-3.9-0.2c-1.2,0-2.7,0.2-4.1,0.8c-1.5,0.6-2.9,1.7-3.7,3.4c-0.8,1.6-1.1,3.4-1.5,5c-0.4,1.6-0.7,3-1.4,4.1
					c-0.6,1.1-1.5,1.8-2.2,2c-0.3,0.1-0.6,0.1-0.8,0.1C194.5,251.5,194.4,251.5,194.4,251.5z"/>
			</g>
			<g>
				<path class="st7" d="M222.1,251.6c0,0.2-2.7-0.1-5.9,0.8c-3.2,0.9-5.4,2.5-5.5,2.4c-0.1-0.1,2-2,5.3-2.9
					C219.4,251,222.2,251.5,222.1,251.6z"/>
			</g>
			<g>
				<path class="st7" d="M248.1,213.1c0,0-0.4,0.2-1.2,0.5c-0.7,0.3-1.8,0.9-2.9,1.8c-1.2,0.9-2.4,2.1-3.8,3.4c-1.4,1.3-3,2.8-5,3.8
					c-2,1.1-4.3,1.2-6.3,0.9c-1.9-0.3-3.6-1-4.9-1.6c-1.3-0.6-2.4-1.2-3.1-1.6c-0.7-0.4-1.1-0.7-1.1-0.7c0-0.1,1.6,0.8,4.3,2
					c1.3,0.6,3,1.2,4.9,1.4c1.9,0.3,4,0.1,6-0.9c2-1,3.5-2.4,4.9-3.7c1.4-1.3,2.7-2.5,3.9-3.4c1.2-0.9,2.3-1.4,3.1-1.7
					C247.6,213.1,248.1,213.1,248.1,213.1z"/>
			</g>
			<g>
				<path class="st7" d="M269.5,217.1c0,0.2-3.6,0-8,0.7c-4.4,0.6-7.8,1.8-7.9,1.7c0-0.1,0.8-0.4,2.2-0.9c1.4-0.5,3.4-1,5.6-1.3
					c2.2-0.3,4.3-0.4,5.7-0.4C268.6,216.9,269.5,217,269.5,217.1z"/>
			</g>
			<g>
				<path class="st7" d="M266.9,203.7c0,0.1-0.9-0.1-2.2-0.5c-1.5-0.4-3.3-1-5.2-1.5c-1.9-0.6-3.7-1.1-5.2-1.5
					c-1.3-0.4-2.2-0.7-2.1-0.7c0-0.1,0.9,0.1,2.2,0.4c1.4,0.3,3.2,0.8,5.3,1.4c2,0.6,3.9,1.2,5.2,1.7
					C266.1,203.3,266.9,203.6,266.9,203.7z"/>
			</g>
			<g>
				<path class="st7" d="M274.4,205.8c0.1,0.1-1.4,0.8-3,1.9c-1.6,1.1-2.7,2.3-2.8,2.2c-0.1-0.1,0.8-1.5,2.5-2.6
					C272.7,206.1,274.3,205.6,274.4,205.8z"/>
			</g>
			<g>
				<path class="st7" d="M283.3,224c0,0,0,0.3-0.1,0.8c-0.1,0.5-0.4,1.2-0.8,2c-0.9,1.6-2.6,3.6-4.9,5.2c-2.4,1.5-4.7,2.5-6.5,3.1
					c-1.7,0.6-2.8,0.9-2.8,0.8c0-0.1,1-0.5,2.7-1.2c1.7-0.7,4-1.7,6.3-3.2c2.3-1.5,4-3.4,4.9-4.9C282.9,225,283.2,223.9,283.3,224z"
					/>
			</g>
			<g>
				<path class="st7" d="M286.1,252.5c-0.1,0-0.3-1.2-0.5-3.3c-0.2-2-0.5-4.8-0.6-7.9c-0.1-3.1-0.2-5.9-0.1-8c0-2,0.1-3.3,0.2-3.3
					c0.1,0,0.1,1.3,0.2,3.3c0.1,2,0.1,4.8,0.3,7.9c0.1,3.1,0.3,5.9,0.4,7.9C286.1,251.3,286.2,252.5,286.1,252.5z"/>
			</g>
			<g>
				<path class="st7" d="M303.5,223.4c-0.1,0.2-3-2-7.3-3c-4.3-1.1-7.9-0.6-7.9-0.7c0-0.1,0.9-0.3,2.3-0.3c1.5-0.1,3.5,0,5.7,0.6
					c2.2,0.5,4,1.4,5.3,2.1C302.9,222.7,303.6,223.3,303.5,223.4z"/>
			</g>
			<g>
				<path class="st12" d="M309.5,210.2c-0.1,0-0.3-0.2-0.9-0.5c-0.5-0.3-1.4-0.6-2.4-0.6l-0.4,0l0.1-0.4c0.1-0.3,0.2-0.6,0.3-0.9
					c0.6-2.5-0.3-4.5-0.2-4.5c0.1,0,0.4,0.4,0.6,1.3c0.2,0.8,0.4,2.1,0,3.4c-0.1,0.3-0.2,0.7-0.3,1l-0.3-0.4c1.1,0,2.1,0.4,2.6,0.8
					C309.4,209.8,309.6,210.2,309.5,210.2z"/>
			</g>
		</g>
		<g>
			<path class="st6" d="M228.7,243.8l-0.2,1.5c0,0-18.4,22.2-19.8,37.5c-1.2,12.6,2.1,108.2,2.1,108.2l60.3-6.7l-2.7-139
				L228.7,243.8z"/>
			<g>
				<path class="st9" d="M254.8,264.8c0,0,0,0.1,0,0.3c0,0.2,0,0.5,0,0.9c0,0.8-0.1,2-0.1,3.6c-0.1,3.1-0.3,7.6-0.6,13.1
					c-0.6,11-1.5,26.3-2.7,43.1c-1.2,16.8-2.4,32-3.3,43.1c-0.5,5.5-0.9,9.9-1.1,13c-0.1,1.5-0.3,2.7-0.3,3.5c0,0.4-0.1,0.7-0.1,0.9
					c0,0.2,0,0.3-0.1,0.3c0,0,0-0.1,0-0.3c0-0.2,0-0.5,0.1-0.9c0.1-0.8,0.1-2,0.2-3.5c0.2-3.1,0.6-7.6,1-13.1
					c0.8-11.1,1.9-26.3,3.2-43.1c1.2-16.8,2.2-32,2.9-43.1c0.3-5.5,0.6-9.9,0.7-13.1c0.1-1.5,0.2-2.7,0.2-3.6c0-0.4,0.1-0.7,0.1-0.9
					C254.8,264.9,254.8,264.8,254.8,264.8z"/>
			</g>
			<g>
				<path class="st9" d="M246.2,291.8c0.1,0.1-0.6,0.3-0.8,1.2c-0.1,0.4,0,1,0.3,1.4c0.3,0.4,1,0.6,1.6,0.4c0.6-0.2,1.1-0.7,1.1-1.2
					c0.1-0.5-0.2-1-0.5-1.4c-0.6-0.7-1.3-0.5-1.3-0.6c0,0,0.1-0.1,0.4-0.1c0.3,0,0.7,0.1,1.1,0.5c0.4,0.3,0.8,0.9,0.7,1.7
					c0,0.8-0.7,1.5-1.5,1.7c-0.8,0.2-1.7,0-2.1-0.6c-0.4-0.6-0.4-1.3-0.3-1.8c0.2-0.5,0.5-0.8,0.7-1
					C246,291.8,246.2,291.8,246.2,291.8z"/>
			</g>
			<g>
				<path class="st9" d="M244.4,314c0.1,0.1-0.6,0.3-0.8,1.2c-0.1,0.4,0,1,0.3,1.4c0.3,0.4,1,0.6,1.6,0.4c0.6-0.2,1.1-0.7,1.1-1.2
					c0.1-0.5-0.2-1-0.5-1.4c-0.6-0.7-1.3-0.5-1.3-0.6c0,0,0.1-0.1,0.4-0.1c0.3,0,0.7,0.1,1.1,0.5c0.4,0.3,0.8,0.9,0.7,1.7
					c0,0.8-0.7,1.5-1.5,1.7c-0.8,0.2-1.7,0-2.1-0.6c-0.4-0.6-0.4-1.3-0.3-1.8c0.2-0.5,0.5-0.8,0.7-1C244.2,314,244.4,314,244.4,314z
					"/>
			</g>
			<g>
				<path class="st9" d="M242.2,335.5c0.1,0.1-0.6,0.3-0.8,1.2c-0.1,0.4,0,1,0.3,1.4c0.3,0.4,1,0.6,1.6,0.4c0.6-0.2,1.1-0.7,1.1-1.2
					c0.1-0.5-0.2-1-0.5-1.4c-0.6-0.7-1.3-0.5-1.3-0.6c0,0,0.1-0.1,0.4-0.1c0.3,0,0.7,0.1,1.1,0.5c0.4,0.3,0.8,0.9,0.7,1.7
					c0,0.8-0.7,1.5-1.5,1.7c-0.8,0.2-1.7,0-2.1-0.6c-0.4-0.6-0.4-1.3-0.3-1.8c0.2-0.5,0.5-0.8,0.7-1
					C242,335.4,242.2,335.4,242.2,335.5z"/>
			</g>
			<g>
				<path class="st9" d="M240.4,360c0.1,0.1-0.6,0.3-0.8,1.2c-0.1,0.4,0,1,0.3,1.4c0.3,0.4,1,0.6,1.6,0.4c0.6-0.2,1.1-0.7,1.1-1.2
					c0.1-0.5-0.2-1-0.5-1.4c-0.6-0.7-1.3-0.5-1.3-0.6c0,0,0.1-0.1,0.4-0.1c0.3,0,0.7,0.1,1.1,0.5c0.4,0.3,0.8,0.9,0.7,1.7
					c0,0.8-0.7,1.5-1.5,1.7c-0.8,0.2-1.7,0-2.1-0.6c-0.4-0.6-0.4-1.3-0.3-1.8c0.2-0.5,0.5-0.8,0.7-1C240.2,360,240.4,360,240.4,360z
					"/>
			</g>
		</g>
		<g>
			<g>
				<path class="st6" d="M265.9,166.9c0.1,0.1,0,0.5-0.5,0.9c-0.5,0.4-1.3,0.9-2.6,1.1c-1.2,0.2-2.8-0.2-4.1-1.3
					c-1.3-1.1-2.3-2.9-2.2-4.9c0.1-2,0.9-3.4,1.5-4.6c0.6-1.2,1.3-2.3,1.9-3.1c1.2-1.7,2.2-2.6,2.5-2.4c0.3,0.2-0.1,1.4-0.8,3.3
					c-0.4,1-0.9,2.1-1.3,3.3c-0.5,1.2-1.1,2.5-1.1,3.7c-0.1,1.1,0.4,2.2,1.2,3c0.7,0.7,1.6,1.1,2.5,1.2
					C264.5,167.2,265.6,166.6,265.9,166.9z"/>
			</g>
			<path class="st6" d="M231.4,141.2c2.7-0.9,4.4-4,4-6.8c-0.4-2.8-2.6-5.3-5.3-6.2c-2.7-1-5.8-0.6-8.3,0.7
				c-2.4,1.2-4.3,3.2-5.3,5.7c-0.9,2.5-0.7,5.4,0.8,7.6c1.9,2.8,5.7,4,9.1,3.2c3.3-0.8,6.1-3.2,7.8-6.2"/>
			<g>
				<path class="st9" d="M221.9,129c0,0,0.8-0.3,2.1,0.1c1.3,0.4,2.9,1.4,4,3.1c1.1,1.7,1.5,3.5,1.8,4.7c0.3,1.3,0.4,2,0.3,2.1
					c-0.1,0-0.3-0.7-0.6-2c-0.4-1.2-0.9-2.9-1.9-4.5c-1-1.6-2.5-2.6-3.6-3.1C222.7,129,221.9,129.1,221.9,129z"/>
			</g>
			<g>
				<path class="st9" d="M230.4,127.8c0.1,0,0.4,0.5,0.9,1.4c0.4,0.9,0.8,2.3,0.8,3.9c0,1.6-0.3,3-0.6,3.9c-0.4,1-0.7,1.5-0.8,1.4
					c-0.2-0.1,1-2.3,0.9-5.3C231.5,130,230.2,127.8,230.4,127.8z"/>
			</g>
			<g>
				<path class="st9" d="M216.1,135.8c0.1,0,0.3,0.8,0.9,1.9c0.6,1.1,1.9,2.5,3.6,3.3c1.8,0.8,3.6,0.8,4.9,0.6c1.3-0.2,2-0.6,2-0.5
					c0,0-0.6,0.6-2,0.9c-1.3,0.3-3.3,0.4-5.2-0.5c-1.9-0.9-3.2-2.4-3.7-3.6C216.1,136.6,216.1,135.8,216.1,135.8z"/>
			</g>
			<g>
				<path class="st6" d="M231.8,129.1c0,0,0.1-0.1,0.3-0.2c0.2-0.1,0.6-0.2,1.1-0.2c0.5,0,1,0.2,1.6,0.5c0.5,0.4,1,0.9,1.2,1.6
					c0.5,1.4,0.3,2.8-0.1,3.6c-0.2,0.4-0.5,0.7-0.7,0.9c-0.2,0.2-0.4,0.2-0.4,0.2c0,0,0.6-0.3,0.9-1.1c0.4-0.8,0.5-2.2,0-3.5
					c-0.2-0.6-0.6-1.2-1.1-1.5c-0.5-0.3-1-0.5-1.5-0.5C232.3,128.7,231.8,129.2,231.8,129.1z"/>
			</g>
			<path class="st6" d="M233.3,171.5c-3-3.9-6.2-8.8-7.6-13.5c-1.4-4.7-1.4-9.9,0.6-14.3c2.4-5.2,7.5-8.8,13-10.3
				c4.7-1.2,9.8-0.9,14.1,1.4c4.2,2.3,7.4,6.8,7.5,11.6"/>
			<path class="st6" d="M249.8,135.8c1.2-0.1,6.7,1.2,9.8,3.3s5.7,6.3,5.1,11c-0.3,2.4-2.7,5.6-3.7,7.4c-1.6,3-3.4,5.8-5.2,8.4"/>
			<g>
				<g>
					<g>
						<g>
							<g>
								<g>
									<g>
										<g>
											<g>
												<path class="st10" d="M233,152.7c0.2-7.6,6.5-13.6,14.2-13.2c7.2,0.4,12.8,6.6,12.8,13.8c0,6.3-0.1,12.7-0.4,15
													c-1.1,6.9-5.5,8.9-7.2,9.5c-0.4,0.1-1.5,0.2-1.9,0.2l0,0c0,0,0,0,0,0l0.4,8.1c-0.1,5.3-3.6,9.4-8.9,9.4
													c-5.3,0-8.7-4.6-8.8-9.8L233,152.7z"/>
												<g>
													<g>
														<g>
															<g>
																<path class="st6" d="M256.8,156.3c0,0.6-0.5,1.1-1.1,1.1c-0.6,0-1.1-0.4-1.1-1c0-0.6,0.5-1.1,1.1-1.1
																	C256.3,155.3,256.8,155.7,256.8,156.3z"/>
															</g>
														</g>
													</g>
													<g>
														<g>
															<g>
																<g>
																	<path class="st6" d="M258.2,154.9c-0.1,0.1-1-0.5-2.2-0.5c-1.2,0-2.1,0.6-2.2,0.5c-0.1-0.1,0.1-0.3,0.5-0.6
																		c0.4-0.3,1-0.5,1.7-0.5c0.7,0,1.4,0.3,1.7,0.6C258.1,154.6,258.2,154.9,258.2,154.9z"/>
																</g>
															</g>
														</g>
													</g>
												</g>
												<g>
													<g>
														<g>
															<g>
																<path class="st6" d="M245.4,156.3c0,0.6-0.5,1.1-1.1,1.1c-0.6,0-1.1-0.4-1.1-1c0-0.6,0.5-1.1,1.1-1.1
																	C244.9,155.3,245.4,155.7,245.4,156.3z"/>
															</g>
														</g>
													</g>
													<g>
														<g>
															<g>
																<g>
																	<path class="st6" d="M246.5,155.1c-0.1,0.1-1-0.5-2.2-0.5c-1.2,0-2.1,0.6-2.2,0.5c-0.1-0.1,0.1-0.3,0.5-0.6
																		c0.4-0.3,1-0.5,1.7-0.5c0.7,0,1.4,0.3,1.7,0.6C246.5,154.8,246.6,155.1,246.5,155.1z"/>
																</g>
															</g>
														</g>
													</g>
												</g>
												<g>
													<g>
														<g>
															<g>
																<path class="st6" d="M250.8,163.9c0-0.1,0.7-0.2,1.9-0.3c0.3,0,0.6-0.1,0.6-0.3c0.1-0.2-0.1-0.5-0.2-0.9
																	c-0.3-0.7-0.6-1.5-0.9-2.3c-1.2-3.3-2.1-6-2-6c0.1,0,1.2,2.6,2.5,5.9c0.3,0.8,0.6,1.6,0.9,2.3
																	c0.1,0.3,0.3,0.7,0.2,1.2c-0.1,0.2-0.3,0.4-0.5,0.4c-0.2,0.1-0.4,0.1-0.5,0.1C251.6,164,250.8,164,250.8,163.9z"/>
															</g>
														</g>
													</g>
												</g>
												<g>
													<g>
														<g>
															<path class="st12" d="M250.4,178c0,0-4.6,0.4-10.3-3.1c0,0,1.8,6.1,10.4,5.3L250.4,178z"/>
														</g>
													</g>
												</g>
												<g>
													<g>
														<g>
															<path class="st12" d="M250.3,166.8c-0.4-0.6-1.2-0.9-1.9-0.8c-0.5,0.1-1,0.3-1.3,0.7c-0.3,0.4-0.4,1-0.1,1.4
																c0.3,0.5,1,0.6,1.6,0.4c0.6-0.2,1.1-0.5,1.5-0.9c0.1-0.1,0.3-0.2,0.3-0.4C250.5,167.1,250.5,167,250.3,166.8"/>
														</g>
													</g>
												</g>
												<g>
													<g>
														<g>
															<g>
																<path class="st6" d="M247.3,164.8c0.2,0,0.2,1.3,1.3,2.2c1.1,0.9,2.5,0.8,2.5,1c0,0.1-0.3,0.3-0.9,0.3
																	c-0.6,0-1.4-0.2-2.1-0.7c-0.7-0.6-1-1.3-1-1.8C247.1,165.1,247.2,164.8,247.3,164.8z"/>
															</g>
														</g>
													</g>
												</g>
											</g>
										</g>
									</g>
									<g>
										<g>
											<g>
												<path class="st6" d="M247,153.1c-0.1,0.3-1.3,0.2-2.7,0.3c-1.4,0.1-2.5,0.5-2.7,0.3c-0.1-0.1,0.1-0.4,0.6-0.8
													c0.4-0.3,1.2-0.6,2-0.7c0.8-0.1,1.6,0,2.1,0.2C246.8,152.7,247.1,152.9,247,153.1z"/>
											</g>
										</g>
									</g>
									<g>
										<g>
											<g>
												<path class="st6" d="M257.7,152.5c-0.2,0.3-1,0-2,0c-1,0-1.8,0.2-2-0.1c-0.1-0.1,0-0.4,0.4-0.7c0.4-0.3,1-0.5,1.6-0.4
													c0.7,0,1.3,0.3,1.6,0.5C257.7,152.1,257.8,152.4,257.7,152.5z"/>
											</g>
										</g>
									</g>
								</g>
							</g>
						</g>
					</g>
				</g>
			</g>
			<path class="st6" d="M231.6,157c4.8,1.2,9.5-1.1,13.4-4.2c3.9-3.1,6.3-8.2,6.6-13.4c0-1.1,0.1-3.4-0.9-3.6
				c-2.1-0.5-2.4-0.4-3.7,0c-4,1.1-11.4,1.8-13.9,5.4c-2.5,3.5-3.1,9.3-3.1,13.8"/>
			<path class="st6" d="M245.5,164.2"/>
			<g>
				<path class="st6" d="M260.3,151.7c0,0,0.3,0,0.9-0.2c0.5-0.2,1.3-0.5,2-1.3c0.7-0.7,1.3-1.8,1.4-3.1c0.1-1.3-0.2-2.8-1-4.1
					c-0.8-1.3-1.9-2.3-3-3.1c-1.1-0.8-2.2-1.3-3.1-1.7c-0.9-0.4-1.7-0.7-2.2-0.9c-0.2-0.1-0.4-0.2-0.6-0.2c-0.1-0.1-0.2-0.1-0.2-0.1
					c0,0,0.1,0,0.2,0.1c0.2,0.1,0.4,0.1,0.6,0.2c0.5,0.2,1.3,0.5,2.3,0.8c0.9,0.4,2,0.9,3.2,1.7c1.1,0.8,2.2,1.8,3.1,3.1
					c0.8,1.4,1.1,2.9,1,4.2c-0.1,1.4-0.8,2.5-1.5,3.2c-0.7,0.7-1.5,1.1-2.1,1.2C260.6,151.7,260.3,151.7,260.3,151.7z"/>
			</g>
			<g>
				<path class="st9" d="M225.4,146.7c0,0,0.3,0.3,1,0.7c0.7,0.4,1.7,0.9,3.1,1c1.4,0.1,3-0.1,4.7-0.8c1.7-0.7,3.5-1.8,5.3-2.9
					c1.8-1.2,3.4-2.4,4.8-3.7c1.3-1.3,2.3-2.6,3-3.8c1.4-2.4,1.5-4.2,1.6-4.2c0,0,0,0.4-0.1,1.2c-0.2,0.8-0.5,1.9-1.2,3.2
					c-0.7,1.3-1.7,2.7-3,4c-1.3,1.3-3,2.6-4.8,3.7c-1.8,1.2-3.6,2.2-5.4,2.9c-1.8,0.7-3.5,0.9-5,0.7c-1.4-0.2-2.5-0.7-3.2-1.2
					c-0.3-0.2-0.6-0.5-0.7-0.6C225.4,146.8,225.4,146.8,225.4,146.7z"/>
			</g>
			<g>
				<path class="st9" d="M236,135.4c0.1,0.1-2.7,1.3-5.4,3.8c-2.7,2.4-4.2,5-4.4,4.9c-0.1,0,0.2-0.7,0.9-1.7c0.7-1,1.7-2.3,3.1-3.6
					c1.4-1.2,2.8-2.1,3.9-2.7C235.2,135.5,235.9,135.3,236,135.4z"/>
			</g>
			<g>
				<path class="st10" d="M234.8,157.6c-1.6-0.7-2.7-0.1-3.5,0.5c-0.8,0.6-1.1,2-1,2.9c0.1,0.9,0.8,1.8,1.6,2.3
					c0.8,0.5,1.2,0.7,2.1,0.7"/>
				<g>
					<path class="st12" d="M233.7,161.9c0,0.1-0.3,0.3-0.8,0.2c-0.3,0-0.6-0.2-0.8-0.4c-0.3-0.2-0.5-0.6-0.5-1
						c0-0.4,0.1-0.8,0.3-1.1c0.2-0.3,0.5-0.5,0.8-0.5c0.5-0.2,0.8,0,0.8,0.1c0,0.1-0.3,0.1-0.7,0.3c-0.4,0.2-0.8,0.6-0.7,1.3
						c0,0.6,0.5,1,0.9,1.1C233.4,161.9,233.6,161.8,233.7,161.9z"/>
				</g>
			</g>
			<g>
				<path class="st9" d="M234.3,172.9c0,0.2-0.8,0.5-2.3,0.4c-1.5-0.1-3.8-0.8-5.7-2.9c-1-1-1.8-2.4-2.2-4.1
					c-0.4-1.7-0.3-3.5,0.3-5.4c0.6-1.8,1.8-3.6,3.4-4.9c1.7-1.3,3.9-1.9,5.8-2.2c2-0.4,3.7-0.6,5.3-1.3c1.6-0.6,3-1.4,4.3-2.4
					c2.5-1.9,4.1-4.4,5.1-6.6c1-2.2,1.3-4.2,1.5-5.6c0.2-1.4,0.2-2.2,0.4-2.2c0.2,0,0.5,0.7,0.6,2.2c0.1,1.5,0.1,3.7-0.8,6.2
					c-0.8,2.6-2.5,5.5-5.3,7.8c-1.4,1.2-3,2.2-4.8,2.9c-1.8,0.8-3.9,1.1-5.8,1.5c-1.9,0.3-3.5,0.8-4.8,1.7c-1.3,0.9-2.2,2.2-2.7,3.6
					c-0.5,1.4-0.7,2.8-0.4,4.1c0.2,1.3,0.8,2.4,1.5,3.3c1.4,1.8,3.3,2.7,4.5,3.1C233.5,172.6,234.3,172.7,234.3,172.9z"/>
			</g>
			<g>
				<path class="st9" d="M224.2,151.9c0-0.4,2-0.6,5.1-1c3.1-0.4,7.3-1,11.4-3c2-1,3.7-2.4,4.9-3.8c1.2-1.4,2.1-3,2.6-4.4
					c1-2.8,0.7-4.8,1.1-4.8c0.2,0,0.5,0.4,0.7,1.3c0.2,0.9,0.3,2.3,0,4c-0.3,1.7-1.1,3.6-2.5,5.4c-1.4,1.8-3.3,3.4-5.6,4.6
					c-2.3,1.2-4.6,1.8-6.8,2.2c-2.1,0.3-4.1,0.4-5.7,0.4C226.2,152.6,224.2,152.2,224.2,151.9z"/>
			</g>
		</g>
		<g>
			<g>
				<path class="st9" d="M234.2,227.7l-2.8,34.4c-0.1,1.6,1.1,2.9,2.7,2.8l25.8-0.7c1.3,0,2.4-1,2.5-2.4l3.5-33.7
					c0.2-1.5-1.1-2.9-2.6-2.9h-26.5C235.5,225.3,234.3,226.3,234.2,227.7z"/>
				<circle class="st7" cx="250.3" cy="230.7" r="1.6"/>
			</g>
			<path class="st10" d="M233.8,240.8c0,0-3.5,1-4.1,1.7c-0.6,0.7-2.9,1.8-2.9,1.8l-2.7,0.7l-3.7,11.2l22.5,0.7c0,0,6.2-4.4,5.4-4.9
				c-0.8-0.5-3.2-0.1-4.2,1c-1.6,1.7-4.3-0.7-4.3-0.7s11.2-2.3,12.1-3.4c0.9-1.1,2-1.3,1.4-2.4c-0.6-1.1-5.3-0.5-6.8-0.5
				c-1.6,0-5.1,0.7-5.1,0.7s7-2.5,7.5-2.8c1.4-0.8-0.1-2.3-1.9-1.9c-1.7,0.4-8,2.6-9.1,2.5c-1.1-0.2-4-0.5-4-0.5L233.8,240.8z"/>
		</g>
	</g>
</g>
<g id="Plants">
	<g>
		<g>
			<g>
				<rect x="79.2" y="400.7" class="st6" width="67.2" height="9.2"/>
			</g>
			<g>
				<path class="st6" d="M146.5,410H79.1v-9.5h67.4V410z M79.3,409.8h67v-9h-67V409.8z"/>
			</g>
		</g>
		<g>
			<g>
				<polygon class="st6" points="85.5,406.9 95.1,454.6 130.9,454.6 140.3,409.9 				"/>
			</g>
		</g>
		<g>
			<g>
				<polygon class="st9" points="85.5,450.1 90.6,457.1 134.1,457.1 140.3,450.1 				"/>
			</g>
		</g>
		<g>
			<g>
				<g>
					<path class="st6" d="M110.3,408.2c-0.1,0-0.3-22.1-0.4-49.4c-0.1-27.3,0-49.4,0.1-49.4c0.1,0,0.3,22.1,0.4,49.4
						C110.5,386.1,110.4,408.2,110.3,408.2z"/>
				</g>
			</g>
		</g>
		<g>
			<g>
				<g>
					<path class="st6" d="M125.3,352.9c0,0,0,0.2-0.2,0.5c-0.2,0.4-0.4,0.8-0.6,1.4c-0.1,0.3-0.3,0.7-0.4,1
						c-0.1,0.4-0.3,0.8-0.4,1.3c-0.2,0.5-0.3,0.9-0.5,1.4c-0.2,0.5-0.3,1.1-0.5,1.6c-0.7,2.3-1.3,5.1-1.9,8.2
						c-0.5,3.1-0.9,6.6-1,10.3c-0.3,7.3,0.1,14,0.5,18.8c0.2,2.4,0.4,4.3,0.6,5.7c0.1,0.6,0.1,1.1,0.2,1.5c0,0.4,0,0.5,0,0.5
						c0,0-0.1-0.2-0.1-0.5c-0.1-0.4-0.2-0.9-0.3-1.5c-0.2-1.3-0.5-3.3-0.7-5.7c-0.5-4.8-1-11.5-0.7-18.8c0.2-3.7,0.6-7.2,1.1-10.3
						c0.6-3.1,1.2-6,2-8.3c0.2-0.6,0.3-1.1,0.5-1.6c0.2-0.5,0.4-1,0.6-1.4c0.2-0.4,0.3-0.9,0.5-1.2c0.2-0.4,0.3-0.7,0.5-1
						c0.3-0.6,0.5-1,0.7-1.4C125.2,353.1,125.2,352.9,125.3,352.9z"/>
				</g>
			</g>
		</g>
		<g>
			<g>
				<g>
					<path class="st6" d="M123.5,335.1c0,0-0.1,0.3-0.2,0.7c-0.2,0.5-0.4,1.2-0.7,2.1c-0.2,0.4-0.3,0.9-0.5,1.5
						c-0.2,0.6-0.3,1.1-0.5,1.8c-0.4,1.3-0.8,2.7-1.3,4.4c-0.2,0.8-0.4,1.7-0.7,2.6c-0.2,0.9-0.4,1.8-0.6,2.8
						c-0.5,1.9-0.8,4-1.2,6.2c-0.7,4.4-1.4,9.2-1.8,14.4c-0.4,5.1-0.6,10-0.7,14.5c0,4.5,0,8.5,0.2,11.8c0.1,1.7,0.2,3.2,0.3,4.5
						c0.1,1.3,0.2,2.5,0.2,3.4c0.1,0.9,0.1,1.6,0.2,2.2c0,0.5,0,0.8,0,0.8c0,0-0.1-0.3-0.1-0.7c-0.1-0.5-0.1-1.3-0.3-2.2
						c-0.1-0.9-0.2-2.1-0.3-3.4c-0.1-1.3-0.2-2.9-0.3-4.5c-0.2-3.4-0.3-7.4-0.3-11.9c0-4.5,0.2-9.4,0.6-14.5
						c0.5-5.1,1.1-10,1.9-14.4c0.4-2.2,0.8-4.3,1.3-6.2c0.2-1,0.4-1.9,0.7-2.8c0.2-0.9,0.5-1.7,0.7-2.6c0.4-1.6,0.9-3.1,1.3-4.4
						c0.2-0.6,0.4-1.2,0.6-1.8c0.2-0.5,0.4-1,0.6-1.5c0.3-0.8,0.6-1.5,0.8-2C123.4,335.3,123.5,335.1,123.5,335.1z"/>
				</g>
			</g>
		</g>
		<g>
			<g>
				<g>
					<path class="st6" d="M106,412.2c0,0,0-0.1,0-0.3c0-0.2,0-0.4-0.1-0.8c0-0.7-0.1-1.7-0.2-2.9c-0.2-2.6-0.4-6.2-0.7-10.8
						c-0.6-9.1-1.4-21.6-3-35.5c-0.8-6.9-1.7-13.5-2.6-19.4c-0.5-3-1-5.8-1.5-8.4c-0.5-2.6-1-5.1-1.5-7.3c-0.4-2.2-0.9-4.2-1.3-6
						c-0.4-1.8-0.8-3.3-1.1-4.5c-0.3-1.2-0.5-2.2-0.7-2.8c-0.1-0.3-0.1-0.5-0.2-0.7c0-0.2-0.1-0.3,0-0.3c0,0,0,0.1,0.1,0.2
						c0.1,0.2,0.1,0.4,0.2,0.7c0.2,0.7,0.5,1.6,0.8,2.8c0.3,1.2,0.7,2.7,1.2,4.5c0.4,1.8,0.9,3.8,1.4,6c0.5,2.2,1,4.7,1.5,7.3
						c0.5,2.6,1,5.5,1.5,8.4c1,5.9,1.9,12.5,2.7,19.4c1.5,13.8,2.3,26.4,2.8,35.5c0.2,4.5,0.4,8.2,0.5,10.8c0,1.2,0.1,2.2,0.1,2.9
						c0,0.3,0,0.6,0,0.8C106.1,412.1,106.1,412.2,106,412.2z"/>
				</g>
			</g>
		</g>
		<g>
			<g>
				<path class="st14" d="M109.7,320.1c-0.3-3.1-3.5-5.5-6.6-5.5c-3.1,0-6.1,1.9-8,4.3c-1.9,2.5-3,5.5-3.9,8.5
					c-2.1,7.4-3.3,15.1-2.4,22.7c0.9,7.6,4,15.1,9.5,20.5c0.9,0.9,2,1.8,3.3,1.5c0.7-0.1,1.2-0.6,1.7-1.1
					c10.7-9.7,16.9-24.2,16.5-38.7c-0.1-2.9-0.5-5.9-2.1-8.3C116.2,321.7,112.5,319.2,109.7,320.1"/>
			</g>
		</g>
		<g>
			<g>
				<g>
					<path class="st14" d="M86.3,295.1c-1.5,2.7-3,5.3-4.4,8c-0.1,0.2-0.2,0.4-0.5,0.4c-0.2,0-0.4-0.2-0.5-0.4
						c-3.9-6-7.8-12-11.7-18l2.7-1.5L86.3,295.1z"/>
				</g>
			</g>
			<g class="st15">
				<g>
					<g>
						<path d="M86.3,295.1c-1.5,2.7-3,5.3-4.4,8c-0.1,0.2-0.2,0.4-0.5,0.4c-0.2,0-0.4-0.2-0.5-0.4c-3.9-6-7.8-12-11.7-18l2.7-1.5
							L86.3,295.1z"/>
					</g>
				</g>
			</g>
			<g>
				<g>
					<path class="st14" d="M110,309.5c-13.3-7.9-26.6-15.7-39.9-23.6c-0.4-0.2-0.8-0.5-1-1c-0.2-0.6,0.3-1.2,0.7-1.6
						c5.5-5.7,13.5-9,21.3-8.4c7.9,0.6,15.4,5.1,19.3,12C114.3,293.9,114.4,303,110,309.5"/>
				</g>
			</g>
			<g>
				<g>
					<g>
						<path class="st6" d="M75.8,278.4c0,0,0.2,0,0.5-0.1c0.3,0,0.9-0.1,1.5-0.1c1.3,0,3.2,0.1,5.5,0.4c2.3,0.4,5,1.1,7.9,2.4
							c2.8,1.3,5.8,3.1,8.5,5.5c2.7,2.4,4.8,5.2,6.3,7.9c1.5,2.7,2.6,5.3,3.2,7.6c0.6,2.3,0.9,4.2,1,5.5c0.1,0.7,0,0.8,0.1,1.2
							c0,0.3-0.3,0.9-0.3,0.9c0,0,0.2-0.7,0.1-2c-0.2-1.3-0.5-3.2-1.1-5.4c-1.3-4.4-4.2-10.4-9.5-15.2c-5.3-4.8-11.6-7.1-16.1-7.9
							c-2.3-0.4-4.2-0.6-5.5-0.6C76.6,278.4,75.8,278.5,75.8,278.4z"/>
					</g>
				</g>
			</g>
			<g>
				<g>
					<g>
						<path class="st6" d="M104.6,293.2c0,0.1-0.7,0.4-2,0.9c-1.3,0.5-3.1,1.1-5,1.8c-2,0.6-3.8,1.1-5.1,1.5
							c-1.3,0.3-2.2,0.5-2.2,0.4c0-0.1,0.8-0.3,2.1-0.7c1.5-0.5,3.2-1,5.1-1.6c1.9-0.6,3.6-1.2,5.1-1.6
							C103.8,293.4,104.6,293.2,104.6,293.2z"/>
					</g>
				</g>
			</g>
			<g>
				<g>
					<g>
						<path class="st6" d="M98.3,276.4c0.1,0,0.4,2,0.5,4.5c0.1,2.5-0.1,4.5-0.2,4.5c-0.1,0-0.2-2-0.2-4.5
							C98.3,278.4,98.2,276.4,98.3,276.4z"/>
					</g>
				</g>
			</g>
			<g>
				<g>
					<g>
						<path class="st6" d="M69.7,285.5c0-0.1,1.1-0.5,2.9-1c1.8-0.6,4.3-1.3,7.2-1.9c2.8-0.7,5.4-1.2,7.3-1.5c1.9-0.3,3-0.5,3-0.4
							c0,0.1-1.1,0.3-3,0.7c-1.9,0.4-4.4,1-7.2,1.7c-2.8,0.7-5.3,1.3-7.2,1.8C70.9,285.3,69.7,285.6,69.7,285.5z"/>
					</g>
				</g>
			</g>
		</g>
		<g>
			<g>
				<g>
					<path class="st14" d="M93.2,313.3c-3.4-2.6-7.1-3.1-11.4-2.9c-4.3,0.2-8.5,1.5-12.5,3.2c-6.7,2.9-13.1,7.3-17.1,13.5
						c-4,6.2-5.4,14.3-2.4,21c0.3,0.7,0.7,1.4,1.4,1.7c0.7,0.3,1.5,0.1,2.3-0.2c7.7-2.5,15.4-5,22.4-8.9c7-3.9,13.5-9.4,17.2-16.5
						c0.9-1.7,1.7-3.5,1.8-5.5C95.1,316.8,94.5,314.7,93.2,313.3"/>
				</g>
			</g>
			<g>
				<g>
					<g>
						<path class="st6" d="M93.2,312.5c0,0-0.2,0.1-0.6,0.2c-0.4,0.1-0.9,0.3-1.6,0.6c-0.4,0.1-0.7,0.2-1.2,0.4
							c-0.4,0.2-0.9,0.3-1.4,0.5c-1,0.4-2.1,0.8-3.3,1.4c-0.6,0.3-1.2,0.6-1.9,0.9c-0.7,0.3-1.3,0.7-2,1c-1.4,0.7-2.8,1.6-4.3,2.4
							c-2.9,1.9-6,4.1-9.1,6.7c-3,2.7-5.6,5.5-7.8,8.1c-1.1,1.4-2.1,2.7-3,3.9c-0.4,0.6-0.9,1.2-1.3,1.8c-0.4,0.6-0.7,1.2-1.1,1.8
							c-0.7,1.1-1.3,2.2-1.8,3.1c-0.2,0.5-0.5,0.9-0.7,1.3c-0.2,0.4-0.4,0.8-0.5,1.1c-0.3,0.6-0.6,1.1-0.8,1.5
							c-0.2,0.3-0.3,0.5-0.3,0.5c0,0,0.1-0.2,0.2-0.6c0.2-0.4,0.4-0.9,0.7-1.6c0.2-0.3,0.3-0.7,0.5-1.1c0.2-0.4,0.4-0.8,0.7-1.3
							c0.5-0.9,1-2,1.7-3.1c0.3-0.6,0.7-1.2,1.1-1.8c0.4-0.6,0.8-1.2,1.3-1.9c0.8-1.3,1.9-2.6,2.9-4c2.2-2.7,4.8-5.5,7.9-8.2
							c3-2.7,6.2-4.9,9.2-6.7c1.5-0.9,2.9-1.7,4.3-2.4c0.7-0.3,1.4-0.7,2-1c0.7-0.3,1.3-0.6,1.9-0.8c1.2-0.6,2.3-0.9,3.3-1.3
							c0.5-0.2,0.9-0.4,1.4-0.5c0.4-0.1,0.8-0.2,1.2-0.3c0.7-0.2,1.2-0.3,1.6-0.5C93,312.6,93.2,312.5,93.2,312.5z"/>
					</g>
				</g>
			</g>
			<g>
				<g>
					<g>
						
							<ellipse transform="matrix(0.9598 -0.2806 0.2806 0.9598 -90.1453 29.5096)" class="st6" cx="58" cy="329.5" rx="8.8" ry="0.2"/>
					</g>
				</g>
			</g>
			<g>
				<g>
					<g>
						<path class="st6" d="M66.1,345.5c-0.1,0-0.1-1-0.2-2.6c0-1.6-0.1-3.8,0-6.3c0.1-2.5,0.2-4.7,0.3-6.3c0.1-1.6,0.3-2.6,0.3-2.6
							c0.1,0,0.1,1,0,2.6c-0.1,1.8-0.1,3.9-0.2,6.3c-0.1,2.4-0.1,4.5-0.2,6.3C66.2,344.5,66.1,345.5,66.1,345.5z"/>
					</g>
				</g>
			</g>
			<g>
				<g>
					<g>
						
							<ellipse transform="matrix(0.9976 -6.898198e-02 6.898198e-02 0.9976 -22.388 6.3777)" class="st6" cx="81.2" cy="327.4" rx="0.2" ry="10.1"/>
					</g>
				</g>
			</g>
			<g>
				<g>
					<g>
						<path class="st6" d="M62.2,316.8c0-0.1,1-0.1,2.7-0.1c1.7,0,3.9,0.1,6.4,0.1c2.5,0.1,4.8,0.2,6.4,0.3c1.6,0.1,2.7,0.2,2.7,0.3
							c0,0.1-1,0.1-2.7,0.1c-1.7,0-3.9-0.1-6.5-0.1c-2.5-0.1-4.8-0.2-6.4-0.3C63.2,317,62.2,316.9,62.2,316.8z"/>
					</g>
				</g>
			</g>
		</g>
		<g>
			<g>
				<g>
					<path class="st6" d="M100.1,371.8c0,0,0-0.2-0.1-0.5c0-0.4,0-0.9-0.1-1.5c-0.1-1.3-0.1-3.3,0-5.7c0-2.4,0.2-5.2,0.5-8.4
						c0.3-3.1,0.8-6.6,1.4-10.2c0.7-3.6,1.5-7,2.3-10c0.8-3.1,1.7-5.8,2.5-8c0.8-2.3,1.5-4.1,2-5.3c0.2-0.6,0.4-1,0.6-1.4
						c0.1-0.3,0.2-0.5,0.2-0.5c0,0,0,0.2-0.2,0.5c-0.1,0.4-0.3,0.9-0.5,1.4c-0.5,1.3-1.1,3.1-1.9,5.3c-0.8,2.3-1.6,5-2.4,8
						c-0.8,3.1-1.6,6.4-2.2,10c-0.6,3.6-1.1,7-1.4,10.1c-0.3,3.1-0.5,6-0.6,8.3c-0.1,2.4-0.1,4.3-0.1,5.6c0,0.6,0,1.1,0,1.5
						C100.1,371.6,100.1,371.8,100.1,371.8z"/>
				</g>
			</g>
		</g>
		<g>
			<g>
				<g>
					<path class="st6" d="M102.2,345.7c0,0-0.6,0.7-1.6,1.7c-1,1-2.5,2.4-4.2,3.9c-1.7,1.5-3.2,2.7-4.4,3.6
						c-1.2,0.9-1.9,1.4-1.9,1.4c0-0.1,0.6-0.7,1.7-1.6c1.2-1.1,2.7-2.3,4.3-3.7c1.6-1.4,3-2.7,4.3-3.8
						C101.5,346.2,102.2,345.6,102.2,345.7z"/>
				</g>
			</g>
		</g>
		<g>
			<g>
				<g>
					<path class="st6" d="M114.9,355.8c-0.1,0-0.7-0.9-1.7-2.4c-1.1-1.6-2.4-3.6-3.9-5.8c-1.5-2.2-2.9-4.1-4-5.7
						c-1-1.5-1.7-2.4-1.6-2.4c0.1,0,0.8,0.8,1.9,2.2c1.1,1.4,2.6,3.4,4.2,5.6c1.6,2.2,2.9,4.3,3.8,5.9
						C114.4,354.8,114.9,355.8,114.9,355.8z"/>
				</g>
			</g>
		</g>
		<g>
			<g>
				<g>
					
						<ellipse transform="matrix(0.8412 -0.5408 0.5408 0.8412 -162.739 105.792)" class="st6" cx="98.7" cy="329.9" rx="11.3" ry="0.2"/>
				</g>
			</g>
		</g>
		<g>
			<g>
				<g>
					
						<ellipse transform="matrix(0.6987 -0.7154 0.7154 0.6987 -202.1655 181.0634)" class="st6" cx="113.9" cy="330.6" rx="0.2" ry="8.6"/>
				</g>
			</g>
		</g>
		<g>
			<g>
				<g>
					<path class="st14" d="M123.1,336.3l3.6-0.3c2.6-0.2,5-1,7.3-2.2c1.1-0.6,2.2-1.2,3.4-1.7c4.5-1.8,9.4-1.5,14.2-1.7
						c7.8-0.4,15.6-2.4,22.6-5.8c0.4-0.2,0.8-0.5,1-0.9c0.7-1.3-0.6-2.6-1.8-3.3c-6.1-3.7-12.3-7.5-19.1-9.4
						c-6.9-1.9-14.7-1.5-20.6,2.5C126.7,318.3,124.2,328,123.1,336.3"/>
				</g>
			</g>
			<g>
				<g>
					<g>
						<path class="st6" d="M175.3,323.3c0,0-0.2-0.1-0.6-0.3c-0.4-0.2-1-0.5-1.7-0.9c-1.5-0.8-3.6-1.9-6.3-3.2
							c-2.7-1.3-6-2.7-9.8-3.8c-3.8-1.1-8.2-1.6-12.7-1c-4.5,0.6-8.6,2.3-11.5,5c-2.9,2.6-4.7,5.8-6,8.4c-1.3,2.7-2,5-2.6,6.6
							c-0.3,0.8-0.5,1.4-0.6,1.8c-0.2,0.4-0.2,0.6-0.3,0.6s0-0.2,0.2-0.7c0.1-0.5,0.3-1.1,0.6-1.8c0.5-1.6,1.2-3.9,2.5-6.7
							c1.2-2.7,3-5.9,6-8.6c3-2.7,7.2-4.5,11.8-5.1c4.6-0.6,9,0,12.8,1.1c3.8,1.1,7.1,2.6,9.8,3.9c2.7,1.3,4.8,2.5,6.3,3.4
							c0.7,0.4,1.2,0.7,1.7,1C175.1,323.1,175.3,323.3,175.3,323.3z"/>
					</g>
				</g>
			</g>
			<g>
				<g>
					<g>
						
							<ellipse transform="matrix(0.5591 -0.8291 0.8291 0.5591 -197.2022 271.0171)" class="st6" cx="156.2" cy="320.9" rx="0.2" ry="12.5"/>
					</g>
				</g>
			</g>
			<g>
				<g>
					<g>
						<path class="st6" d="M161.6,313.7c0,0.1-1.5,0.5-3.4,0.6c-1.9,0.2-3.5,0.1-3.5,0c0-0.1,1.6-0.2,3.5-0.4
							C160,313.7,161.6,313.5,161.6,313.7z"/>
					</g>
				</g>
			</g>
			<g>
				<g>
					<g>
						<path class="st6" d="M140.9,311c0.1,0.1-0.6,1.1-1.5,2.4c-1,1.3-1.8,2.3-2,2.2c-0.1-0.1,0.6-1.1,1.5-2.4
							C139.9,311.9,140.8,310.9,140.9,311z"/>
					</g>
				</g>
			</g>
			<g>
				<g>
					<g>
						<path class="st6" d="M145.2,330.7c0,0.1-0.9-0.4-2.3-1.2c-1.4-0.8-3.2-2-5.2-3.5c-2-1.4-3.7-2.8-4.9-3.8c-1.2-1-2-1.6-2-1.7
							c0-0.1,0.9,0.5,2.2,1.4c1.4,1,3.1,2.3,5,3.7c2,1.4,3.8,2.7,5.1,3.6C144.4,330.1,145.2,330.6,145.2,330.7z"/>
					</g>
				</g>
			</g>
		</g>
		<g>
			<g>
				<g>
					<path class="st14" d="M128.4,351.7c-3.4-0.9-7.5,2.4-8.2,5.9c-0.7,3.5,0.6,7.1,2.1,10.3c3.4,7.1,8.1,13.7,14.2,18.6
						c6.2,4.9,13.9,8,21.7,8c-1.5-6.8,0.4-13.8-0.4-20.7c-0.7-6-3.5-11.7-7.8-15.9c-4.3-4.2-10-7-16-7.6
						C131.8,350,129.2,349.6,128.4,351.7"/>
				</g>
			</g>
			<g>
				<g>
					<g>
						<path class="st6" d="M158.2,394.5c0,0-0.2-0.1-0.5-0.2c-0.3-0.2-0.8-0.4-1.3-0.9c-1.1-0.8-2.3-2.4-3.4-4.5
							c-0.5-1.1-1.2-2.2-1.8-3.5c-0.6-1.3-1.2-2.7-1.9-4.1c-0.7-1.4-1.4-2.9-2.3-4.4c-0.9-1.5-2-2.9-3.1-4.3
							c-2.4-2.8-4.9-5.2-7.1-7.4c-2.2-2.3-4.1-4.5-5.4-6.5c-1.4-2-2.2-3.8-2.6-5c-0.2-0.6-0.4-1.1-0.5-1.5c-0.1-0.3-0.1-0.5-0.1-0.5
							c0,0,0.2,0.7,0.7,1.9c0.5,1.2,1.4,3,2.7,4.9c1.4,2,3.2,4.1,5.4,6.4c2.2,2.3,4.7,4.6,7.1,7.4c1.2,1.4,2.3,2.8,3.2,4.3
							c0.9,1.5,1.6,3,2.3,4.4c0.6,1.4,1.2,2.8,1.8,4.1c0.6,1.3,1.2,2.4,1.7,3.5c1,2.1,2.2,3.7,3.2,4.6
							C157.6,394.1,158.2,394.4,158.2,394.5z"/>
					</g>
				</g>
			</g>
			<g>
				<g>
					<g>
						<path class="st6" d="M140.4,388.8c-0.1,0,0-0.9,0.3-2.3c0.3-1.4,0.7-3.4,1.3-5.5c0.6-2.1,1.2-4,1.7-5.4
							c0.5-1.3,0.9-2.2,0.9-2.1c0.1,0-0.2,0.9-0.6,2.2c-0.4,1.4-1,3.3-1.6,5.4c-0.6,2.1-1.1,4-1.4,5.4
							C140.7,388,140.5,388.9,140.4,388.8z"/>
					</g>
				</g>
			</g>
			<g>
				<g>
					<g>
						<path class="st6" d="M157.6,372.3c0,0.1-0.9-0.2-2.4-0.6c-1.5-0.4-3.5-0.9-5.8-1.4c-2.3-0.5-4.4-0.9-5.9-1.2
							c-1.5-0.3-2.4-0.5-2.4-0.5c0-0.1,1,0,2.5,0.2c1.5,0.2,3.6,0.5,5.9,1.1c2.3,0.5,4.3,1.1,5.8,1.6
							C156.7,371.9,157.6,372.2,157.6,372.3z"/>
					</g>
				</g>
			</g>
			<g>
				<g>
					<g>
						<path class="st6" d="M127.7,377.1c-0.1,0,0.1-1,0.4-2.7c0.3-1.6,0.8-3.9,1.4-6.4c0.6-2.5,1.3-4.7,1.9-6.3
							c0.5-1.6,0.9-2.5,1-2.5c0.1,0-0.2,1-0.7,2.6c-0.5,1.6-1.1,3.8-1.7,6.3c-0.6,2.5-1.2,4.7-1.6,6.3
							C128,376.1,127.7,377.1,127.7,377.1z"/>
					</g>
				</g>
			</g>
			<g>
				<g>
					<g>
						
							<ellipse transform="matrix(0.1054 -0.9944 0.9944 0.1054 -229.4882 458.5157)" class="st6" cx="140.1" cy="356.8" rx="0.2" ry="9.6"/>
					</g>
				</g>
			</g>
		</g>
		<g>
			<g>
				<g>
					<ellipse class="st9" cx="112.8" cy="409.9" rx="33.7" ry="0.2"/>
				</g>
			</g>
		</g>
		<g>
			<g>
				<g>
					<ellipse class="st9" cx="113.3" cy="429.3" rx="22.7" ry="0.2"/>
				</g>
			</g>
		</g>
		<g>
			<g>
				<g>
					<ellipse class="st9" cx="113.3" cy="432.1" rx="22.3" ry="0.2"/>
				</g>
			</g>
		</g>
		<g>
			<g>
				<g>
					<ellipse class="st9" cx="112.9" cy="427" rx="23.5" ry="0.2"/>
				</g>
			</g>
		</g>
	</g>
	<g>
		<g>
			<path class="st8" d="M394,401c2.6,1.1,4.5,3.6,5.5,6.2c1,2.7,1.1,5.6,0.7,8.5c-0.6,5.5-3.7,11-7.1,15.4c-4.6-4-5.7-11.1-6-14.7
				C386.7,410.7,389.2,400.1,394,401"/>
		</g>
		<g>
			<path class="st8" d="M398.9,440.7c-1-3,0.1-6.5,2.3-8.8c2.2-2.3,5.5-3.4,8.7-3.4c1.5,0,3.1,0.3,4,1.5c0.9,1.1,0.9,2.7,0.3,3.9
				c-0.5,1.3-1.6,2.3-2.7,3.1C407.7,439.7,403.5,441.7,398.9,440.7"/>
		</g>
		<g>
			<g>
				<path class="st6" d="M392.8,456.9c0,0,0-0.4,0.1-1.2c0.1-0.7,0.3-1.8,0.6-3.1c0.6-2.6,1.5-6.2,3.5-9.8c2-3.6,4.7-6.3,7.1-7.6
					c1.2-0.7,2.2-1.1,2.9-1.3c0.7-0.2,1.1-0.2,1.1-0.2c0,0.1-1.6,0.4-3.8,1.9c-2.2,1.4-4.9,4-6.8,7.5c-1.9,3.5-2.9,7.1-3.6,9.6
					C393.3,455.3,392.9,456.9,392.8,456.9z"/>
			</g>
		</g>
		<g>
			<g>
				<path class="st6" d="M393,409.3c0,0,0.1,0.7,0.2,1.9c0.1,1.2,0.2,3,0.2,5.2c0.2,4.4,0.3,10.5,0.3,17.2c0,6.7-0.2,12.8-0.4,17.2
					c-0.1,2.2-0.2,4-0.3,5.2c-0.1,1.2-0.2,1.9-0.2,1.9c0,0-0.1-0.7,0-1.9c0-1.3,0.1-3.1,0.1-5.2c0.1-4.4,0.2-10.5,0.2-17.2
					c0-6.7,0-12.8-0.1-17.2c0-2.1,0-3.9,0-5.2C392.9,410,392.9,409.3,393,409.3z"/>
			</g>
		</g>
		<g>
			<path class="st8" d="M390.4,443.6c-0.9-6.7-5.3-12.8-11.3-15.8c-1.5-0.8-3.5-1.3-4.8-0.2c-1.3,1.1-1.1,3.2-0.5,4.8
				c2.4,6.7,9.3,11.5,16.4,11.6"/>
		</g>
		<g>
			<g>
				<path class="st6" d="M379.6,433c0,0,0.4,0.1,1,0.4c0.3,0.1,0.7,0.3,1.2,0.6c0.4,0.3,0.9,0.5,1.5,0.9c1.1,0.7,2.2,1.7,3.4,3
					c1.2,1.2,2.3,2.7,3.3,4.4c1,1.7,1.7,3.4,2.2,5.1c0.5,1.6,0.8,3.1,0.8,4.4c0.1,0.6,0.1,1.2,0.1,1.7c0,0.5,0,0.9,0,1.3
					c-0.1,0.7-0.1,1.1-0.2,1.1c-0.1,0,0-1.6-0.3-4.1c-0.1-1.2-0.5-2.7-1-4.3c-0.5-1.6-1.2-3.3-2.2-4.9c-1-1.7-2.1-3.1-3.2-4.4
					c-1.1-1.2-2.2-2.2-3.2-3C381,433.8,379.5,433.1,379.6,433z"/>
			</g>
		</g>
	</g>
</g>
</svg>
